G04 #@! TF.GenerationSoftware,KiCad,Pcbnew,5.1.6-c6e7f7d~86~ubuntu20.04.1*
G04 #@! TF.CreationDate,2020-05-31T11:04:02+02:00*
G04 #@! TF.ProjectId,HPPSI01,48505053-4930-4312-9e6b-696361645f70,rev?*
G04 #@! TF.SameCoordinates,Original*
G04 #@! TF.FileFunction,Soldermask,Bot*
G04 #@! TF.FilePolarity,Negative*
%FSLAX46Y46*%
G04 Gerber Fmt 4.6, Leading zero omitted, Abs format (unit mm)*
G04 Created by KiCad (PCBNEW 5.1.6-c6e7f7d~86~ubuntu20.04.1) date 2020-05-31 11:04:02*
%MOMM*%
%LPD*%
G01*
G04 APERTURE LIST*
%ADD10C,0.100000*%
G04 APERTURE END LIST*
D10*
G36*
X213653512Y-126183927D02*
G01*
X213802812Y-126213624D01*
X213966784Y-126281544D01*
X214114354Y-126380147D01*
X214239853Y-126505646D01*
X214338456Y-126653216D01*
X214406376Y-126817188D01*
X214441000Y-126991259D01*
X214441000Y-127168741D01*
X214406376Y-127342812D01*
X214338456Y-127506784D01*
X214239853Y-127654354D01*
X214114354Y-127779853D01*
X213966784Y-127878456D01*
X213802812Y-127946376D01*
X213653512Y-127976073D01*
X213628742Y-127981000D01*
X213451258Y-127981000D01*
X213426488Y-127976073D01*
X213277188Y-127946376D01*
X213113216Y-127878456D01*
X212965646Y-127779853D01*
X212840147Y-127654354D01*
X212741544Y-127506784D01*
X212673624Y-127342812D01*
X212639000Y-127168741D01*
X212639000Y-126991259D01*
X212673624Y-126817188D01*
X212741544Y-126653216D01*
X212840147Y-126505646D01*
X212965646Y-126380147D01*
X213113216Y-126281544D01*
X213277188Y-126213624D01*
X213426488Y-126183927D01*
X213451258Y-126179000D01*
X213628742Y-126179000D01*
X213653512Y-126183927D01*
G37*
G36*
X211113512Y-126183927D02*
G01*
X211262812Y-126213624D01*
X211426784Y-126281544D01*
X211574354Y-126380147D01*
X211699853Y-126505646D01*
X211798456Y-126653216D01*
X211866376Y-126817188D01*
X211901000Y-126991259D01*
X211901000Y-127168741D01*
X211866376Y-127342812D01*
X211798456Y-127506784D01*
X211699853Y-127654354D01*
X211574354Y-127779853D01*
X211426784Y-127878456D01*
X211262812Y-127946376D01*
X211113512Y-127976073D01*
X211088742Y-127981000D01*
X210911258Y-127981000D01*
X210886488Y-127976073D01*
X210737188Y-127946376D01*
X210573216Y-127878456D01*
X210425646Y-127779853D01*
X210300147Y-127654354D01*
X210201544Y-127506784D01*
X210133624Y-127342812D01*
X210099000Y-127168741D01*
X210099000Y-126991259D01*
X210133624Y-126817188D01*
X210201544Y-126653216D01*
X210300147Y-126505646D01*
X210425646Y-126380147D01*
X210573216Y-126281544D01*
X210737188Y-126213624D01*
X210886488Y-126183927D01*
X210911258Y-126179000D01*
X211088742Y-126179000D01*
X211113512Y-126183927D01*
G37*
G36*
X148113512Y-126183927D02*
G01*
X148262812Y-126213624D01*
X148426784Y-126281544D01*
X148574354Y-126380147D01*
X148699853Y-126505646D01*
X148798456Y-126653216D01*
X148866376Y-126817188D01*
X148901000Y-126991259D01*
X148901000Y-127168741D01*
X148866376Y-127342812D01*
X148798456Y-127506784D01*
X148699853Y-127654354D01*
X148574354Y-127779853D01*
X148426784Y-127878456D01*
X148262812Y-127946376D01*
X148113512Y-127976073D01*
X148088742Y-127981000D01*
X147911258Y-127981000D01*
X147886488Y-127976073D01*
X147737188Y-127946376D01*
X147573216Y-127878456D01*
X147425646Y-127779853D01*
X147300147Y-127654354D01*
X147201544Y-127506784D01*
X147133624Y-127342812D01*
X147099000Y-127168741D01*
X147099000Y-126991259D01*
X147133624Y-126817188D01*
X147201544Y-126653216D01*
X147300147Y-126505646D01*
X147425646Y-126380147D01*
X147573216Y-126281544D01*
X147737188Y-126213624D01*
X147886488Y-126183927D01*
X147911258Y-126179000D01*
X148088742Y-126179000D01*
X148113512Y-126183927D01*
G37*
G36*
X145573512Y-126183927D02*
G01*
X145722812Y-126213624D01*
X145886784Y-126281544D01*
X146034354Y-126380147D01*
X146159853Y-126505646D01*
X146258456Y-126653216D01*
X146326376Y-126817188D01*
X146361000Y-126991259D01*
X146361000Y-127168741D01*
X146326376Y-127342812D01*
X146258456Y-127506784D01*
X146159853Y-127654354D01*
X146034354Y-127779853D01*
X145886784Y-127878456D01*
X145722812Y-127946376D01*
X145573512Y-127976073D01*
X145548742Y-127981000D01*
X145371258Y-127981000D01*
X145346488Y-127976073D01*
X145197188Y-127946376D01*
X145033216Y-127878456D01*
X144885646Y-127779853D01*
X144760147Y-127654354D01*
X144661544Y-127506784D01*
X144593624Y-127342812D01*
X144559000Y-127168741D01*
X144559000Y-126991259D01*
X144593624Y-126817188D01*
X144661544Y-126653216D01*
X144760147Y-126505646D01*
X144885646Y-126380147D01*
X145033216Y-126281544D01*
X145197188Y-126213624D01*
X145346488Y-126183927D01*
X145371258Y-126179000D01*
X145548742Y-126179000D01*
X145573512Y-126183927D01*
G37*
G36*
X145573512Y-123643927D02*
G01*
X145722812Y-123673624D01*
X145886784Y-123741544D01*
X146034354Y-123840147D01*
X146159853Y-123965646D01*
X146258456Y-124113216D01*
X146326376Y-124277188D01*
X146361000Y-124451259D01*
X146361000Y-124628741D01*
X146326376Y-124802812D01*
X146258456Y-124966784D01*
X146159853Y-125114354D01*
X146034354Y-125239853D01*
X145886784Y-125338456D01*
X145722812Y-125406376D01*
X145573512Y-125436073D01*
X145548742Y-125441000D01*
X145371258Y-125441000D01*
X145346488Y-125436073D01*
X145197188Y-125406376D01*
X145033216Y-125338456D01*
X144885646Y-125239853D01*
X144760147Y-125114354D01*
X144661544Y-124966784D01*
X144593624Y-124802812D01*
X144559000Y-124628741D01*
X144559000Y-124451259D01*
X144593624Y-124277188D01*
X144661544Y-124113216D01*
X144760147Y-123965646D01*
X144885646Y-123840147D01*
X145033216Y-123741544D01*
X145197188Y-123673624D01*
X145346488Y-123643927D01*
X145371258Y-123639000D01*
X145548742Y-123639000D01*
X145573512Y-123643927D01*
G37*
G36*
X213653512Y-123643927D02*
G01*
X213802812Y-123673624D01*
X213966784Y-123741544D01*
X214114354Y-123840147D01*
X214239853Y-123965646D01*
X214338456Y-124113216D01*
X214406376Y-124277188D01*
X214441000Y-124451259D01*
X214441000Y-124628741D01*
X214406376Y-124802812D01*
X214338456Y-124966784D01*
X214239853Y-125114354D01*
X214114354Y-125239853D01*
X213966784Y-125338456D01*
X213802812Y-125406376D01*
X213653512Y-125436073D01*
X213628742Y-125441000D01*
X213451258Y-125441000D01*
X213426488Y-125436073D01*
X213277188Y-125406376D01*
X213113216Y-125338456D01*
X212965646Y-125239853D01*
X212840147Y-125114354D01*
X212741544Y-124966784D01*
X212673624Y-124802812D01*
X212639000Y-124628741D01*
X212639000Y-124451259D01*
X212673624Y-124277188D01*
X212741544Y-124113216D01*
X212840147Y-123965646D01*
X212965646Y-123840147D01*
X213113216Y-123741544D01*
X213277188Y-123673624D01*
X213426488Y-123643927D01*
X213451258Y-123639000D01*
X213628742Y-123639000D01*
X213653512Y-123643927D01*
G37*
G36*
X148113512Y-123643927D02*
G01*
X148262812Y-123673624D01*
X148426784Y-123741544D01*
X148574354Y-123840147D01*
X148699853Y-123965646D01*
X148798456Y-124113216D01*
X148866376Y-124277188D01*
X148901000Y-124451259D01*
X148901000Y-124628741D01*
X148866376Y-124802812D01*
X148798456Y-124966784D01*
X148699853Y-125114354D01*
X148574354Y-125239853D01*
X148426784Y-125338456D01*
X148262812Y-125406376D01*
X148113512Y-125436073D01*
X148088742Y-125441000D01*
X147911258Y-125441000D01*
X147886488Y-125436073D01*
X147737188Y-125406376D01*
X147573216Y-125338456D01*
X147425646Y-125239853D01*
X147300147Y-125114354D01*
X147201544Y-124966784D01*
X147133624Y-124802812D01*
X147099000Y-124628741D01*
X147099000Y-124451259D01*
X147133624Y-124277188D01*
X147201544Y-124113216D01*
X147300147Y-123965646D01*
X147425646Y-123840147D01*
X147573216Y-123741544D01*
X147737188Y-123673624D01*
X147886488Y-123643927D01*
X147911258Y-123639000D01*
X148088742Y-123639000D01*
X148113512Y-123643927D01*
G37*
G36*
X211113512Y-123643927D02*
G01*
X211262812Y-123673624D01*
X211426784Y-123741544D01*
X211574354Y-123840147D01*
X211699853Y-123965646D01*
X211798456Y-124113216D01*
X211866376Y-124277188D01*
X211901000Y-124451259D01*
X211901000Y-124628741D01*
X211866376Y-124802812D01*
X211798456Y-124966784D01*
X211699853Y-125114354D01*
X211574354Y-125239853D01*
X211426784Y-125338456D01*
X211262812Y-125406376D01*
X211113512Y-125436073D01*
X211088742Y-125441000D01*
X210911258Y-125441000D01*
X210886488Y-125436073D01*
X210737188Y-125406376D01*
X210573216Y-125338456D01*
X210425646Y-125239853D01*
X210300147Y-125114354D01*
X210201544Y-124966784D01*
X210133624Y-124802812D01*
X210099000Y-124628741D01*
X210099000Y-124451259D01*
X210133624Y-124277188D01*
X210201544Y-124113216D01*
X210300147Y-123965646D01*
X210425646Y-123840147D01*
X210573216Y-123741544D01*
X210737188Y-123673624D01*
X210886488Y-123643927D01*
X210911258Y-123639000D01*
X211088742Y-123639000D01*
X211113512Y-123643927D01*
G37*
G36*
X211113512Y-121103927D02*
G01*
X211262812Y-121133624D01*
X211426784Y-121201544D01*
X211574354Y-121300147D01*
X211699853Y-121425646D01*
X211798456Y-121573216D01*
X211866376Y-121737188D01*
X211901000Y-121911259D01*
X211901000Y-122088741D01*
X211866376Y-122262812D01*
X211798456Y-122426784D01*
X211699853Y-122574354D01*
X211574354Y-122699853D01*
X211426784Y-122798456D01*
X211262812Y-122866376D01*
X211113512Y-122896073D01*
X211088742Y-122901000D01*
X210911258Y-122901000D01*
X210886488Y-122896073D01*
X210737188Y-122866376D01*
X210573216Y-122798456D01*
X210425646Y-122699853D01*
X210300147Y-122574354D01*
X210201544Y-122426784D01*
X210133624Y-122262812D01*
X210099000Y-122088741D01*
X210099000Y-121911259D01*
X210133624Y-121737188D01*
X210201544Y-121573216D01*
X210300147Y-121425646D01*
X210425646Y-121300147D01*
X210573216Y-121201544D01*
X210737188Y-121133624D01*
X210886488Y-121103927D01*
X210911258Y-121099000D01*
X211088742Y-121099000D01*
X211113512Y-121103927D01*
G37*
G36*
X148113512Y-121103927D02*
G01*
X148262812Y-121133624D01*
X148426784Y-121201544D01*
X148574354Y-121300147D01*
X148699853Y-121425646D01*
X148798456Y-121573216D01*
X148866376Y-121737188D01*
X148901000Y-121911259D01*
X148901000Y-122088741D01*
X148866376Y-122262812D01*
X148798456Y-122426784D01*
X148699853Y-122574354D01*
X148574354Y-122699853D01*
X148426784Y-122798456D01*
X148262812Y-122866376D01*
X148113512Y-122896073D01*
X148088742Y-122901000D01*
X147911258Y-122901000D01*
X147886488Y-122896073D01*
X147737188Y-122866376D01*
X147573216Y-122798456D01*
X147425646Y-122699853D01*
X147300147Y-122574354D01*
X147201544Y-122426784D01*
X147133624Y-122262812D01*
X147099000Y-122088741D01*
X147099000Y-121911259D01*
X147133624Y-121737188D01*
X147201544Y-121573216D01*
X147300147Y-121425646D01*
X147425646Y-121300147D01*
X147573216Y-121201544D01*
X147737188Y-121133624D01*
X147886488Y-121103927D01*
X147911258Y-121099000D01*
X148088742Y-121099000D01*
X148113512Y-121103927D01*
G37*
G36*
X213653512Y-121103927D02*
G01*
X213802812Y-121133624D01*
X213966784Y-121201544D01*
X214114354Y-121300147D01*
X214239853Y-121425646D01*
X214338456Y-121573216D01*
X214406376Y-121737188D01*
X214441000Y-121911259D01*
X214441000Y-122088741D01*
X214406376Y-122262812D01*
X214338456Y-122426784D01*
X214239853Y-122574354D01*
X214114354Y-122699853D01*
X213966784Y-122798456D01*
X213802812Y-122866376D01*
X213653512Y-122896073D01*
X213628742Y-122901000D01*
X213451258Y-122901000D01*
X213426488Y-122896073D01*
X213277188Y-122866376D01*
X213113216Y-122798456D01*
X212965646Y-122699853D01*
X212840147Y-122574354D01*
X212741544Y-122426784D01*
X212673624Y-122262812D01*
X212639000Y-122088741D01*
X212639000Y-121911259D01*
X212673624Y-121737188D01*
X212741544Y-121573216D01*
X212840147Y-121425646D01*
X212965646Y-121300147D01*
X213113216Y-121201544D01*
X213277188Y-121133624D01*
X213426488Y-121103927D01*
X213451258Y-121099000D01*
X213628742Y-121099000D01*
X213653512Y-121103927D01*
G37*
G36*
X145573512Y-121103927D02*
G01*
X145722812Y-121133624D01*
X145886784Y-121201544D01*
X146034354Y-121300147D01*
X146159853Y-121425646D01*
X146258456Y-121573216D01*
X146326376Y-121737188D01*
X146361000Y-121911259D01*
X146361000Y-122088741D01*
X146326376Y-122262812D01*
X146258456Y-122426784D01*
X146159853Y-122574354D01*
X146034354Y-122699853D01*
X145886784Y-122798456D01*
X145722812Y-122866376D01*
X145573512Y-122896073D01*
X145548742Y-122901000D01*
X145371258Y-122901000D01*
X145346488Y-122896073D01*
X145197188Y-122866376D01*
X145033216Y-122798456D01*
X144885646Y-122699853D01*
X144760147Y-122574354D01*
X144661544Y-122426784D01*
X144593624Y-122262812D01*
X144559000Y-122088741D01*
X144559000Y-121911259D01*
X144593624Y-121737188D01*
X144661544Y-121573216D01*
X144760147Y-121425646D01*
X144885646Y-121300147D01*
X145033216Y-121201544D01*
X145197188Y-121133624D01*
X145346488Y-121103927D01*
X145371258Y-121099000D01*
X145548742Y-121099000D01*
X145573512Y-121103927D01*
G37*
G36*
X213653512Y-118563927D02*
G01*
X213802812Y-118593624D01*
X213966784Y-118661544D01*
X214114354Y-118760147D01*
X214239853Y-118885646D01*
X214338456Y-119033216D01*
X214406376Y-119197188D01*
X214441000Y-119371259D01*
X214441000Y-119548741D01*
X214406376Y-119722812D01*
X214338456Y-119886784D01*
X214239853Y-120034354D01*
X214114354Y-120159853D01*
X213966784Y-120258456D01*
X213802812Y-120326376D01*
X213653512Y-120356073D01*
X213628742Y-120361000D01*
X213451258Y-120361000D01*
X213426488Y-120356073D01*
X213277188Y-120326376D01*
X213113216Y-120258456D01*
X212965646Y-120159853D01*
X212840147Y-120034354D01*
X212741544Y-119886784D01*
X212673624Y-119722812D01*
X212639000Y-119548741D01*
X212639000Y-119371259D01*
X212673624Y-119197188D01*
X212741544Y-119033216D01*
X212840147Y-118885646D01*
X212965646Y-118760147D01*
X213113216Y-118661544D01*
X213277188Y-118593624D01*
X213426488Y-118563927D01*
X213451258Y-118559000D01*
X213628742Y-118559000D01*
X213653512Y-118563927D01*
G37*
G36*
X211113512Y-118563927D02*
G01*
X211262812Y-118593624D01*
X211426784Y-118661544D01*
X211574354Y-118760147D01*
X211699853Y-118885646D01*
X211798456Y-119033216D01*
X211866376Y-119197188D01*
X211901000Y-119371259D01*
X211901000Y-119548741D01*
X211866376Y-119722812D01*
X211798456Y-119886784D01*
X211699853Y-120034354D01*
X211574354Y-120159853D01*
X211426784Y-120258456D01*
X211262812Y-120326376D01*
X211113512Y-120356073D01*
X211088742Y-120361000D01*
X210911258Y-120361000D01*
X210886488Y-120356073D01*
X210737188Y-120326376D01*
X210573216Y-120258456D01*
X210425646Y-120159853D01*
X210300147Y-120034354D01*
X210201544Y-119886784D01*
X210133624Y-119722812D01*
X210099000Y-119548741D01*
X210099000Y-119371259D01*
X210133624Y-119197188D01*
X210201544Y-119033216D01*
X210300147Y-118885646D01*
X210425646Y-118760147D01*
X210573216Y-118661544D01*
X210737188Y-118593624D01*
X210886488Y-118563927D01*
X210911258Y-118559000D01*
X211088742Y-118559000D01*
X211113512Y-118563927D01*
G37*
G36*
X148113512Y-118563927D02*
G01*
X148262812Y-118593624D01*
X148426784Y-118661544D01*
X148574354Y-118760147D01*
X148699853Y-118885646D01*
X148798456Y-119033216D01*
X148866376Y-119197188D01*
X148901000Y-119371259D01*
X148901000Y-119548741D01*
X148866376Y-119722812D01*
X148798456Y-119886784D01*
X148699853Y-120034354D01*
X148574354Y-120159853D01*
X148426784Y-120258456D01*
X148262812Y-120326376D01*
X148113512Y-120356073D01*
X148088742Y-120361000D01*
X147911258Y-120361000D01*
X147886488Y-120356073D01*
X147737188Y-120326376D01*
X147573216Y-120258456D01*
X147425646Y-120159853D01*
X147300147Y-120034354D01*
X147201544Y-119886784D01*
X147133624Y-119722812D01*
X147099000Y-119548741D01*
X147099000Y-119371259D01*
X147133624Y-119197188D01*
X147201544Y-119033216D01*
X147300147Y-118885646D01*
X147425646Y-118760147D01*
X147573216Y-118661544D01*
X147737188Y-118593624D01*
X147886488Y-118563927D01*
X147911258Y-118559000D01*
X148088742Y-118559000D01*
X148113512Y-118563927D01*
G37*
G36*
X145573512Y-118563927D02*
G01*
X145722812Y-118593624D01*
X145886784Y-118661544D01*
X146034354Y-118760147D01*
X146159853Y-118885646D01*
X146258456Y-119033216D01*
X146326376Y-119197188D01*
X146361000Y-119371259D01*
X146361000Y-119548741D01*
X146326376Y-119722812D01*
X146258456Y-119886784D01*
X146159853Y-120034354D01*
X146034354Y-120159853D01*
X145886784Y-120258456D01*
X145722812Y-120326376D01*
X145573512Y-120356073D01*
X145548742Y-120361000D01*
X145371258Y-120361000D01*
X145346488Y-120356073D01*
X145197188Y-120326376D01*
X145033216Y-120258456D01*
X144885646Y-120159853D01*
X144760147Y-120034354D01*
X144661544Y-119886784D01*
X144593624Y-119722812D01*
X144559000Y-119548741D01*
X144559000Y-119371259D01*
X144593624Y-119197188D01*
X144661544Y-119033216D01*
X144760147Y-118885646D01*
X144885646Y-118760147D01*
X145033216Y-118661544D01*
X145197188Y-118593624D01*
X145346488Y-118563927D01*
X145371258Y-118559000D01*
X145548742Y-118559000D01*
X145573512Y-118563927D01*
G37*
G36*
X213653512Y-116023927D02*
G01*
X213802812Y-116053624D01*
X213966784Y-116121544D01*
X214114354Y-116220147D01*
X214239853Y-116345646D01*
X214338456Y-116493216D01*
X214406376Y-116657188D01*
X214441000Y-116831259D01*
X214441000Y-117008741D01*
X214406376Y-117182812D01*
X214338456Y-117346784D01*
X214239853Y-117494354D01*
X214114354Y-117619853D01*
X213966784Y-117718456D01*
X213802812Y-117786376D01*
X213653512Y-117816073D01*
X213628742Y-117821000D01*
X213451258Y-117821000D01*
X213426488Y-117816073D01*
X213277188Y-117786376D01*
X213113216Y-117718456D01*
X212965646Y-117619853D01*
X212840147Y-117494354D01*
X212741544Y-117346784D01*
X212673624Y-117182812D01*
X212639000Y-117008741D01*
X212639000Y-116831259D01*
X212673624Y-116657188D01*
X212741544Y-116493216D01*
X212840147Y-116345646D01*
X212965646Y-116220147D01*
X213113216Y-116121544D01*
X213277188Y-116053624D01*
X213426488Y-116023927D01*
X213451258Y-116019000D01*
X213628742Y-116019000D01*
X213653512Y-116023927D01*
G37*
G36*
X211901000Y-117821000D02*
G01*
X210099000Y-117821000D01*
X210099000Y-116019000D01*
X211901000Y-116019000D01*
X211901000Y-117821000D01*
G37*
G36*
X146361000Y-117821000D02*
G01*
X144559000Y-117821000D01*
X144559000Y-116019000D01*
X146361000Y-116019000D01*
X146361000Y-117821000D01*
G37*
G36*
X148113512Y-116023927D02*
G01*
X148262812Y-116053624D01*
X148426784Y-116121544D01*
X148574354Y-116220147D01*
X148699853Y-116345646D01*
X148798456Y-116493216D01*
X148866376Y-116657188D01*
X148901000Y-116831259D01*
X148901000Y-117008741D01*
X148866376Y-117182812D01*
X148798456Y-117346784D01*
X148699853Y-117494354D01*
X148574354Y-117619853D01*
X148426784Y-117718456D01*
X148262812Y-117786376D01*
X148113512Y-117816073D01*
X148088742Y-117821000D01*
X147911258Y-117821000D01*
X147886488Y-117816073D01*
X147737188Y-117786376D01*
X147573216Y-117718456D01*
X147425646Y-117619853D01*
X147300147Y-117494354D01*
X147201544Y-117346784D01*
X147133624Y-117182812D01*
X147099000Y-117008741D01*
X147099000Y-116831259D01*
X147133624Y-116657188D01*
X147201544Y-116493216D01*
X147300147Y-116345646D01*
X147425646Y-116220147D01*
X147573216Y-116121544D01*
X147737188Y-116053624D01*
X147886488Y-116023927D01*
X147911258Y-116019000D01*
X148088742Y-116019000D01*
X148113512Y-116023927D01*
G37*
G36*
X200964228Y-114437703D02*
G01*
X201119100Y-114501853D01*
X201258481Y-114594985D01*
X201377015Y-114713519D01*
X201470147Y-114852900D01*
X201534297Y-115007772D01*
X201567000Y-115172184D01*
X201567000Y-115339816D01*
X201534297Y-115504228D01*
X201470147Y-115659100D01*
X201377015Y-115798481D01*
X201258481Y-115917015D01*
X201119100Y-116010147D01*
X200964228Y-116074297D01*
X200799816Y-116107000D01*
X200632184Y-116107000D01*
X200467772Y-116074297D01*
X200312900Y-116010147D01*
X200173519Y-115917015D01*
X200054985Y-115798481D01*
X199961853Y-115659100D01*
X199897703Y-115504228D01*
X199865000Y-115339816D01*
X199865000Y-115172184D01*
X199897703Y-115007772D01*
X199961853Y-114852900D01*
X200054985Y-114713519D01*
X200173519Y-114594985D01*
X200312900Y-114501853D01*
X200467772Y-114437703D01*
X200632184Y-114405000D01*
X200799816Y-114405000D01*
X200964228Y-114437703D01*
G37*
G36*
X152704228Y-114437703D02*
G01*
X152859100Y-114501853D01*
X152998481Y-114594985D01*
X153117015Y-114713519D01*
X153210147Y-114852900D01*
X153274297Y-115007772D01*
X153307000Y-115172184D01*
X153307000Y-115339816D01*
X153274297Y-115504228D01*
X153210147Y-115659100D01*
X153117015Y-115798481D01*
X152998481Y-115917015D01*
X152859100Y-116010147D01*
X152704228Y-116074297D01*
X152539816Y-116107000D01*
X152372184Y-116107000D01*
X152207772Y-116074297D01*
X152052900Y-116010147D01*
X151913519Y-115917015D01*
X151794985Y-115798481D01*
X151701853Y-115659100D01*
X151637703Y-115504228D01*
X151605000Y-115339816D01*
X151605000Y-115172184D01*
X151637703Y-115007772D01*
X151701853Y-114852900D01*
X151794985Y-114713519D01*
X151913519Y-114594985D01*
X152052900Y-114501853D01*
X152207772Y-114437703D01*
X152372184Y-114405000D01*
X152539816Y-114405000D01*
X152704228Y-114437703D01*
G37*
G36*
X155244228Y-114437703D02*
G01*
X155399100Y-114501853D01*
X155538481Y-114594985D01*
X155657015Y-114713519D01*
X155750147Y-114852900D01*
X155814297Y-115007772D01*
X155847000Y-115172184D01*
X155847000Y-115339816D01*
X155814297Y-115504228D01*
X155750147Y-115659100D01*
X155657015Y-115798481D01*
X155538481Y-115917015D01*
X155399100Y-116010147D01*
X155244228Y-116074297D01*
X155079816Y-116107000D01*
X154912184Y-116107000D01*
X154747772Y-116074297D01*
X154592900Y-116010147D01*
X154453519Y-115917015D01*
X154334985Y-115798481D01*
X154241853Y-115659100D01*
X154177703Y-115504228D01*
X154145000Y-115339816D01*
X154145000Y-115172184D01*
X154177703Y-115007772D01*
X154241853Y-114852900D01*
X154334985Y-114713519D01*
X154453519Y-114594985D01*
X154592900Y-114501853D01*
X154747772Y-114437703D01*
X154912184Y-114405000D01*
X155079816Y-114405000D01*
X155244228Y-114437703D01*
G37*
G36*
X198424228Y-114437703D02*
G01*
X198579100Y-114501853D01*
X198718481Y-114594985D01*
X198837015Y-114713519D01*
X198930147Y-114852900D01*
X198994297Y-115007772D01*
X199027000Y-115172184D01*
X199027000Y-115339816D01*
X198994297Y-115504228D01*
X198930147Y-115659100D01*
X198837015Y-115798481D01*
X198718481Y-115917015D01*
X198579100Y-116010147D01*
X198424228Y-116074297D01*
X198259816Y-116107000D01*
X198092184Y-116107000D01*
X197927772Y-116074297D01*
X197772900Y-116010147D01*
X197633519Y-115917015D01*
X197514985Y-115798481D01*
X197421853Y-115659100D01*
X197357703Y-115504228D01*
X197325000Y-115339816D01*
X197325000Y-115172184D01*
X197357703Y-115007772D01*
X197421853Y-114852900D01*
X197514985Y-114713519D01*
X197633519Y-114594985D01*
X197772900Y-114501853D01*
X197927772Y-114437703D01*
X198092184Y-114405000D01*
X198259816Y-114405000D01*
X198424228Y-114437703D01*
G37*
G36*
X206597142Y-113808242D02*
G01*
X206745101Y-113869529D01*
X206878255Y-113958499D01*
X206991501Y-114071745D01*
X207080471Y-114204899D01*
X207141758Y-114352858D01*
X207173000Y-114509925D01*
X207173000Y-114670075D01*
X207141758Y-114827142D01*
X207080471Y-114975101D01*
X206991501Y-115108255D01*
X206878255Y-115221501D01*
X206745101Y-115310471D01*
X206597142Y-115371758D01*
X206440075Y-115403000D01*
X206279925Y-115403000D01*
X206122858Y-115371758D01*
X205974899Y-115310471D01*
X205841745Y-115221501D01*
X205728499Y-115108255D01*
X205639529Y-114975101D01*
X205578242Y-114827142D01*
X205547000Y-114670075D01*
X205547000Y-114509925D01*
X205578242Y-114352858D01*
X205639529Y-114204899D01*
X205728499Y-114071745D01*
X205841745Y-113958499D01*
X205974899Y-113869529D01*
X206122858Y-113808242D01*
X206279925Y-113777000D01*
X206440075Y-113777000D01*
X206597142Y-113808242D01*
G37*
G36*
X198424228Y-111897703D02*
G01*
X198579100Y-111961853D01*
X198718481Y-112054985D01*
X198837015Y-112173519D01*
X198930147Y-112312900D01*
X198994297Y-112467772D01*
X199027000Y-112632184D01*
X199027000Y-112799816D01*
X198994297Y-112964228D01*
X198930147Y-113119100D01*
X198837015Y-113258481D01*
X198718481Y-113377015D01*
X198579100Y-113470147D01*
X198424228Y-113534297D01*
X198259816Y-113567000D01*
X198092184Y-113567000D01*
X197927772Y-113534297D01*
X197772900Y-113470147D01*
X197633519Y-113377015D01*
X197514985Y-113258481D01*
X197421853Y-113119100D01*
X197357703Y-112964228D01*
X197325000Y-112799816D01*
X197325000Y-112632184D01*
X197357703Y-112467772D01*
X197421853Y-112312900D01*
X197514985Y-112173519D01*
X197633519Y-112054985D01*
X197772900Y-111961853D01*
X197927772Y-111897703D01*
X198092184Y-111865000D01*
X198259816Y-111865000D01*
X198424228Y-111897703D01*
G37*
G36*
X155244228Y-111897703D02*
G01*
X155399100Y-111961853D01*
X155538481Y-112054985D01*
X155657015Y-112173519D01*
X155750147Y-112312900D01*
X155814297Y-112467772D01*
X155847000Y-112632184D01*
X155847000Y-112799816D01*
X155814297Y-112964228D01*
X155750147Y-113119100D01*
X155657015Y-113258481D01*
X155538481Y-113377015D01*
X155399100Y-113470147D01*
X155244228Y-113534297D01*
X155079816Y-113567000D01*
X154912184Y-113567000D01*
X154747772Y-113534297D01*
X154592900Y-113470147D01*
X154453519Y-113377015D01*
X154334985Y-113258481D01*
X154241853Y-113119100D01*
X154177703Y-112964228D01*
X154145000Y-112799816D01*
X154145000Y-112632184D01*
X154177703Y-112467772D01*
X154241853Y-112312900D01*
X154334985Y-112173519D01*
X154453519Y-112054985D01*
X154592900Y-111961853D01*
X154747772Y-111897703D01*
X154912184Y-111865000D01*
X155079816Y-111865000D01*
X155244228Y-111897703D01*
G37*
G36*
X152704228Y-111897703D02*
G01*
X152859100Y-111961853D01*
X152998481Y-112054985D01*
X153117015Y-112173519D01*
X153210147Y-112312900D01*
X153274297Y-112467772D01*
X153307000Y-112632184D01*
X153307000Y-112799816D01*
X153274297Y-112964228D01*
X153210147Y-113119100D01*
X153117015Y-113258481D01*
X152998481Y-113377015D01*
X152859100Y-113470147D01*
X152704228Y-113534297D01*
X152539816Y-113567000D01*
X152372184Y-113567000D01*
X152207772Y-113534297D01*
X152052900Y-113470147D01*
X151913519Y-113377015D01*
X151794985Y-113258481D01*
X151701853Y-113119100D01*
X151637703Y-112964228D01*
X151605000Y-112799816D01*
X151605000Y-112632184D01*
X151637703Y-112467772D01*
X151701853Y-112312900D01*
X151794985Y-112173519D01*
X151913519Y-112054985D01*
X152052900Y-111961853D01*
X152207772Y-111897703D01*
X152372184Y-111865000D01*
X152539816Y-111865000D01*
X152704228Y-111897703D01*
G37*
G36*
X200964228Y-111897703D02*
G01*
X201119100Y-111961853D01*
X201258481Y-112054985D01*
X201377015Y-112173519D01*
X201470147Y-112312900D01*
X201534297Y-112467772D01*
X201567000Y-112632184D01*
X201567000Y-112799816D01*
X201534297Y-112964228D01*
X201470147Y-113119100D01*
X201377015Y-113258481D01*
X201258481Y-113377015D01*
X201119100Y-113470147D01*
X200964228Y-113534297D01*
X200799816Y-113567000D01*
X200632184Y-113567000D01*
X200467772Y-113534297D01*
X200312900Y-113470147D01*
X200173519Y-113377015D01*
X200054985Y-113258481D01*
X199961853Y-113119100D01*
X199897703Y-112964228D01*
X199865000Y-112799816D01*
X199865000Y-112632184D01*
X199897703Y-112467772D01*
X199961853Y-112312900D01*
X200054985Y-112173519D01*
X200173519Y-112054985D01*
X200312900Y-111961853D01*
X200467772Y-111897703D01*
X200632184Y-111865000D01*
X200799816Y-111865000D01*
X200964228Y-111897703D01*
G37*
G36*
X206597142Y-111268242D02*
G01*
X206745101Y-111329529D01*
X206878255Y-111418499D01*
X206991501Y-111531745D01*
X207080471Y-111664899D01*
X207141758Y-111812858D01*
X207173000Y-111969925D01*
X207173000Y-112130075D01*
X207141758Y-112287142D01*
X207080471Y-112435101D01*
X206991501Y-112568255D01*
X206878255Y-112681501D01*
X206745101Y-112770471D01*
X206597142Y-112831758D01*
X206440075Y-112863000D01*
X206279925Y-112863000D01*
X206122858Y-112831758D01*
X205974899Y-112770471D01*
X205841745Y-112681501D01*
X205728499Y-112568255D01*
X205639529Y-112435101D01*
X205578242Y-112287142D01*
X205547000Y-112130075D01*
X205547000Y-111969925D01*
X205578242Y-111812858D01*
X205639529Y-111664899D01*
X205728499Y-111531745D01*
X205841745Y-111418499D01*
X205974899Y-111329529D01*
X206122858Y-111268242D01*
X206279925Y-111237000D01*
X206440075Y-111237000D01*
X206597142Y-111268242D01*
G37*
G36*
X148113512Y-110863927D02*
G01*
X148262812Y-110893624D01*
X148426784Y-110961544D01*
X148574354Y-111060147D01*
X148699853Y-111185646D01*
X148798456Y-111333216D01*
X148866376Y-111497188D01*
X148901000Y-111671259D01*
X148901000Y-111848741D01*
X148866376Y-112022812D01*
X148798456Y-112186784D01*
X148699853Y-112334354D01*
X148574354Y-112459853D01*
X148426784Y-112558456D01*
X148262812Y-112626376D01*
X148113512Y-112656073D01*
X148088742Y-112661000D01*
X147911258Y-112661000D01*
X147886488Y-112656073D01*
X147737188Y-112626376D01*
X147573216Y-112558456D01*
X147425646Y-112459853D01*
X147300147Y-112334354D01*
X147201544Y-112186784D01*
X147133624Y-112022812D01*
X147099000Y-111848741D01*
X147099000Y-111671259D01*
X147133624Y-111497188D01*
X147201544Y-111333216D01*
X147300147Y-111185646D01*
X147425646Y-111060147D01*
X147573216Y-110961544D01*
X147737188Y-110893624D01*
X147886488Y-110863927D01*
X147911258Y-110859000D01*
X148088742Y-110859000D01*
X148113512Y-110863927D01*
G37*
G36*
X145573512Y-110863927D02*
G01*
X145722812Y-110893624D01*
X145886784Y-110961544D01*
X146034354Y-111060147D01*
X146159853Y-111185646D01*
X146258456Y-111333216D01*
X146326376Y-111497188D01*
X146361000Y-111671259D01*
X146361000Y-111848741D01*
X146326376Y-112022812D01*
X146258456Y-112186784D01*
X146159853Y-112334354D01*
X146034354Y-112459853D01*
X145886784Y-112558456D01*
X145722812Y-112626376D01*
X145573512Y-112656073D01*
X145548742Y-112661000D01*
X145371258Y-112661000D01*
X145346488Y-112656073D01*
X145197188Y-112626376D01*
X145033216Y-112558456D01*
X144885646Y-112459853D01*
X144760147Y-112334354D01*
X144661544Y-112186784D01*
X144593624Y-112022812D01*
X144559000Y-111848741D01*
X144559000Y-111671259D01*
X144593624Y-111497188D01*
X144661544Y-111333216D01*
X144760147Y-111185646D01*
X144885646Y-111060147D01*
X145033216Y-110961544D01*
X145197188Y-110893624D01*
X145346488Y-110863927D01*
X145371258Y-110859000D01*
X145548742Y-110859000D01*
X145573512Y-110863927D01*
G37*
G36*
X211113512Y-110703927D02*
G01*
X211262812Y-110733624D01*
X211426784Y-110801544D01*
X211574354Y-110900147D01*
X211699853Y-111025646D01*
X211798456Y-111173216D01*
X211866376Y-111337188D01*
X211901000Y-111511259D01*
X211901000Y-111688741D01*
X211866376Y-111862812D01*
X211798456Y-112026784D01*
X211699853Y-112174354D01*
X211574354Y-112299853D01*
X211426784Y-112398456D01*
X211262812Y-112466376D01*
X211113512Y-112496073D01*
X211088742Y-112501000D01*
X210911258Y-112501000D01*
X210886488Y-112496073D01*
X210737188Y-112466376D01*
X210573216Y-112398456D01*
X210425646Y-112299853D01*
X210300147Y-112174354D01*
X210201544Y-112026784D01*
X210133624Y-111862812D01*
X210099000Y-111688741D01*
X210099000Y-111511259D01*
X210133624Y-111337188D01*
X210201544Y-111173216D01*
X210300147Y-111025646D01*
X210425646Y-110900147D01*
X210573216Y-110801544D01*
X210737188Y-110733624D01*
X210886488Y-110703927D01*
X210911258Y-110699000D01*
X211088742Y-110699000D01*
X211113512Y-110703927D01*
G37*
G36*
X213653512Y-110703927D02*
G01*
X213802812Y-110733624D01*
X213966784Y-110801544D01*
X214114354Y-110900147D01*
X214239853Y-111025646D01*
X214338456Y-111173216D01*
X214406376Y-111337188D01*
X214441000Y-111511259D01*
X214441000Y-111688741D01*
X214406376Y-111862812D01*
X214338456Y-112026784D01*
X214239853Y-112174354D01*
X214114354Y-112299853D01*
X213966784Y-112398456D01*
X213802812Y-112466376D01*
X213653512Y-112496073D01*
X213628742Y-112501000D01*
X213451258Y-112501000D01*
X213426488Y-112496073D01*
X213277188Y-112466376D01*
X213113216Y-112398456D01*
X212965646Y-112299853D01*
X212840147Y-112174354D01*
X212741544Y-112026784D01*
X212673624Y-111862812D01*
X212639000Y-111688741D01*
X212639000Y-111511259D01*
X212673624Y-111337188D01*
X212741544Y-111173216D01*
X212840147Y-111025646D01*
X212965646Y-110900147D01*
X213113216Y-110801544D01*
X213277188Y-110733624D01*
X213426488Y-110703927D01*
X213451258Y-110699000D01*
X213628742Y-110699000D01*
X213653512Y-110703927D01*
G37*
G36*
X152704228Y-109357703D02*
G01*
X152859100Y-109421853D01*
X152998481Y-109514985D01*
X153117015Y-109633519D01*
X153210147Y-109772900D01*
X153274297Y-109927772D01*
X153307000Y-110092184D01*
X153307000Y-110259816D01*
X153274297Y-110424228D01*
X153210147Y-110579100D01*
X153117015Y-110718481D01*
X152998481Y-110837015D01*
X152859100Y-110930147D01*
X152704228Y-110994297D01*
X152539816Y-111027000D01*
X152372184Y-111027000D01*
X152207772Y-110994297D01*
X152052900Y-110930147D01*
X151913519Y-110837015D01*
X151794985Y-110718481D01*
X151701853Y-110579100D01*
X151637703Y-110424228D01*
X151605000Y-110259816D01*
X151605000Y-110092184D01*
X151637703Y-109927772D01*
X151701853Y-109772900D01*
X151794985Y-109633519D01*
X151913519Y-109514985D01*
X152052900Y-109421853D01*
X152207772Y-109357703D01*
X152372184Y-109325000D01*
X152539816Y-109325000D01*
X152704228Y-109357703D01*
G37*
G36*
X155244228Y-109357703D02*
G01*
X155399100Y-109421853D01*
X155538481Y-109514985D01*
X155657015Y-109633519D01*
X155750147Y-109772900D01*
X155814297Y-109927772D01*
X155847000Y-110092184D01*
X155847000Y-110259816D01*
X155814297Y-110424228D01*
X155750147Y-110579100D01*
X155657015Y-110718481D01*
X155538481Y-110837015D01*
X155399100Y-110930147D01*
X155244228Y-110994297D01*
X155079816Y-111027000D01*
X154912184Y-111027000D01*
X154747772Y-110994297D01*
X154592900Y-110930147D01*
X154453519Y-110837015D01*
X154334985Y-110718481D01*
X154241853Y-110579100D01*
X154177703Y-110424228D01*
X154145000Y-110259816D01*
X154145000Y-110092184D01*
X154177703Y-109927772D01*
X154241853Y-109772900D01*
X154334985Y-109633519D01*
X154453519Y-109514985D01*
X154592900Y-109421853D01*
X154747772Y-109357703D01*
X154912184Y-109325000D01*
X155079816Y-109325000D01*
X155244228Y-109357703D01*
G37*
G36*
X198424228Y-109357703D02*
G01*
X198579100Y-109421853D01*
X198718481Y-109514985D01*
X198837015Y-109633519D01*
X198930147Y-109772900D01*
X198994297Y-109927772D01*
X199027000Y-110092184D01*
X199027000Y-110259816D01*
X198994297Y-110424228D01*
X198930147Y-110579100D01*
X198837015Y-110718481D01*
X198718481Y-110837015D01*
X198579100Y-110930147D01*
X198424228Y-110994297D01*
X198259816Y-111027000D01*
X198092184Y-111027000D01*
X197927772Y-110994297D01*
X197772900Y-110930147D01*
X197633519Y-110837015D01*
X197514985Y-110718481D01*
X197421853Y-110579100D01*
X197357703Y-110424228D01*
X197325000Y-110259816D01*
X197325000Y-110092184D01*
X197357703Y-109927772D01*
X197421853Y-109772900D01*
X197514985Y-109633519D01*
X197633519Y-109514985D01*
X197772900Y-109421853D01*
X197927772Y-109357703D01*
X198092184Y-109325000D01*
X198259816Y-109325000D01*
X198424228Y-109357703D01*
G37*
G36*
X200964228Y-109357703D02*
G01*
X201119100Y-109421853D01*
X201258481Y-109514985D01*
X201377015Y-109633519D01*
X201470147Y-109772900D01*
X201534297Y-109927772D01*
X201567000Y-110092184D01*
X201567000Y-110259816D01*
X201534297Y-110424228D01*
X201470147Y-110579100D01*
X201377015Y-110718481D01*
X201258481Y-110837015D01*
X201119100Y-110930147D01*
X200964228Y-110994297D01*
X200799816Y-111027000D01*
X200632184Y-111027000D01*
X200467772Y-110994297D01*
X200312900Y-110930147D01*
X200173519Y-110837015D01*
X200054985Y-110718481D01*
X199961853Y-110579100D01*
X199897703Y-110424228D01*
X199865000Y-110259816D01*
X199865000Y-110092184D01*
X199897703Y-109927772D01*
X199961853Y-109772900D01*
X200054985Y-109633519D01*
X200173519Y-109514985D01*
X200312900Y-109421853D01*
X200467772Y-109357703D01*
X200632184Y-109325000D01*
X200799816Y-109325000D01*
X200964228Y-109357703D01*
G37*
G36*
X206597142Y-108728242D02*
G01*
X206745101Y-108789529D01*
X206878255Y-108878499D01*
X206991501Y-108991745D01*
X207080471Y-109124899D01*
X207141758Y-109272858D01*
X207173000Y-109429925D01*
X207173000Y-109590075D01*
X207141758Y-109747142D01*
X207080471Y-109895101D01*
X206991501Y-110028255D01*
X206878255Y-110141501D01*
X206745101Y-110230471D01*
X206597142Y-110291758D01*
X206440075Y-110323000D01*
X206279925Y-110323000D01*
X206122858Y-110291758D01*
X205974899Y-110230471D01*
X205841745Y-110141501D01*
X205728499Y-110028255D01*
X205639529Y-109895101D01*
X205578242Y-109747142D01*
X205547000Y-109590075D01*
X205547000Y-109429925D01*
X205578242Y-109272858D01*
X205639529Y-109124899D01*
X205728499Y-108991745D01*
X205841745Y-108878499D01*
X205974899Y-108789529D01*
X206122858Y-108728242D01*
X206279925Y-108697000D01*
X206440075Y-108697000D01*
X206597142Y-108728242D01*
G37*
G36*
X145573512Y-108323927D02*
G01*
X145722812Y-108353624D01*
X145886784Y-108421544D01*
X146034354Y-108520147D01*
X146159853Y-108645646D01*
X146258456Y-108793216D01*
X146326376Y-108957188D01*
X146361000Y-109131259D01*
X146361000Y-109308741D01*
X146326376Y-109482812D01*
X146258456Y-109646784D01*
X146159853Y-109794354D01*
X146034354Y-109919853D01*
X145886784Y-110018456D01*
X145722812Y-110086376D01*
X145573512Y-110116073D01*
X145548742Y-110121000D01*
X145371258Y-110121000D01*
X145346488Y-110116073D01*
X145197188Y-110086376D01*
X145033216Y-110018456D01*
X144885646Y-109919853D01*
X144760147Y-109794354D01*
X144661544Y-109646784D01*
X144593624Y-109482812D01*
X144559000Y-109308741D01*
X144559000Y-109131259D01*
X144593624Y-108957188D01*
X144661544Y-108793216D01*
X144760147Y-108645646D01*
X144885646Y-108520147D01*
X145033216Y-108421544D01*
X145197188Y-108353624D01*
X145346488Y-108323927D01*
X145371258Y-108319000D01*
X145548742Y-108319000D01*
X145573512Y-108323927D01*
G37*
G36*
X148113512Y-108323927D02*
G01*
X148262812Y-108353624D01*
X148426784Y-108421544D01*
X148574354Y-108520147D01*
X148699853Y-108645646D01*
X148798456Y-108793216D01*
X148866376Y-108957188D01*
X148901000Y-109131259D01*
X148901000Y-109308741D01*
X148866376Y-109482812D01*
X148798456Y-109646784D01*
X148699853Y-109794354D01*
X148574354Y-109919853D01*
X148426784Y-110018456D01*
X148262812Y-110086376D01*
X148113512Y-110116073D01*
X148088742Y-110121000D01*
X147911258Y-110121000D01*
X147886488Y-110116073D01*
X147737188Y-110086376D01*
X147573216Y-110018456D01*
X147425646Y-109919853D01*
X147300147Y-109794354D01*
X147201544Y-109646784D01*
X147133624Y-109482812D01*
X147099000Y-109308741D01*
X147099000Y-109131259D01*
X147133624Y-108957188D01*
X147201544Y-108793216D01*
X147300147Y-108645646D01*
X147425646Y-108520147D01*
X147573216Y-108421544D01*
X147737188Y-108353624D01*
X147886488Y-108323927D01*
X147911258Y-108319000D01*
X148088742Y-108319000D01*
X148113512Y-108323927D01*
G37*
G36*
X213653512Y-108163927D02*
G01*
X213802812Y-108193624D01*
X213966784Y-108261544D01*
X214114354Y-108360147D01*
X214239853Y-108485646D01*
X214338456Y-108633216D01*
X214406376Y-108797188D01*
X214441000Y-108971259D01*
X214441000Y-109148741D01*
X214406376Y-109322812D01*
X214338456Y-109486784D01*
X214239853Y-109634354D01*
X214114354Y-109759853D01*
X213966784Y-109858456D01*
X213802812Y-109926376D01*
X213653512Y-109956073D01*
X213628742Y-109961000D01*
X213451258Y-109961000D01*
X213426488Y-109956073D01*
X213277188Y-109926376D01*
X213113216Y-109858456D01*
X212965646Y-109759853D01*
X212840147Y-109634354D01*
X212741544Y-109486784D01*
X212673624Y-109322812D01*
X212639000Y-109148741D01*
X212639000Y-108971259D01*
X212673624Y-108797188D01*
X212741544Y-108633216D01*
X212840147Y-108485646D01*
X212965646Y-108360147D01*
X213113216Y-108261544D01*
X213277188Y-108193624D01*
X213426488Y-108163927D01*
X213451258Y-108159000D01*
X213628742Y-108159000D01*
X213653512Y-108163927D01*
G37*
G36*
X211113512Y-108163927D02*
G01*
X211262812Y-108193624D01*
X211426784Y-108261544D01*
X211574354Y-108360147D01*
X211699853Y-108485646D01*
X211798456Y-108633216D01*
X211866376Y-108797188D01*
X211901000Y-108971259D01*
X211901000Y-109148741D01*
X211866376Y-109322812D01*
X211798456Y-109486784D01*
X211699853Y-109634354D01*
X211574354Y-109759853D01*
X211426784Y-109858456D01*
X211262812Y-109926376D01*
X211113512Y-109956073D01*
X211088742Y-109961000D01*
X210911258Y-109961000D01*
X210886488Y-109956073D01*
X210737188Y-109926376D01*
X210573216Y-109858456D01*
X210425646Y-109759853D01*
X210300147Y-109634354D01*
X210201544Y-109486784D01*
X210133624Y-109322812D01*
X210099000Y-109148741D01*
X210099000Y-108971259D01*
X210133624Y-108797188D01*
X210201544Y-108633216D01*
X210300147Y-108485646D01*
X210425646Y-108360147D01*
X210573216Y-108261544D01*
X210737188Y-108193624D01*
X210886488Y-108163927D01*
X210911258Y-108159000D01*
X211088742Y-108159000D01*
X211113512Y-108163927D01*
G37*
G36*
X152704228Y-106817703D02*
G01*
X152859100Y-106881853D01*
X152998481Y-106974985D01*
X153117015Y-107093519D01*
X153210147Y-107232900D01*
X153274297Y-107387772D01*
X153307000Y-107552184D01*
X153307000Y-107719816D01*
X153274297Y-107884228D01*
X153210147Y-108039100D01*
X153117015Y-108178481D01*
X152998481Y-108297015D01*
X152859100Y-108390147D01*
X152704228Y-108454297D01*
X152539816Y-108487000D01*
X152372184Y-108487000D01*
X152207772Y-108454297D01*
X152052900Y-108390147D01*
X151913519Y-108297015D01*
X151794985Y-108178481D01*
X151701853Y-108039100D01*
X151637703Y-107884228D01*
X151605000Y-107719816D01*
X151605000Y-107552184D01*
X151637703Y-107387772D01*
X151701853Y-107232900D01*
X151794985Y-107093519D01*
X151913519Y-106974985D01*
X152052900Y-106881853D01*
X152207772Y-106817703D01*
X152372184Y-106785000D01*
X152539816Y-106785000D01*
X152704228Y-106817703D01*
G37*
G36*
X155244228Y-106817703D02*
G01*
X155399100Y-106881853D01*
X155538481Y-106974985D01*
X155657015Y-107093519D01*
X155750147Y-107232900D01*
X155814297Y-107387772D01*
X155847000Y-107552184D01*
X155847000Y-107719816D01*
X155814297Y-107884228D01*
X155750147Y-108039100D01*
X155657015Y-108178481D01*
X155538481Y-108297015D01*
X155399100Y-108390147D01*
X155244228Y-108454297D01*
X155079816Y-108487000D01*
X154912184Y-108487000D01*
X154747772Y-108454297D01*
X154592900Y-108390147D01*
X154453519Y-108297015D01*
X154334985Y-108178481D01*
X154241853Y-108039100D01*
X154177703Y-107884228D01*
X154145000Y-107719816D01*
X154145000Y-107552184D01*
X154177703Y-107387772D01*
X154241853Y-107232900D01*
X154334985Y-107093519D01*
X154453519Y-106974985D01*
X154592900Y-106881853D01*
X154747772Y-106817703D01*
X154912184Y-106785000D01*
X155079816Y-106785000D01*
X155244228Y-106817703D01*
G37*
G36*
X200964228Y-106817703D02*
G01*
X201119100Y-106881853D01*
X201258481Y-106974985D01*
X201377015Y-107093519D01*
X201470147Y-107232900D01*
X201534297Y-107387772D01*
X201567000Y-107552184D01*
X201567000Y-107719816D01*
X201534297Y-107884228D01*
X201470147Y-108039100D01*
X201377015Y-108178481D01*
X201258481Y-108297015D01*
X201119100Y-108390147D01*
X200964228Y-108454297D01*
X200799816Y-108487000D01*
X200632184Y-108487000D01*
X200467772Y-108454297D01*
X200312900Y-108390147D01*
X200173519Y-108297015D01*
X200054985Y-108178481D01*
X199961853Y-108039100D01*
X199897703Y-107884228D01*
X199865000Y-107719816D01*
X199865000Y-107552184D01*
X199897703Y-107387772D01*
X199961853Y-107232900D01*
X200054985Y-107093519D01*
X200173519Y-106974985D01*
X200312900Y-106881853D01*
X200467772Y-106817703D01*
X200632184Y-106785000D01*
X200799816Y-106785000D01*
X200964228Y-106817703D01*
G37*
G36*
X198424228Y-106817703D02*
G01*
X198579100Y-106881853D01*
X198718481Y-106974985D01*
X198837015Y-107093519D01*
X198930147Y-107232900D01*
X198994297Y-107387772D01*
X199027000Y-107552184D01*
X199027000Y-107719816D01*
X198994297Y-107884228D01*
X198930147Y-108039100D01*
X198837015Y-108178481D01*
X198718481Y-108297015D01*
X198579100Y-108390147D01*
X198424228Y-108454297D01*
X198259816Y-108487000D01*
X198092184Y-108487000D01*
X197927772Y-108454297D01*
X197772900Y-108390147D01*
X197633519Y-108297015D01*
X197514985Y-108178481D01*
X197421853Y-108039100D01*
X197357703Y-107884228D01*
X197325000Y-107719816D01*
X197325000Y-107552184D01*
X197357703Y-107387772D01*
X197421853Y-107232900D01*
X197514985Y-107093519D01*
X197633519Y-106974985D01*
X197772900Y-106881853D01*
X197927772Y-106817703D01*
X198092184Y-106785000D01*
X198259816Y-106785000D01*
X198424228Y-106817703D01*
G37*
G36*
X206597142Y-106188242D02*
G01*
X206745101Y-106249529D01*
X206878255Y-106338499D01*
X206991501Y-106451745D01*
X207080471Y-106584899D01*
X207141758Y-106732858D01*
X207173000Y-106889925D01*
X207173000Y-107050075D01*
X207141758Y-107207142D01*
X207080471Y-107355101D01*
X206991501Y-107488255D01*
X206878255Y-107601501D01*
X206745101Y-107690471D01*
X206597142Y-107751758D01*
X206440075Y-107783000D01*
X206279925Y-107783000D01*
X206122858Y-107751758D01*
X205974899Y-107690471D01*
X205841745Y-107601501D01*
X205728499Y-107488255D01*
X205639529Y-107355101D01*
X205578242Y-107207142D01*
X205547000Y-107050075D01*
X205547000Y-106889925D01*
X205578242Y-106732858D01*
X205639529Y-106584899D01*
X205728499Y-106451745D01*
X205841745Y-106338499D01*
X205974899Y-106249529D01*
X206122858Y-106188242D01*
X206279925Y-106157000D01*
X206440075Y-106157000D01*
X206597142Y-106188242D01*
G37*
G36*
X148113512Y-105783927D02*
G01*
X148262812Y-105813624D01*
X148426784Y-105881544D01*
X148574354Y-105980147D01*
X148699853Y-106105646D01*
X148798456Y-106253216D01*
X148866376Y-106417188D01*
X148901000Y-106591259D01*
X148901000Y-106768741D01*
X148866376Y-106942812D01*
X148798456Y-107106784D01*
X148699853Y-107254354D01*
X148574354Y-107379853D01*
X148426784Y-107478456D01*
X148262812Y-107546376D01*
X148113512Y-107576073D01*
X148088742Y-107581000D01*
X147911258Y-107581000D01*
X147886488Y-107576073D01*
X147737188Y-107546376D01*
X147573216Y-107478456D01*
X147425646Y-107379853D01*
X147300147Y-107254354D01*
X147201544Y-107106784D01*
X147133624Y-106942812D01*
X147099000Y-106768741D01*
X147099000Y-106591259D01*
X147133624Y-106417188D01*
X147201544Y-106253216D01*
X147300147Y-106105646D01*
X147425646Y-105980147D01*
X147573216Y-105881544D01*
X147737188Y-105813624D01*
X147886488Y-105783927D01*
X147911258Y-105779000D01*
X148088742Y-105779000D01*
X148113512Y-105783927D01*
G37*
G36*
X145573512Y-105783927D02*
G01*
X145722812Y-105813624D01*
X145886784Y-105881544D01*
X146034354Y-105980147D01*
X146159853Y-106105646D01*
X146258456Y-106253216D01*
X146326376Y-106417188D01*
X146361000Y-106591259D01*
X146361000Y-106768741D01*
X146326376Y-106942812D01*
X146258456Y-107106784D01*
X146159853Y-107254354D01*
X146034354Y-107379853D01*
X145886784Y-107478456D01*
X145722812Y-107546376D01*
X145573512Y-107576073D01*
X145548742Y-107581000D01*
X145371258Y-107581000D01*
X145346488Y-107576073D01*
X145197188Y-107546376D01*
X145033216Y-107478456D01*
X144885646Y-107379853D01*
X144760147Y-107254354D01*
X144661544Y-107106784D01*
X144593624Y-106942812D01*
X144559000Y-106768741D01*
X144559000Y-106591259D01*
X144593624Y-106417188D01*
X144661544Y-106253216D01*
X144760147Y-106105646D01*
X144885646Y-105980147D01*
X145033216Y-105881544D01*
X145197188Y-105813624D01*
X145346488Y-105783927D01*
X145371258Y-105779000D01*
X145548742Y-105779000D01*
X145573512Y-105783927D01*
G37*
G36*
X213653512Y-105623927D02*
G01*
X213802812Y-105653624D01*
X213966784Y-105721544D01*
X214114354Y-105820147D01*
X214239853Y-105945646D01*
X214338456Y-106093216D01*
X214406376Y-106257188D01*
X214441000Y-106431259D01*
X214441000Y-106608741D01*
X214406376Y-106782812D01*
X214338456Y-106946784D01*
X214239853Y-107094354D01*
X214114354Y-107219853D01*
X213966784Y-107318456D01*
X213802812Y-107386376D01*
X213653512Y-107416073D01*
X213628742Y-107421000D01*
X213451258Y-107421000D01*
X213426488Y-107416073D01*
X213277188Y-107386376D01*
X213113216Y-107318456D01*
X212965646Y-107219853D01*
X212840147Y-107094354D01*
X212741544Y-106946784D01*
X212673624Y-106782812D01*
X212639000Y-106608741D01*
X212639000Y-106431259D01*
X212673624Y-106257188D01*
X212741544Y-106093216D01*
X212840147Y-105945646D01*
X212965646Y-105820147D01*
X213113216Y-105721544D01*
X213277188Y-105653624D01*
X213426488Y-105623927D01*
X213451258Y-105619000D01*
X213628742Y-105619000D01*
X213653512Y-105623927D01*
G37*
G36*
X211113512Y-105623927D02*
G01*
X211262812Y-105653624D01*
X211426784Y-105721544D01*
X211574354Y-105820147D01*
X211699853Y-105945646D01*
X211798456Y-106093216D01*
X211866376Y-106257188D01*
X211901000Y-106431259D01*
X211901000Y-106608741D01*
X211866376Y-106782812D01*
X211798456Y-106946784D01*
X211699853Y-107094354D01*
X211574354Y-107219853D01*
X211426784Y-107318456D01*
X211262812Y-107386376D01*
X211113512Y-107416073D01*
X211088742Y-107421000D01*
X210911258Y-107421000D01*
X210886488Y-107416073D01*
X210737188Y-107386376D01*
X210573216Y-107318456D01*
X210425646Y-107219853D01*
X210300147Y-107094354D01*
X210201544Y-106946784D01*
X210133624Y-106782812D01*
X210099000Y-106608741D01*
X210099000Y-106431259D01*
X210133624Y-106257188D01*
X210201544Y-106093216D01*
X210300147Y-105945646D01*
X210425646Y-105820147D01*
X210573216Y-105721544D01*
X210737188Y-105653624D01*
X210886488Y-105623927D01*
X210911258Y-105619000D01*
X211088742Y-105619000D01*
X211113512Y-105623927D01*
G37*
G36*
X198424228Y-104277703D02*
G01*
X198579100Y-104341853D01*
X198718481Y-104434985D01*
X198837015Y-104553519D01*
X198930147Y-104692900D01*
X198994297Y-104847772D01*
X199027000Y-105012184D01*
X199027000Y-105179816D01*
X198994297Y-105344228D01*
X198930147Y-105499100D01*
X198837015Y-105638481D01*
X198718481Y-105757015D01*
X198579100Y-105850147D01*
X198424228Y-105914297D01*
X198259816Y-105947000D01*
X198092184Y-105947000D01*
X197927772Y-105914297D01*
X197772900Y-105850147D01*
X197633519Y-105757015D01*
X197514985Y-105638481D01*
X197421853Y-105499100D01*
X197357703Y-105344228D01*
X197325000Y-105179816D01*
X197325000Y-105012184D01*
X197357703Y-104847772D01*
X197421853Y-104692900D01*
X197514985Y-104553519D01*
X197633519Y-104434985D01*
X197772900Y-104341853D01*
X197927772Y-104277703D01*
X198092184Y-104245000D01*
X198259816Y-104245000D01*
X198424228Y-104277703D01*
G37*
G36*
X200964228Y-104277703D02*
G01*
X201119100Y-104341853D01*
X201258481Y-104434985D01*
X201377015Y-104553519D01*
X201470147Y-104692900D01*
X201534297Y-104847772D01*
X201567000Y-105012184D01*
X201567000Y-105179816D01*
X201534297Y-105344228D01*
X201470147Y-105499100D01*
X201377015Y-105638481D01*
X201258481Y-105757015D01*
X201119100Y-105850147D01*
X200964228Y-105914297D01*
X200799816Y-105947000D01*
X200632184Y-105947000D01*
X200467772Y-105914297D01*
X200312900Y-105850147D01*
X200173519Y-105757015D01*
X200054985Y-105638481D01*
X199961853Y-105499100D01*
X199897703Y-105344228D01*
X199865000Y-105179816D01*
X199865000Y-105012184D01*
X199897703Y-104847772D01*
X199961853Y-104692900D01*
X200054985Y-104553519D01*
X200173519Y-104434985D01*
X200312900Y-104341853D01*
X200467772Y-104277703D01*
X200632184Y-104245000D01*
X200799816Y-104245000D01*
X200964228Y-104277703D01*
G37*
G36*
X155244228Y-104277703D02*
G01*
X155399100Y-104341853D01*
X155538481Y-104434985D01*
X155657015Y-104553519D01*
X155750147Y-104692900D01*
X155814297Y-104847772D01*
X155847000Y-105012184D01*
X155847000Y-105179816D01*
X155814297Y-105344228D01*
X155750147Y-105499100D01*
X155657015Y-105638481D01*
X155538481Y-105757015D01*
X155399100Y-105850147D01*
X155244228Y-105914297D01*
X155079816Y-105947000D01*
X154912184Y-105947000D01*
X154747772Y-105914297D01*
X154592900Y-105850147D01*
X154453519Y-105757015D01*
X154334985Y-105638481D01*
X154241853Y-105499100D01*
X154177703Y-105344228D01*
X154145000Y-105179816D01*
X154145000Y-105012184D01*
X154177703Y-104847772D01*
X154241853Y-104692900D01*
X154334985Y-104553519D01*
X154453519Y-104434985D01*
X154592900Y-104341853D01*
X154747772Y-104277703D01*
X154912184Y-104245000D01*
X155079816Y-104245000D01*
X155244228Y-104277703D01*
G37*
G36*
X152704228Y-104277703D02*
G01*
X152859100Y-104341853D01*
X152998481Y-104434985D01*
X153117015Y-104553519D01*
X153210147Y-104692900D01*
X153274297Y-104847772D01*
X153307000Y-105012184D01*
X153307000Y-105179816D01*
X153274297Y-105344228D01*
X153210147Y-105499100D01*
X153117015Y-105638481D01*
X152998481Y-105757015D01*
X152859100Y-105850147D01*
X152704228Y-105914297D01*
X152539816Y-105947000D01*
X152372184Y-105947000D01*
X152207772Y-105914297D01*
X152052900Y-105850147D01*
X151913519Y-105757015D01*
X151794985Y-105638481D01*
X151701853Y-105499100D01*
X151637703Y-105344228D01*
X151605000Y-105179816D01*
X151605000Y-105012184D01*
X151637703Y-104847772D01*
X151701853Y-104692900D01*
X151794985Y-104553519D01*
X151913519Y-104434985D01*
X152052900Y-104341853D01*
X152207772Y-104277703D01*
X152372184Y-104245000D01*
X152539816Y-104245000D01*
X152704228Y-104277703D01*
G37*
G36*
X206597142Y-103648242D02*
G01*
X206745101Y-103709529D01*
X206878255Y-103798499D01*
X206991501Y-103911745D01*
X207080471Y-104044899D01*
X207141758Y-104192858D01*
X207173000Y-104349925D01*
X207173000Y-104510075D01*
X207141758Y-104667142D01*
X207080471Y-104815101D01*
X206991501Y-104948255D01*
X206878255Y-105061501D01*
X206745101Y-105150471D01*
X206597142Y-105211758D01*
X206440075Y-105243000D01*
X206279925Y-105243000D01*
X206122858Y-105211758D01*
X205974899Y-105150471D01*
X205841745Y-105061501D01*
X205728499Y-104948255D01*
X205639529Y-104815101D01*
X205578242Y-104667142D01*
X205547000Y-104510075D01*
X205547000Y-104349925D01*
X205578242Y-104192858D01*
X205639529Y-104044899D01*
X205728499Y-103911745D01*
X205841745Y-103798499D01*
X205974899Y-103709529D01*
X206122858Y-103648242D01*
X206279925Y-103617000D01*
X206440075Y-103617000D01*
X206597142Y-103648242D01*
G37*
G36*
X145573512Y-103243927D02*
G01*
X145722812Y-103273624D01*
X145886784Y-103341544D01*
X146034354Y-103440147D01*
X146159853Y-103565646D01*
X146258456Y-103713216D01*
X146326376Y-103877188D01*
X146361000Y-104051259D01*
X146361000Y-104228741D01*
X146326376Y-104402812D01*
X146258456Y-104566784D01*
X146159853Y-104714354D01*
X146034354Y-104839853D01*
X145886784Y-104938456D01*
X145722812Y-105006376D01*
X145573512Y-105036073D01*
X145548742Y-105041000D01*
X145371258Y-105041000D01*
X145346488Y-105036073D01*
X145197188Y-105006376D01*
X145033216Y-104938456D01*
X144885646Y-104839853D01*
X144760147Y-104714354D01*
X144661544Y-104566784D01*
X144593624Y-104402812D01*
X144559000Y-104228741D01*
X144559000Y-104051259D01*
X144593624Y-103877188D01*
X144661544Y-103713216D01*
X144760147Y-103565646D01*
X144885646Y-103440147D01*
X145033216Y-103341544D01*
X145197188Y-103273624D01*
X145346488Y-103243927D01*
X145371258Y-103239000D01*
X145548742Y-103239000D01*
X145573512Y-103243927D01*
G37*
G36*
X148113512Y-103243927D02*
G01*
X148262812Y-103273624D01*
X148426784Y-103341544D01*
X148574354Y-103440147D01*
X148699853Y-103565646D01*
X148798456Y-103713216D01*
X148866376Y-103877188D01*
X148901000Y-104051259D01*
X148901000Y-104228741D01*
X148866376Y-104402812D01*
X148798456Y-104566784D01*
X148699853Y-104714354D01*
X148574354Y-104839853D01*
X148426784Y-104938456D01*
X148262812Y-105006376D01*
X148113512Y-105036073D01*
X148088742Y-105041000D01*
X147911258Y-105041000D01*
X147886488Y-105036073D01*
X147737188Y-105006376D01*
X147573216Y-104938456D01*
X147425646Y-104839853D01*
X147300147Y-104714354D01*
X147201544Y-104566784D01*
X147133624Y-104402812D01*
X147099000Y-104228741D01*
X147099000Y-104051259D01*
X147133624Y-103877188D01*
X147201544Y-103713216D01*
X147300147Y-103565646D01*
X147425646Y-103440147D01*
X147573216Y-103341544D01*
X147737188Y-103273624D01*
X147886488Y-103243927D01*
X147911258Y-103239000D01*
X148088742Y-103239000D01*
X148113512Y-103243927D01*
G37*
G36*
X213653512Y-103083927D02*
G01*
X213802812Y-103113624D01*
X213966784Y-103181544D01*
X214114354Y-103280147D01*
X214239853Y-103405646D01*
X214338456Y-103553216D01*
X214406376Y-103717188D01*
X214441000Y-103891259D01*
X214441000Y-104068741D01*
X214406376Y-104242812D01*
X214338456Y-104406784D01*
X214239853Y-104554354D01*
X214114354Y-104679853D01*
X213966784Y-104778456D01*
X213802812Y-104846376D01*
X213653512Y-104876073D01*
X213628742Y-104881000D01*
X213451258Y-104881000D01*
X213426488Y-104876073D01*
X213277188Y-104846376D01*
X213113216Y-104778456D01*
X212965646Y-104679853D01*
X212840147Y-104554354D01*
X212741544Y-104406784D01*
X212673624Y-104242812D01*
X212639000Y-104068741D01*
X212639000Y-103891259D01*
X212673624Y-103717188D01*
X212741544Y-103553216D01*
X212840147Y-103405646D01*
X212965646Y-103280147D01*
X213113216Y-103181544D01*
X213277188Y-103113624D01*
X213426488Y-103083927D01*
X213451258Y-103079000D01*
X213628742Y-103079000D01*
X213653512Y-103083927D01*
G37*
G36*
X211113512Y-103083927D02*
G01*
X211262812Y-103113624D01*
X211426784Y-103181544D01*
X211574354Y-103280147D01*
X211699853Y-103405646D01*
X211798456Y-103553216D01*
X211866376Y-103717188D01*
X211901000Y-103891259D01*
X211901000Y-104068741D01*
X211866376Y-104242812D01*
X211798456Y-104406784D01*
X211699853Y-104554354D01*
X211574354Y-104679853D01*
X211426784Y-104778456D01*
X211262812Y-104846376D01*
X211113512Y-104876073D01*
X211088742Y-104881000D01*
X210911258Y-104881000D01*
X210886488Y-104876073D01*
X210737188Y-104846376D01*
X210573216Y-104778456D01*
X210425646Y-104679853D01*
X210300147Y-104554354D01*
X210201544Y-104406784D01*
X210133624Y-104242812D01*
X210099000Y-104068741D01*
X210099000Y-103891259D01*
X210133624Y-103717188D01*
X210201544Y-103553216D01*
X210300147Y-103405646D01*
X210425646Y-103280147D01*
X210573216Y-103181544D01*
X210737188Y-103113624D01*
X210886488Y-103083927D01*
X210911258Y-103079000D01*
X211088742Y-103079000D01*
X211113512Y-103083927D01*
G37*
G36*
X200964228Y-101737703D02*
G01*
X201119100Y-101801853D01*
X201258481Y-101894985D01*
X201377015Y-102013519D01*
X201470147Y-102152900D01*
X201534297Y-102307772D01*
X201567000Y-102472184D01*
X201567000Y-102639816D01*
X201534297Y-102804228D01*
X201470147Y-102959100D01*
X201377015Y-103098481D01*
X201258481Y-103217015D01*
X201119100Y-103310147D01*
X200964228Y-103374297D01*
X200799816Y-103407000D01*
X200632184Y-103407000D01*
X200467772Y-103374297D01*
X200312900Y-103310147D01*
X200173519Y-103217015D01*
X200054985Y-103098481D01*
X199961853Y-102959100D01*
X199897703Y-102804228D01*
X199865000Y-102639816D01*
X199865000Y-102472184D01*
X199897703Y-102307772D01*
X199961853Y-102152900D01*
X200054985Y-102013519D01*
X200173519Y-101894985D01*
X200312900Y-101801853D01*
X200467772Y-101737703D01*
X200632184Y-101705000D01*
X200799816Y-101705000D01*
X200964228Y-101737703D01*
G37*
G36*
X198424228Y-101737703D02*
G01*
X198579100Y-101801853D01*
X198718481Y-101894985D01*
X198837015Y-102013519D01*
X198930147Y-102152900D01*
X198994297Y-102307772D01*
X199027000Y-102472184D01*
X199027000Y-102639816D01*
X198994297Y-102804228D01*
X198930147Y-102959100D01*
X198837015Y-103098481D01*
X198718481Y-103217015D01*
X198579100Y-103310147D01*
X198424228Y-103374297D01*
X198259816Y-103407000D01*
X198092184Y-103407000D01*
X197927772Y-103374297D01*
X197772900Y-103310147D01*
X197633519Y-103217015D01*
X197514985Y-103098481D01*
X197421853Y-102959100D01*
X197357703Y-102804228D01*
X197325000Y-102639816D01*
X197325000Y-102472184D01*
X197357703Y-102307772D01*
X197421853Y-102152900D01*
X197514985Y-102013519D01*
X197633519Y-101894985D01*
X197772900Y-101801853D01*
X197927772Y-101737703D01*
X198092184Y-101705000D01*
X198259816Y-101705000D01*
X198424228Y-101737703D01*
G37*
G36*
X155244228Y-101737703D02*
G01*
X155399100Y-101801853D01*
X155538481Y-101894985D01*
X155657015Y-102013519D01*
X155750147Y-102152900D01*
X155814297Y-102307772D01*
X155847000Y-102472184D01*
X155847000Y-102639816D01*
X155814297Y-102804228D01*
X155750147Y-102959100D01*
X155657015Y-103098481D01*
X155538481Y-103217015D01*
X155399100Y-103310147D01*
X155244228Y-103374297D01*
X155079816Y-103407000D01*
X154912184Y-103407000D01*
X154747772Y-103374297D01*
X154592900Y-103310147D01*
X154453519Y-103217015D01*
X154334985Y-103098481D01*
X154241853Y-102959100D01*
X154177703Y-102804228D01*
X154145000Y-102639816D01*
X154145000Y-102472184D01*
X154177703Y-102307772D01*
X154241853Y-102152900D01*
X154334985Y-102013519D01*
X154453519Y-101894985D01*
X154592900Y-101801853D01*
X154747772Y-101737703D01*
X154912184Y-101705000D01*
X155079816Y-101705000D01*
X155244228Y-101737703D01*
G37*
G36*
X152704228Y-101737703D02*
G01*
X152859100Y-101801853D01*
X152998481Y-101894985D01*
X153117015Y-102013519D01*
X153210147Y-102152900D01*
X153274297Y-102307772D01*
X153307000Y-102472184D01*
X153307000Y-102639816D01*
X153274297Y-102804228D01*
X153210147Y-102959100D01*
X153117015Y-103098481D01*
X152998481Y-103217015D01*
X152859100Y-103310147D01*
X152704228Y-103374297D01*
X152539816Y-103407000D01*
X152372184Y-103407000D01*
X152207772Y-103374297D01*
X152052900Y-103310147D01*
X151913519Y-103217015D01*
X151794985Y-103098481D01*
X151701853Y-102959100D01*
X151637703Y-102804228D01*
X151605000Y-102639816D01*
X151605000Y-102472184D01*
X151637703Y-102307772D01*
X151701853Y-102152900D01*
X151794985Y-102013519D01*
X151913519Y-101894985D01*
X152052900Y-101801853D01*
X152207772Y-101737703D01*
X152372184Y-101705000D01*
X152539816Y-101705000D01*
X152704228Y-101737703D01*
G37*
G36*
X206597142Y-101108242D02*
G01*
X206745101Y-101169529D01*
X206878255Y-101258499D01*
X206991501Y-101371745D01*
X207080471Y-101504899D01*
X207141758Y-101652858D01*
X207173000Y-101809925D01*
X207173000Y-101970075D01*
X207141758Y-102127142D01*
X207080471Y-102275101D01*
X206991501Y-102408255D01*
X206878255Y-102521501D01*
X206745101Y-102610471D01*
X206597142Y-102671758D01*
X206440075Y-102703000D01*
X206279925Y-102703000D01*
X206122858Y-102671758D01*
X205974899Y-102610471D01*
X205841745Y-102521501D01*
X205728499Y-102408255D01*
X205639529Y-102275101D01*
X205578242Y-102127142D01*
X205547000Y-101970075D01*
X205547000Y-101809925D01*
X205578242Y-101652858D01*
X205639529Y-101504899D01*
X205728499Y-101371745D01*
X205841745Y-101258499D01*
X205974899Y-101169529D01*
X206122858Y-101108242D01*
X206279925Y-101077000D01*
X206440075Y-101077000D01*
X206597142Y-101108242D01*
G37*
G36*
X146361000Y-102501000D02*
G01*
X144559000Y-102501000D01*
X144559000Y-100699000D01*
X146361000Y-100699000D01*
X146361000Y-102501000D01*
G37*
G36*
X148113512Y-100703927D02*
G01*
X148262812Y-100733624D01*
X148426784Y-100801544D01*
X148574354Y-100900147D01*
X148699853Y-101025646D01*
X148798456Y-101173216D01*
X148866376Y-101337188D01*
X148901000Y-101511259D01*
X148901000Y-101688741D01*
X148866376Y-101862812D01*
X148798456Y-102026784D01*
X148699853Y-102174354D01*
X148574354Y-102299853D01*
X148426784Y-102398456D01*
X148262812Y-102466376D01*
X148113512Y-102496073D01*
X148088742Y-102501000D01*
X147911258Y-102501000D01*
X147886488Y-102496073D01*
X147737188Y-102466376D01*
X147573216Y-102398456D01*
X147425646Y-102299853D01*
X147300147Y-102174354D01*
X147201544Y-102026784D01*
X147133624Y-101862812D01*
X147099000Y-101688741D01*
X147099000Y-101511259D01*
X147133624Y-101337188D01*
X147201544Y-101173216D01*
X147300147Y-101025646D01*
X147425646Y-100900147D01*
X147573216Y-100801544D01*
X147737188Y-100733624D01*
X147886488Y-100703927D01*
X147911258Y-100699000D01*
X148088742Y-100699000D01*
X148113512Y-100703927D01*
G37*
G36*
X211901000Y-102341000D02*
G01*
X210099000Y-102341000D01*
X210099000Y-100539000D01*
X211901000Y-100539000D01*
X211901000Y-102341000D01*
G37*
G36*
X213653512Y-100543927D02*
G01*
X213802812Y-100573624D01*
X213966784Y-100641544D01*
X214114354Y-100740147D01*
X214239853Y-100865646D01*
X214338456Y-101013216D01*
X214406376Y-101177188D01*
X214441000Y-101351259D01*
X214441000Y-101528741D01*
X214406376Y-101702812D01*
X214338456Y-101866784D01*
X214239853Y-102014354D01*
X214114354Y-102139853D01*
X213966784Y-102238456D01*
X213802812Y-102306376D01*
X213653512Y-102336073D01*
X213628742Y-102341000D01*
X213451258Y-102341000D01*
X213426488Y-102336073D01*
X213277188Y-102306376D01*
X213113216Y-102238456D01*
X212965646Y-102139853D01*
X212840147Y-102014354D01*
X212741544Y-101866784D01*
X212673624Y-101702812D01*
X212639000Y-101528741D01*
X212639000Y-101351259D01*
X212673624Y-101177188D01*
X212741544Y-101013216D01*
X212840147Y-100865646D01*
X212965646Y-100740147D01*
X213113216Y-100641544D01*
X213277188Y-100573624D01*
X213426488Y-100543927D01*
X213451258Y-100539000D01*
X213628742Y-100539000D01*
X213653512Y-100543927D01*
G37*
G36*
X200964228Y-99197703D02*
G01*
X201119100Y-99261853D01*
X201258481Y-99354985D01*
X201377015Y-99473519D01*
X201470147Y-99612900D01*
X201534297Y-99767772D01*
X201567000Y-99932184D01*
X201567000Y-100099816D01*
X201534297Y-100264228D01*
X201470147Y-100419100D01*
X201377015Y-100558481D01*
X201258481Y-100677015D01*
X201119100Y-100770147D01*
X200964228Y-100834297D01*
X200799816Y-100867000D01*
X200632184Y-100867000D01*
X200467772Y-100834297D01*
X200312900Y-100770147D01*
X200173519Y-100677015D01*
X200054985Y-100558481D01*
X199961853Y-100419100D01*
X199897703Y-100264228D01*
X199865000Y-100099816D01*
X199865000Y-99932184D01*
X199897703Y-99767772D01*
X199961853Y-99612900D01*
X200054985Y-99473519D01*
X200173519Y-99354985D01*
X200312900Y-99261853D01*
X200467772Y-99197703D01*
X200632184Y-99165000D01*
X200799816Y-99165000D01*
X200964228Y-99197703D01*
G37*
G36*
X198424228Y-99197703D02*
G01*
X198579100Y-99261853D01*
X198718481Y-99354985D01*
X198837015Y-99473519D01*
X198930147Y-99612900D01*
X198994297Y-99767772D01*
X199027000Y-99932184D01*
X199027000Y-100099816D01*
X198994297Y-100264228D01*
X198930147Y-100419100D01*
X198837015Y-100558481D01*
X198718481Y-100677015D01*
X198579100Y-100770147D01*
X198424228Y-100834297D01*
X198259816Y-100867000D01*
X198092184Y-100867000D01*
X197927772Y-100834297D01*
X197772900Y-100770147D01*
X197633519Y-100677015D01*
X197514985Y-100558481D01*
X197421853Y-100419100D01*
X197357703Y-100264228D01*
X197325000Y-100099816D01*
X197325000Y-99932184D01*
X197357703Y-99767772D01*
X197421853Y-99612900D01*
X197514985Y-99473519D01*
X197633519Y-99354985D01*
X197772900Y-99261853D01*
X197927772Y-99197703D01*
X198092184Y-99165000D01*
X198259816Y-99165000D01*
X198424228Y-99197703D01*
G37*
G36*
X206597142Y-98568242D02*
G01*
X206745101Y-98629529D01*
X206878255Y-98718499D01*
X206991501Y-98831745D01*
X207080471Y-98964899D01*
X207141758Y-99112858D01*
X207173000Y-99269925D01*
X207173000Y-99430075D01*
X207141758Y-99587142D01*
X207080471Y-99735101D01*
X206991501Y-99868255D01*
X206878255Y-99981501D01*
X206745101Y-100070471D01*
X206597142Y-100131758D01*
X206440075Y-100163000D01*
X206279925Y-100163000D01*
X206122858Y-100131758D01*
X205974899Y-100070471D01*
X205841745Y-99981501D01*
X205728499Y-99868255D01*
X205639529Y-99735101D01*
X205578242Y-99587142D01*
X205547000Y-99430075D01*
X205547000Y-99269925D01*
X205578242Y-99112858D01*
X205639529Y-98964899D01*
X205728499Y-98831745D01*
X205841745Y-98718499D01*
X205974899Y-98629529D01*
X206122858Y-98568242D01*
X206279925Y-98537000D01*
X206440075Y-98537000D01*
X206597142Y-98568242D01*
G37*
G36*
X152704228Y-96657703D02*
G01*
X152859100Y-96721853D01*
X152998481Y-96814985D01*
X153117015Y-96933519D01*
X153210147Y-97072900D01*
X153274297Y-97227772D01*
X153307000Y-97392184D01*
X153307000Y-97559816D01*
X153274297Y-97724228D01*
X153210147Y-97879100D01*
X153117015Y-98018481D01*
X152998481Y-98137015D01*
X152859100Y-98230147D01*
X152704228Y-98294297D01*
X152539816Y-98327000D01*
X152372184Y-98327000D01*
X152207772Y-98294297D01*
X152052900Y-98230147D01*
X151913519Y-98137015D01*
X151794985Y-98018481D01*
X151701853Y-97879100D01*
X151637703Y-97724228D01*
X151605000Y-97559816D01*
X151605000Y-97392184D01*
X151637703Y-97227772D01*
X151701853Y-97072900D01*
X151794985Y-96933519D01*
X151913519Y-96814985D01*
X152052900Y-96721853D01*
X152207772Y-96657703D01*
X152372184Y-96625000D01*
X152539816Y-96625000D01*
X152704228Y-96657703D01*
G37*
G36*
X200964228Y-96657703D02*
G01*
X201119100Y-96721853D01*
X201258481Y-96814985D01*
X201377015Y-96933519D01*
X201470147Y-97072900D01*
X201534297Y-97227772D01*
X201567000Y-97392184D01*
X201567000Y-97559816D01*
X201534297Y-97724228D01*
X201470147Y-97879100D01*
X201377015Y-98018481D01*
X201258481Y-98137015D01*
X201119100Y-98230147D01*
X200964228Y-98294297D01*
X200799816Y-98327000D01*
X200632184Y-98327000D01*
X200467772Y-98294297D01*
X200312900Y-98230147D01*
X200173519Y-98137015D01*
X200054985Y-98018481D01*
X199961853Y-97879100D01*
X199897703Y-97724228D01*
X199865000Y-97559816D01*
X199865000Y-97392184D01*
X199897703Y-97227772D01*
X199961853Y-97072900D01*
X200054985Y-96933519D01*
X200173519Y-96814985D01*
X200312900Y-96721853D01*
X200467772Y-96657703D01*
X200632184Y-96625000D01*
X200799816Y-96625000D01*
X200964228Y-96657703D01*
G37*
G36*
X155244228Y-96657703D02*
G01*
X155399100Y-96721853D01*
X155538481Y-96814985D01*
X155657015Y-96933519D01*
X155750147Y-97072900D01*
X155814297Y-97227772D01*
X155847000Y-97392184D01*
X155847000Y-97559816D01*
X155814297Y-97724228D01*
X155750147Y-97879100D01*
X155657015Y-98018481D01*
X155538481Y-98137015D01*
X155399100Y-98230147D01*
X155244228Y-98294297D01*
X155079816Y-98327000D01*
X154912184Y-98327000D01*
X154747772Y-98294297D01*
X154592900Y-98230147D01*
X154453519Y-98137015D01*
X154334985Y-98018481D01*
X154241853Y-97879100D01*
X154177703Y-97724228D01*
X154145000Y-97559816D01*
X154145000Y-97392184D01*
X154177703Y-97227772D01*
X154241853Y-97072900D01*
X154334985Y-96933519D01*
X154453519Y-96814985D01*
X154592900Y-96721853D01*
X154747772Y-96657703D01*
X154912184Y-96625000D01*
X155079816Y-96625000D01*
X155244228Y-96657703D01*
G37*
G36*
X198424228Y-96657703D02*
G01*
X198579100Y-96721853D01*
X198718481Y-96814985D01*
X198837015Y-96933519D01*
X198930147Y-97072900D01*
X198994297Y-97227772D01*
X199027000Y-97392184D01*
X199027000Y-97559816D01*
X198994297Y-97724228D01*
X198930147Y-97879100D01*
X198837015Y-98018481D01*
X198718481Y-98137015D01*
X198579100Y-98230147D01*
X198424228Y-98294297D01*
X198259816Y-98327000D01*
X198092184Y-98327000D01*
X197927772Y-98294297D01*
X197772900Y-98230147D01*
X197633519Y-98137015D01*
X197514985Y-98018481D01*
X197421853Y-97879100D01*
X197357703Y-97724228D01*
X197325000Y-97559816D01*
X197325000Y-97392184D01*
X197357703Y-97227772D01*
X197421853Y-97072900D01*
X197514985Y-96933519D01*
X197633519Y-96814985D01*
X197772900Y-96721853D01*
X197927772Y-96657703D01*
X198092184Y-96625000D01*
X198259816Y-96625000D01*
X198424228Y-96657703D01*
G37*
G36*
X206597142Y-96028242D02*
G01*
X206745101Y-96089529D01*
X206878255Y-96178499D01*
X206991501Y-96291745D01*
X207080471Y-96424899D01*
X207141758Y-96572858D01*
X207173000Y-96729925D01*
X207173000Y-96890075D01*
X207141758Y-97047142D01*
X207080471Y-97195101D01*
X206991501Y-97328255D01*
X206878255Y-97441501D01*
X206745101Y-97530471D01*
X206597142Y-97591758D01*
X206440075Y-97623000D01*
X206279925Y-97623000D01*
X206122858Y-97591758D01*
X205974899Y-97530471D01*
X205841745Y-97441501D01*
X205728499Y-97328255D01*
X205639529Y-97195101D01*
X205578242Y-97047142D01*
X205547000Y-96890075D01*
X205547000Y-96729925D01*
X205578242Y-96572858D01*
X205639529Y-96424899D01*
X205728499Y-96291745D01*
X205841745Y-96178499D01*
X205974899Y-96089529D01*
X206122858Y-96028242D01*
X206279925Y-95997000D01*
X206440075Y-95997000D01*
X206597142Y-96028242D01*
G37*
G36*
X213653512Y-95223927D02*
G01*
X213802812Y-95253624D01*
X213966784Y-95321544D01*
X214114354Y-95420147D01*
X214239853Y-95545646D01*
X214338456Y-95693216D01*
X214406376Y-95857188D01*
X214441000Y-96031259D01*
X214441000Y-96208741D01*
X214406376Y-96382812D01*
X214338456Y-96546784D01*
X214239853Y-96694354D01*
X214114354Y-96819853D01*
X213966784Y-96918456D01*
X213802812Y-96986376D01*
X213653512Y-97016073D01*
X213628742Y-97021000D01*
X213451258Y-97021000D01*
X213426488Y-97016073D01*
X213277188Y-96986376D01*
X213113216Y-96918456D01*
X212965646Y-96819853D01*
X212840147Y-96694354D01*
X212741544Y-96546784D01*
X212673624Y-96382812D01*
X212639000Y-96208741D01*
X212639000Y-96031259D01*
X212673624Y-95857188D01*
X212741544Y-95693216D01*
X212840147Y-95545646D01*
X212965646Y-95420147D01*
X213113216Y-95321544D01*
X213277188Y-95253624D01*
X213426488Y-95223927D01*
X213451258Y-95219000D01*
X213628742Y-95219000D01*
X213653512Y-95223927D01*
G37*
G36*
X211113512Y-95223927D02*
G01*
X211262812Y-95253624D01*
X211426784Y-95321544D01*
X211574354Y-95420147D01*
X211699853Y-95545646D01*
X211798456Y-95693216D01*
X211866376Y-95857188D01*
X211901000Y-96031259D01*
X211901000Y-96208741D01*
X211866376Y-96382812D01*
X211798456Y-96546784D01*
X211699853Y-96694354D01*
X211574354Y-96819853D01*
X211426784Y-96918456D01*
X211262812Y-96986376D01*
X211113512Y-97016073D01*
X211088742Y-97021000D01*
X210911258Y-97021000D01*
X210886488Y-97016073D01*
X210737188Y-96986376D01*
X210573216Y-96918456D01*
X210425646Y-96819853D01*
X210300147Y-96694354D01*
X210201544Y-96546784D01*
X210133624Y-96382812D01*
X210099000Y-96208741D01*
X210099000Y-96031259D01*
X210133624Y-95857188D01*
X210201544Y-95693216D01*
X210300147Y-95545646D01*
X210425646Y-95420147D01*
X210573216Y-95321544D01*
X210737188Y-95253624D01*
X210886488Y-95223927D01*
X210911258Y-95219000D01*
X211088742Y-95219000D01*
X211113512Y-95223927D01*
G37*
G36*
X148113512Y-95223927D02*
G01*
X148262812Y-95253624D01*
X148426784Y-95321544D01*
X148574354Y-95420147D01*
X148699853Y-95545646D01*
X148798456Y-95693216D01*
X148866376Y-95857188D01*
X148901000Y-96031259D01*
X148901000Y-96208741D01*
X148866376Y-96382812D01*
X148798456Y-96546784D01*
X148699853Y-96694354D01*
X148574354Y-96819853D01*
X148426784Y-96918456D01*
X148262812Y-96986376D01*
X148113512Y-97016073D01*
X148088742Y-97021000D01*
X147911258Y-97021000D01*
X147886488Y-97016073D01*
X147737188Y-96986376D01*
X147573216Y-96918456D01*
X147425646Y-96819853D01*
X147300147Y-96694354D01*
X147201544Y-96546784D01*
X147133624Y-96382812D01*
X147099000Y-96208741D01*
X147099000Y-96031259D01*
X147133624Y-95857188D01*
X147201544Y-95693216D01*
X147300147Y-95545646D01*
X147425646Y-95420147D01*
X147573216Y-95321544D01*
X147737188Y-95253624D01*
X147886488Y-95223927D01*
X147911258Y-95219000D01*
X148088742Y-95219000D01*
X148113512Y-95223927D01*
G37*
G36*
X145573512Y-95223927D02*
G01*
X145722812Y-95253624D01*
X145886784Y-95321544D01*
X146034354Y-95420147D01*
X146159853Y-95545646D01*
X146258456Y-95693216D01*
X146326376Y-95857188D01*
X146361000Y-96031259D01*
X146361000Y-96208741D01*
X146326376Y-96382812D01*
X146258456Y-96546784D01*
X146159853Y-96694354D01*
X146034354Y-96819853D01*
X145886784Y-96918456D01*
X145722812Y-96986376D01*
X145573512Y-97016073D01*
X145548742Y-97021000D01*
X145371258Y-97021000D01*
X145346488Y-97016073D01*
X145197188Y-96986376D01*
X145033216Y-96918456D01*
X144885646Y-96819853D01*
X144760147Y-96694354D01*
X144661544Y-96546784D01*
X144593624Y-96382812D01*
X144559000Y-96208741D01*
X144559000Y-96031259D01*
X144593624Y-95857188D01*
X144661544Y-95693216D01*
X144760147Y-95545646D01*
X144885646Y-95420147D01*
X145033216Y-95321544D01*
X145197188Y-95253624D01*
X145346488Y-95223927D01*
X145371258Y-95219000D01*
X145548742Y-95219000D01*
X145573512Y-95223927D01*
G37*
G36*
X152704228Y-94117703D02*
G01*
X152859100Y-94181853D01*
X152998481Y-94274985D01*
X153117015Y-94393519D01*
X153210147Y-94532900D01*
X153274297Y-94687772D01*
X153307000Y-94852184D01*
X153307000Y-95019816D01*
X153274297Y-95184228D01*
X153210147Y-95339100D01*
X153117015Y-95478481D01*
X152998481Y-95597015D01*
X152859100Y-95690147D01*
X152704228Y-95754297D01*
X152539816Y-95787000D01*
X152372184Y-95787000D01*
X152207772Y-95754297D01*
X152052900Y-95690147D01*
X151913519Y-95597015D01*
X151794985Y-95478481D01*
X151701853Y-95339100D01*
X151637703Y-95184228D01*
X151605000Y-95019816D01*
X151605000Y-94852184D01*
X151637703Y-94687772D01*
X151701853Y-94532900D01*
X151794985Y-94393519D01*
X151913519Y-94274985D01*
X152052900Y-94181853D01*
X152207772Y-94117703D01*
X152372184Y-94085000D01*
X152539816Y-94085000D01*
X152704228Y-94117703D01*
G37*
G36*
X155244228Y-94117703D02*
G01*
X155399100Y-94181853D01*
X155538481Y-94274985D01*
X155657015Y-94393519D01*
X155750147Y-94532900D01*
X155814297Y-94687772D01*
X155847000Y-94852184D01*
X155847000Y-95019816D01*
X155814297Y-95184228D01*
X155750147Y-95339100D01*
X155657015Y-95478481D01*
X155538481Y-95597015D01*
X155399100Y-95690147D01*
X155244228Y-95754297D01*
X155079816Y-95787000D01*
X154912184Y-95787000D01*
X154747772Y-95754297D01*
X154592900Y-95690147D01*
X154453519Y-95597015D01*
X154334985Y-95478481D01*
X154241853Y-95339100D01*
X154177703Y-95184228D01*
X154145000Y-95019816D01*
X154145000Y-94852184D01*
X154177703Y-94687772D01*
X154241853Y-94532900D01*
X154334985Y-94393519D01*
X154453519Y-94274985D01*
X154592900Y-94181853D01*
X154747772Y-94117703D01*
X154912184Y-94085000D01*
X155079816Y-94085000D01*
X155244228Y-94117703D01*
G37*
G36*
X206597142Y-93488242D02*
G01*
X206745101Y-93549529D01*
X206878255Y-93638499D01*
X206991501Y-93751745D01*
X207080471Y-93884899D01*
X207141758Y-94032858D01*
X207173000Y-94189925D01*
X207173000Y-94350075D01*
X207141758Y-94507142D01*
X207080471Y-94655101D01*
X206991501Y-94788255D01*
X206878255Y-94901501D01*
X206745101Y-94990471D01*
X206597142Y-95051758D01*
X206440075Y-95083000D01*
X206279925Y-95083000D01*
X206122858Y-95051758D01*
X205974899Y-94990471D01*
X205841745Y-94901501D01*
X205728499Y-94788255D01*
X205639529Y-94655101D01*
X205578242Y-94507142D01*
X205547000Y-94350075D01*
X205547000Y-94189925D01*
X205578242Y-94032858D01*
X205639529Y-93884899D01*
X205728499Y-93751745D01*
X205841745Y-93638499D01*
X205974899Y-93549529D01*
X206122858Y-93488242D01*
X206279925Y-93457000D01*
X206440075Y-93457000D01*
X206597142Y-93488242D01*
G37*
G36*
X211113512Y-92683927D02*
G01*
X211262812Y-92713624D01*
X211426784Y-92781544D01*
X211574354Y-92880147D01*
X211699853Y-93005646D01*
X211798456Y-93153216D01*
X211866376Y-93317188D01*
X211901000Y-93491259D01*
X211901000Y-93668741D01*
X211866376Y-93842812D01*
X211798456Y-94006784D01*
X211699853Y-94154354D01*
X211574354Y-94279853D01*
X211426784Y-94378456D01*
X211262812Y-94446376D01*
X211113512Y-94476073D01*
X211088742Y-94481000D01*
X210911258Y-94481000D01*
X210886488Y-94476073D01*
X210737188Y-94446376D01*
X210573216Y-94378456D01*
X210425646Y-94279853D01*
X210300147Y-94154354D01*
X210201544Y-94006784D01*
X210133624Y-93842812D01*
X210099000Y-93668741D01*
X210099000Y-93491259D01*
X210133624Y-93317188D01*
X210201544Y-93153216D01*
X210300147Y-93005646D01*
X210425646Y-92880147D01*
X210573216Y-92781544D01*
X210737188Y-92713624D01*
X210886488Y-92683927D01*
X210911258Y-92679000D01*
X211088742Y-92679000D01*
X211113512Y-92683927D01*
G37*
G36*
X145573512Y-92683927D02*
G01*
X145722812Y-92713624D01*
X145886784Y-92781544D01*
X146034354Y-92880147D01*
X146159853Y-93005646D01*
X146258456Y-93153216D01*
X146326376Y-93317188D01*
X146361000Y-93491259D01*
X146361000Y-93668741D01*
X146326376Y-93842812D01*
X146258456Y-94006784D01*
X146159853Y-94154354D01*
X146034354Y-94279853D01*
X145886784Y-94378456D01*
X145722812Y-94446376D01*
X145573512Y-94476073D01*
X145548742Y-94481000D01*
X145371258Y-94481000D01*
X145346488Y-94476073D01*
X145197188Y-94446376D01*
X145033216Y-94378456D01*
X144885646Y-94279853D01*
X144760147Y-94154354D01*
X144661544Y-94006784D01*
X144593624Y-93842812D01*
X144559000Y-93668741D01*
X144559000Y-93491259D01*
X144593624Y-93317188D01*
X144661544Y-93153216D01*
X144760147Y-93005646D01*
X144885646Y-92880147D01*
X145033216Y-92781544D01*
X145197188Y-92713624D01*
X145346488Y-92683927D01*
X145371258Y-92679000D01*
X145548742Y-92679000D01*
X145573512Y-92683927D01*
G37*
G36*
X148113512Y-92683927D02*
G01*
X148262812Y-92713624D01*
X148426784Y-92781544D01*
X148574354Y-92880147D01*
X148699853Y-93005646D01*
X148798456Y-93153216D01*
X148866376Y-93317188D01*
X148901000Y-93491259D01*
X148901000Y-93668741D01*
X148866376Y-93842812D01*
X148798456Y-94006784D01*
X148699853Y-94154354D01*
X148574354Y-94279853D01*
X148426784Y-94378456D01*
X148262812Y-94446376D01*
X148113512Y-94476073D01*
X148088742Y-94481000D01*
X147911258Y-94481000D01*
X147886488Y-94476073D01*
X147737188Y-94446376D01*
X147573216Y-94378456D01*
X147425646Y-94279853D01*
X147300147Y-94154354D01*
X147201544Y-94006784D01*
X147133624Y-93842812D01*
X147099000Y-93668741D01*
X147099000Y-93491259D01*
X147133624Y-93317188D01*
X147201544Y-93153216D01*
X147300147Y-93005646D01*
X147425646Y-92880147D01*
X147573216Y-92781544D01*
X147737188Y-92713624D01*
X147886488Y-92683927D01*
X147911258Y-92679000D01*
X148088742Y-92679000D01*
X148113512Y-92683927D01*
G37*
G36*
X213653512Y-92683927D02*
G01*
X213802812Y-92713624D01*
X213966784Y-92781544D01*
X214114354Y-92880147D01*
X214239853Y-93005646D01*
X214338456Y-93153216D01*
X214406376Y-93317188D01*
X214441000Y-93491259D01*
X214441000Y-93668741D01*
X214406376Y-93842812D01*
X214338456Y-94006784D01*
X214239853Y-94154354D01*
X214114354Y-94279853D01*
X213966784Y-94378456D01*
X213802812Y-94446376D01*
X213653512Y-94476073D01*
X213628742Y-94481000D01*
X213451258Y-94481000D01*
X213426488Y-94476073D01*
X213277188Y-94446376D01*
X213113216Y-94378456D01*
X212965646Y-94279853D01*
X212840147Y-94154354D01*
X212741544Y-94006784D01*
X212673624Y-93842812D01*
X212639000Y-93668741D01*
X212639000Y-93491259D01*
X212673624Y-93317188D01*
X212741544Y-93153216D01*
X212840147Y-93005646D01*
X212965646Y-92880147D01*
X213113216Y-92781544D01*
X213277188Y-92713624D01*
X213426488Y-92683927D01*
X213451258Y-92679000D01*
X213628742Y-92679000D01*
X213653512Y-92683927D01*
G37*
G36*
X200964228Y-92593703D02*
G01*
X201119100Y-92657853D01*
X201258481Y-92750985D01*
X201377015Y-92869519D01*
X201470147Y-93008900D01*
X201534297Y-93163772D01*
X201567000Y-93328184D01*
X201567000Y-93495816D01*
X201534297Y-93660228D01*
X201470147Y-93815100D01*
X201377015Y-93954481D01*
X201258481Y-94073015D01*
X201119100Y-94166147D01*
X200964228Y-94230297D01*
X200799816Y-94263000D01*
X200632184Y-94263000D01*
X200467772Y-94230297D01*
X200312900Y-94166147D01*
X200173519Y-94073015D01*
X200054985Y-93954481D01*
X199961853Y-93815100D01*
X199897703Y-93660228D01*
X199865000Y-93495816D01*
X199865000Y-93328184D01*
X199897703Y-93163772D01*
X199961853Y-93008900D01*
X200054985Y-92869519D01*
X200173519Y-92750985D01*
X200312900Y-92657853D01*
X200467772Y-92593703D01*
X200632184Y-92561000D01*
X200799816Y-92561000D01*
X200964228Y-92593703D01*
G37*
G36*
X198424228Y-92593703D02*
G01*
X198579100Y-92657853D01*
X198718481Y-92750985D01*
X198837015Y-92869519D01*
X198930147Y-93008900D01*
X198994297Y-93163772D01*
X199027000Y-93328184D01*
X199027000Y-93495816D01*
X198994297Y-93660228D01*
X198930147Y-93815100D01*
X198837015Y-93954481D01*
X198718481Y-94073015D01*
X198579100Y-94166147D01*
X198424228Y-94230297D01*
X198259816Y-94263000D01*
X198092184Y-94263000D01*
X197927772Y-94230297D01*
X197772900Y-94166147D01*
X197633519Y-94073015D01*
X197514985Y-93954481D01*
X197421853Y-93815100D01*
X197357703Y-93660228D01*
X197325000Y-93495816D01*
X197325000Y-93328184D01*
X197357703Y-93163772D01*
X197421853Y-93008900D01*
X197514985Y-92869519D01*
X197633519Y-92750985D01*
X197772900Y-92657853D01*
X197927772Y-92593703D01*
X198092184Y-92561000D01*
X198259816Y-92561000D01*
X198424228Y-92593703D01*
G37*
G36*
X155244228Y-91577703D02*
G01*
X155399100Y-91641853D01*
X155538481Y-91734985D01*
X155657015Y-91853519D01*
X155750147Y-91992900D01*
X155814297Y-92147772D01*
X155847000Y-92312184D01*
X155847000Y-92479816D01*
X155814297Y-92644228D01*
X155750147Y-92799100D01*
X155657015Y-92938481D01*
X155538481Y-93057015D01*
X155399100Y-93150147D01*
X155244228Y-93214297D01*
X155079816Y-93247000D01*
X154912184Y-93247000D01*
X154747772Y-93214297D01*
X154592900Y-93150147D01*
X154453519Y-93057015D01*
X154334985Y-92938481D01*
X154241853Y-92799100D01*
X154177703Y-92644228D01*
X154145000Y-92479816D01*
X154145000Y-92312184D01*
X154177703Y-92147772D01*
X154241853Y-91992900D01*
X154334985Y-91853519D01*
X154453519Y-91734985D01*
X154592900Y-91641853D01*
X154747772Y-91577703D01*
X154912184Y-91545000D01*
X155079816Y-91545000D01*
X155244228Y-91577703D01*
G37*
G36*
X152704228Y-91577703D02*
G01*
X152859100Y-91641853D01*
X152998481Y-91734985D01*
X153117015Y-91853519D01*
X153210147Y-91992900D01*
X153274297Y-92147772D01*
X153307000Y-92312184D01*
X153307000Y-92479816D01*
X153274297Y-92644228D01*
X153210147Y-92799100D01*
X153117015Y-92938481D01*
X152998481Y-93057015D01*
X152859100Y-93150147D01*
X152704228Y-93214297D01*
X152539816Y-93247000D01*
X152372184Y-93247000D01*
X152207772Y-93214297D01*
X152052900Y-93150147D01*
X151913519Y-93057015D01*
X151794985Y-92938481D01*
X151701853Y-92799100D01*
X151637703Y-92644228D01*
X151605000Y-92479816D01*
X151605000Y-92312184D01*
X151637703Y-92147772D01*
X151701853Y-91992900D01*
X151794985Y-91853519D01*
X151913519Y-91734985D01*
X152052900Y-91641853D01*
X152207772Y-91577703D01*
X152372184Y-91545000D01*
X152539816Y-91545000D01*
X152704228Y-91577703D01*
G37*
G36*
X206597142Y-90948242D02*
G01*
X206745101Y-91009529D01*
X206878255Y-91098499D01*
X206991501Y-91211745D01*
X207080471Y-91344899D01*
X207141758Y-91492858D01*
X207173000Y-91649925D01*
X207173000Y-91810075D01*
X207141758Y-91967142D01*
X207080471Y-92115101D01*
X206991501Y-92248255D01*
X206878255Y-92361501D01*
X206745101Y-92450471D01*
X206597142Y-92511758D01*
X206440075Y-92543000D01*
X206279925Y-92543000D01*
X206122858Y-92511758D01*
X205974899Y-92450471D01*
X205841745Y-92361501D01*
X205728499Y-92248255D01*
X205639529Y-92115101D01*
X205578242Y-91967142D01*
X205547000Y-91810075D01*
X205547000Y-91649925D01*
X205578242Y-91492858D01*
X205639529Y-91344899D01*
X205728499Y-91211745D01*
X205841745Y-91098499D01*
X205974899Y-91009529D01*
X206122858Y-90948242D01*
X206279925Y-90917000D01*
X206440075Y-90917000D01*
X206597142Y-90948242D01*
G37*
G36*
X211113512Y-90143927D02*
G01*
X211262812Y-90173624D01*
X211426784Y-90241544D01*
X211574354Y-90340147D01*
X211699853Y-90465646D01*
X211798456Y-90613216D01*
X211866376Y-90777188D01*
X211901000Y-90951259D01*
X211901000Y-91128741D01*
X211866376Y-91302812D01*
X211798456Y-91466784D01*
X211699853Y-91614354D01*
X211574354Y-91739853D01*
X211426784Y-91838456D01*
X211262812Y-91906376D01*
X211113512Y-91936073D01*
X211088742Y-91941000D01*
X210911258Y-91941000D01*
X210886488Y-91936073D01*
X210737188Y-91906376D01*
X210573216Y-91838456D01*
X210425646Y-91739853D01*
X210300147Y-91614354D01*
X210201544Y-91466784D01*
X210133624Y-91302812D01*
X210099000Y-91128741D01*
X210099000Y-90951259D01*
X210133624Y-90777188D01*
X210201544Y-90613216D01*
X210300147Y-90465646D01*
X210425646Y-90340147D01*
X210573216Y-90241544D01*
X210737188Y-90173624D01*
X210886488Y-90143927D01*
X210911258Y-90139000D01*
X211088742Y-90139000D01*
X211113512Y-90143927D01*
G37*
G36*
X145573512Y-90143927D02*
G01*
X145722812Y-90173624D01*
X145886784Y-90241544D01*
X146034354Y-90340147D01*
X146159853Y-90465646D01*
X146258456Y-90613216D01*
X146326376Y-90777188D01*
X146361000Y-90951259D01*
X146361000Y-91128741D01*
X146326376Y-91302812D01*
X146258456Y-91466784D01*
X146159853Y-91614354D01*
X146034354Y-91739853D01*
X145886784Y-91838456D01*
X145722812Y-91906376D01*
X145573512Y-91936073D01*
X145548742Y-91941000D01*
X145371258Y-91941000D01*
X145346488Y-91936073D01*
X145197188Y-91906376D01*
X145033216Y-91838456D01*
X144885646Y-91739853D01*
X144760147Y-91614354D01*
X144661544Y-91466784D01*
X144593624Y-91302812D01*
X144559000Y-91128741D01*
X144559000Y-90951259D01*
X144593624Y-90777188D01*
X144661544Y-90613216D01*
X144760147Y-90465646D01*
X144885646Y-90340147D01*
X145033216Y-90241544D01*
X145197188Y-90173624D01*
X145346488Y-90143927D01*
X145371258Y-90139000D01*
X145548742Y-90139000D01*
X145573512Y-90143927D01*
G37*
G36*
X148113512Y-90143927D02*
G01*
X148262812Y-90173624D01*
X148426784Y-90241544D01*
X148574354Y-90340147D01*
X148699853Y-90465646D01*
X148798456Y-90613216D01*
X148866376Y-90777188D01*
X148901000Y-90951259D01*
X148901000Y-91128741D01*
X148866376Y-91302812D01*
X148798456Y-91466784D01*
X148699853Y-91614354D01*
X148574354Y-91739853D01*
X148426784Y-91838456D01*
X148262812Y-91906376D01*
X148113512Y-91936073D01*
X148088742Y-91941000D01*
X147911258Y-91941000D01*
X147886488Y-91936073D01*
X147737188Y-91906376D01*
X147573216Y-91838456D01*
X147425646Y-91739853D01*
X147300147Y-91614354D01*
X147201544Y-91466784D01*
X147133624Y-91302812D01*
X147099000Y-91128741D01*
X147099000Y-90951259D01*
X147133624Y-90777188D01*
X147201544Y-90613216D01*
X147300147Y-90465646D01*
X147425646Y-90340147D01*
X147573216Y-90241544D01*
X147737188Y-90173624D01*
X147886488Y-90143927D01*
X147911258Y-90139000D01*
X148088742Y-90139000D01*
X148113512Y-90143927D01*
G37*
G36*
X213653512Y-90143927D02*
G01*
X213802812Y-90173624D01*
X213966784Y-90241544D01*
X214114354Y-90340147D01*
X214239853Y-90465646D01*
X214338456Y-90613216D01*
X214406376Y-90777188D01*
X214441000Y-90951259D01*
X214441000Y-91128741D01*
X214406376Y-91302812D01*
X214338456Y-91466784D01*
X214239853Y-91614354D01*
X214114354Y-91739853D01*
X213966784Y-91838456D01*
X213802812Y-91906376D01*
X213653512Y-91936073D01*
X213628742Y-91941000D01*
X213451258Y-91941000D01*
X213426488Y-91936073D01*
X213277188Y-91906376D01*
X213113216Y-91838456D01*
X212965646Y-91739853D01*
X212840147Y-91614354D01*
X212741544Y-91466784D01*
X212673624Y-91302812D01*
X212639000Y-91128741D01*
X212639000Y-90951259D01*
X212673624Y-90777188D01*
X212741544Y-90613216D01*
X212840147Y-90465646D01*
X212965646Y-90340147D01*
X213113216Y-90241544D01*
X213277188Y-90173624D01*
X213426488Y-90143927D01*
X213451258Y-90139000D01*
X213628742Y-90139000D01*
X213653512Y-90143927D01*
G37*
G36*
X200964228Y-90057703D02*
G01*
X201119100Y-90121853D01*
X201258481Y-90214985D01*
X201377015Y-90333519D01*
X201470147Y-90472900D01*
X201534297Y-90627772D01*
X201567000Y-90792184D01*
X201567000Y-90959816D01*
X201534297Y-91124228D01*
X201470147Y-91279100D01*
X201377015Y-91418481D01*
X201258481Y-91537015D01*
X201119100Y-91630147D01*
X200964228Y-91694297D01*
X200799816Y-91727000D01*
X200632184Y-91727000D01*
X200467772Y-91694297D01*
X200312900Y-91630147D01*
X200173519Y-91537015D01*
X200054985Y-91418481D01*
X199961853Y-91279100D01*
X199897703Y-91124228D01*
X199865000Y-90959816D01*
X199865000Y-90792184D01*
X199897703Y-90627772D01*
X199961853Y-90472900D01*
X200054985Y-90333519D01*
X200173519Y-90214985D01*
X200312900Y-90121853D01*
X200467772Y-90057703D01*
X200632184Y-90025000D01*
X200799816Y-90025000D01*
X200964228Y-90057703D01*
G37*
G36*
X198424228Y-90053703D02*
G01*
X198579100Y-90117853D01*
X198718481Y-90210985D01*
X198837015Y-90329519D01*
X198930147Y-90468900D01*
X198994297Y-90623772D01*
X199027000Y-90788184D01*
X199027000Y-90955816D01*
X198994297Y-91120228D01*
X198930147Y-91275100D01*
X198837015Y-91414481D01*
X198718481Y-91533015D01*
X198579100Y-91626147D01*
X198424228Y-91690297D01*
X198259816Y-91723000D01*
X198092184Y-91723000D01*
X197927772Y-91690297D01*
X197772900Y-91626147D01*
X197633519Y-91533015D01*
X197514985Y-91414481D01*
X197421853Y-91275100D01*
X197357703Y-91120228D01*
X197325000Y-90955816D01*
X197325000Y-90788184D01*
X197357703Y-90623772D01*
X197421853Y-90468900D01*
X197514985Y-90329519D01*
X197633519Y-90210985D01*
X197772900Y-90117853D01*
X197927772Y-90053703D01*
X198092184Y-90021000D01*
X198259816Y-90021000D01*
X198424228Y-90053703D01*
G37*
G36*
X152704228Y-89037703D02*
G01*
X152859100Y-89101853D01*
X152998481Y-89194985D01*
X153117015Y-89313519D01*
X153210147Y-89452900D01*
X153274297Y-89607772D01*
X153307000Y-89772184D01*
X153307000Y-89939816D01*
X153274297Y-90104228D01*
X153210147Y-90259100D01*
X153117015Y-90398481D01*
X152998481Y-90517015D01*
X152859100Y-90610147D01*
X152704228Y-90674297D01*
X152539816Y-90707000D01*
X152372184Y-90707000D01*
X152207772Y-90674297D01*
X152052900Y-90610147D01*
X151913519Y-90517015D01*
X151794985Y-90398481D01*
X151701853Y-90259100D01*
X151637703Y-90104228D01*
X151605000Y-89939816D01*
X151605000Y-89772184D01*
X151637703Y-89607772D01*
X151701853Y-89452900D01*
X151794985Y-89313519D01*
X151913519Y-89194985D01*
X152052900Y-89101853D01*
X152207772Y-89037703D01*
X152372184Y-89005000D01*
X152539816Y-89005000D01*
X152704228Y-89037703D01*
G37*
G36*
X155244228Y-89037703D02*
G01*
X155399100Y-89101853D01*
X155538481Y-89194985D01*
X155657015Y-89313519D01*
X155750147Y-89452900D01*
X155814297Y-89607772D01*
X155847000Y-89772184D01*
X155847000Y-89939816D01*
X155814297Y-90104228D01*
X155750147Y-90259100D01*
X155657015Y-90398481D01*
X155538481Y-90517015D01*
X155399100Y-90610147D01*
X155244228Y-90674297D01*
X155079816Y-90707000D01*
X154912184Y-90707000D01*
X154747772Y-90674297D01*
X154592900Y-90610147D01*
X154453519Y-90517015D01*
X154334985Y-90398481D01*
X154241853Y-90259100D01*
X154177703Y-90104228D01*
X154145000Y-89939816D01*
X154145000Y-89772184D01*
X154177703Y-89607772D01*
X154241853Y-89452900D01*
X154334985Y-89313519D01*
X154453519Y-89194985D01*
X154592900Y-89101853D01*
X154747772Y-89037703D01*
X154912184Y-89005000D01*
X155079816Y-89005000D01*
X155244228Y-89037703D01*
G37*
G36*
X206597142Y-88408242D02*
G01*
X206745101Y-88469529D01*
X206878255Y-88558499D01*
X206991501Y-88671745D01*
X207080471Y-88804899D01*
X207141758Y-88952858D01*
X207173000Y-89109925D01*
X207173000Y-89270075D01*
X207141758Y-89427142D01*
X207080471Y-89575101D01*
X206991501Y-89708255D01*
X206878255Y-89821501D01*
X206745101Y-89910471D01*
X206597142Y-89971758D01*
X206440075Y-90003000D01*
X206279925Y-90003000D01*
X206122858Y-89971758D01*
X205974899Y-89910471D01*
X205841745Y-89821501D01*
X205728499Y-89708255D01*
X205639529Y-89575101D01*
X205578242Y-89427142D01*
X205547000Y-89270075D01*
X205547000Y-89109925D01*
X205578242Y-88952858D01*
X205639529Y-88804899D01*
X205728499Y-88671745D01*
X205841745Y-88558499D01*
X205974899Y-88469529D01*
X206122858Y-88408242D01*
X206279925Y-88377000D01*
X206440075Y-88377000D01*
X206597142Y-88408242D01*
G37*
G36*
X213653512Y-87603927D02*
G01*
X213802812Y-87633624D01*
X213966784Y-87701544D01*
X214114354Y-87800147D01*
X214239853Y-87925646D01*
X214338456Y-88073216D01*
X214406376Y-88237188D01*
X214441000Y-88411259D01*
X214441000Y-88588741D01*
X214406376Y-88762812D01*
X214338456Y-88926784D01*
X214239853Y-89074354D01*
X214114354Y-89199853D01*
X213966784Y-89298456D01*
X213802812Y-89366376D01*
X213653512Y-89396073D01*
X213628742Y-89401000D01*
X213451258Y-89401000D01*
X213426488Y-89396073D01*
X213277188Y-89366376D01*
X213113216Y-89298456D01*
X212965646Y-89199853D01*
X212840147Y-89074354D01*
X212741544Y-88926784D01*
X212673624Y-88762812D01*
X212639000Y-88588741D01*
X212639000Y-88411259D01*
X212673624Y-88237188D01*
X212741544Y-88073216D01*
X212840147Y-87925646D01*
X212965646Y-87800147D01*
X213113216Y-87701544D01*
X213277188Y-87633624D01*
X213426488Y-87603927D01*
X213451258Y-87599000D01*
X213628742Y-87599000D01*
X213653512Y-87603927D01*
G37*
G36*
X145573512Y-87603927D02*
G01*
X145722812Y-87633624D01*
X145886784Y-87701544D01*
X146034354Y-87800147D01*
X146159853Y-87925646D01*
X146258456Y-88073216D01*
X146326376Y-88237188D01*
X146361000Y-88411259D01*
X146361000Y-88588741D01*
X146326376Y-88762812D01*
X146258456Y-88926784D01*
X146159853Y-89074354D01*
X146034354Y-89199853D01*
X145886784Y-89298456D01*
X145722812Y-89366376D01*
X145573512Y-89396073D01*
X145548742Y-89401000D01*
X145371258Y-89401000D01*
X145346488Y-89396073D01*
X145197188Y-89366376D01*
X145033216Y-89298456D01*
X144885646Y-89199853D01*
X144760147Y-89074354D01*
X144661544Y-88926784D01*
X144593624Y-88762812D01*
X144559000Y-88588741D01*
X144559000Y-88411259D01*
X144593624Y-88237188D01*
X144661544Y-88073216D01*
X144760147Y-87925646D01*
X144885646Y-87800147D01*
X145033216Y-87701544D01*
X145197188Y-87633624D01*
X145346488Y-87603927D01*
X145371258Y-87599000D01*
X145548742Y-87599000D01*
X145573512Y-87603927D01*
G37*
G36*
X148113512Y-87603927D02*
G01*
X148262812Y-87633624D01*
X148426784Y-87701544D01*
X148574354Y-87800147D01*
X148699853Y-87925646D01*
X148798456Y-88073216D01*
X148866376Y-88237188D01*
X148901000Y-88411259D01*
X148901000Y-88588741D01*
X148866376Y-88762812D01*
X148798456Y-88926784D01*
X148699853Y-89074354D01*
X148574354Y-89199853D01*
X148426784Y-89298456D01*
X148262812Y-89366376D01*
X148113512Y-89396073D01*
X148088742Y-89401000D01*
X147911258Y-89401000D01*
X147886488Y-89396073D01*
X147737188Y-89366376D01*
X147573216Y-89298456D01*
X147425646Y-89199853D01*
X147300147Y-89074354D01*
X147201544Y-88926784D01*
X147133624Y-88762812D01*
X147099000Y-88588741D01*
X147099000Y-88411259D01*
X147133624Y-88237188D01*
X147201544Y-88073216D01*
X147300147Y-87925646D01*
X147425646Y-87800147D01*
X147573216Y-87701544D01*
X147737188Y-87633624D01*
X147886488Y-87603927D01*
X147911258Y-87599000D01*
X148088742Y-87599000D01*
X148113512Y-87603927D01*
G37*
G36*
X211113512Y-87603927D02*
G01*
X211262812Y-87633624D01*
X211426784Y-87701544D01*
X211574354Y-87800147D01*
X211699853Y-87925646D01*
X211798456Y-88073216D01*
X211866376Y-88237188D01*
X211901000Y-88411259D01*
X211901000Y-88588741D01*
X211866376Y-88762812D01*
X211798456Y-88926784D01*
X211699853Y-89074354D01*
X211574354Y-89199853D01*
X211426784Y-89298456D01*
X211262812Y-89366376D01*
X211113512Y-89396073D01*
X211088742Y-89401000D01*
X210911258Y-89401000D01*
X210886488Y-89396073D01*
X210737188Y-89366376D01*
X210573216Y-89298456D01*
X210425646Y-89199853D01*
X210300147Y-89074354D01*
X210201544Y-88926784D01*
X210133624Y-88762812D01*
X210099000Y-88588741D01*
X210099000Y-88411259D01*
X210133624Y-88237188D01*
X210201544Y-88073216D01*
X210300147Y-87925646D01*
X210425646Y-87800147D01*
X210573216Y-87701544D01*
X210737188Y-87633624D01*
X210886488Y-87603927D01*
X210911258Y-87599000D01*
X211088742Y-87599000D01*
X211113512Y-87603927D01*
G37*
G36*
X200964228Y-87517703D02*
G01*
X201119100Y-87581853D01*
X201258481Y-87674985D01*
X201377015Y-87793519D01*
X201470147Y-87932900D01*
X201534297Y-88087772D01*
X201567000Y-88252184D01*
X201567000Y-88419816D01*
X201534297Y-88584228D01*
X201470147Y-88739100D01*
X201377015Y-88878481D01*
X201258481Y-88997015D01*
X201119100Y-89090147D01*
X200964228Y-89154297D01*
X200799816Y-89187000D01*
X200632184Y-89187000D01*
X200467772Y-89154297D01*
X200312900Y-89090147D01*
X200173519Y-88997015D01*
X200054985Y-88878481D01*
X199961853Y-88739100D01*
X199897703Y-88584228D01*
X199865000Y-88419816D01*
X199865000Y-88252184D01*
X199897703Y-88087772D01*
X199961853Y-87932900D01*
X200054985Y-87793519D01*
X200173519Y-87674985D01*
X200312900Y-87581853D01*
X200467772Y-87517703D01*
X200632184Y-87485000D01*
X200799816Y-87485000D01*
X200964228Y-87517703D01*
G37*
G36*
X198424228Y-87513703D02*
G01*
X198579100Y-87577853D01*
X198718481Y-87670985D01*
X198837015Y-87789519D01*
X198930147Y-87928900D01*
X198994297Y-88083772D01*
X199027000Y-88248184D01*
X199027000Y-88415816D01*
X198994297Y-88580228D01*
X198930147Y-88735100D01*
X198837015Y-88874481D01*
X198718481Y-88993015D01*
X198579100Y-89086147D01*
X198424228Y-89150297D01*
X198259816Y-89183000D01*
X198092184Y-89183000D01*
X197927772Y-89150297D01*
X197772900Y-89086147D01*
X197633519Y-88993015D01*
X197514985Y-88874481D01*
X197421853Y-88735100D01*
X197357703Y-88580228D01*
X197325000Y-88415816D01*
X197325000Y-88248184D01*
X197357703Y-88083772D01*
X197421853Y-87928900D01*
X197514985Y-87789519D01*
X197633519Y-87670985D01*
X197772900Y-87577853D01*
X197927772Y-87513703D01*
X198092184Y-87481000D01*
X198259816Y-87481000D01*
X198424228Y-87513703D01*
G37*
G36*
X152704228Y-86497703D02*
G01*
X152859100Y-86561853D01*
X152998481Y-86654985D01*
X153117015Y-86773519D01*
X153210147Y-86912900D01*
X153274297Y-87067772D01*
X153307000Y-87232184D01*
X153307000Y-87399816D01*
X153274297Y-87564228D01*
X153210147Y-87719100D01*
X153117015Y-87858481D01*
X152998481Y-87977015D01*
X152859100Y-88070147D01*
X152704228Y-88134297D01*
X152539816Y-88167000D01*
X152372184Y-88167000D01*
X152207772Y-88134297D01*
X152052900Y-88070147D01*
X151913519Y-87977015D01*
X151794985Y-87858481D01*
X151701853Y-87719100D01*
X151637703Y-87564228D01*
X151605000Y-87399816D01*
X151605000Y-87232184D01*
X151637703Y-87067772D01*
X151701853Y-86912900D01*
X151794985Y-86773519D01*
X151913519Y-86654985D01*
X152052900Y-86561853D01*
X152207772Y-86497703D01*
X152372184Y-86465000D01*
X152539816Y-86465000D01*
X152704228Y-86497703D01*
G37*
G36*
X206597142Y-85868242D02*
G01*
X206745101Y-85929529D01*
X206878255Y-86018499D01*
X206991501Y-86131745D01*
X207080471Y-86264899D01*
X207141758Y-86412858D01*
X207173000Y-86569925D01*
X207173000Y-86730075D01*
X207141758Y-86887142D01*
X207080471Y-87035101D01*
X206991501Y-87168255D01*
X206878255Y-87281501D01*
X206745101Y-87370471D01*
X206597142Y-87431758D01*
X206440075Y-87463000D01*
X206279925Y-87463000D01*
X206122858Y-87431758D01*
X205974899Y-87370471D01*
X205841745Y-87281501D01*
X205728499Y-87168255D01*
X205639529Y-87035101D01*
X205578242Y-86887142D01*
X205547000Y-86730075D01*
X205547000Y-86569925D01*
X205578242Y-86412858D01*
X205639529Y-86264899D01*
X205728499Y-86131745D01*
X205841745Y-86018499D01*
X205974899Y-85929529D01*
X206122858Y-85868242D01*
X206279925Y-85837000D01*
X206440075Y-85837000D01*
X206597142Y-85868242D01*
G37*
G36*
X213653512Y-85063927D02*
G01*
X213802812Y-85093624D01*
X213966784Y-85161544D01*
X214114354Y-85260147D01*
X214239853Y-85385646D01*
X214338456Y-85533216D01*
X214406376Y-85697188D01*
X214441000Y-85871259D01*
X214441000Y-86048741D01*
X214406376Y-86222812D01*
X214338456Y-86386784D01*
X214239853Y-86534354D01*
X214114354Y-86659853D01*
X213966784Y-86758456D01*
X213802812Y-86826376D01*
X213653512Y-86856073D01*
X213628742Y-86861000D01*
X213451258Y-86861000D01*
X213426488Y-86856073D01*
X213277188Y-86826376D01*
X213113216Y-86758456D01*
X212965646Y-86659853D01*
X212840147Y-86534354D01*
X212741544Y-86386784D01*
X212673624Y-86222812D01*
X212639000Y-86048741D01*
X212639000Y-85871259D01*
X212673624Y-85697188D01*
X212741544Y-85533216D01*
X212840147Y-85385646D01*
X212965646Y-85260147D01*
X213113216Y-85161544D01*
X213277188Y-85093624D01*
X213426488Y-85063927D01*
X213451258Y-85059000D01*
X213628742Y-85059000D01*
X213653512Y-85063927D01*
G37*
G36*
X148113512Y-85063927D02*
G01*
X148262812Y-85093624D01*
X148426784Y-85161544D01*
X148574354Y-85260147D01*
X148699853Y-85385646D01*
X148798456Y-85533216D01*
X148866376Y-85697188D01*
X148901000Y-85871259D01*
X148901000Y-86048741D01*
X148866376Y-86222812D01*
X148798456Y-86386784D01*
X148699853Y-86534354D01*
X148574354Y-86659853D01*
X148426784Y-86758456D01*
X148262812Y-86826376D01*
X148113512Y-86856073D01*
X148088742Y-86861000D01*
X147911258Y-86861000D01*
X147886488Y-86856073D01*
X147737188Y-86826376D01*
X147573216Y-86758456D01*
X147425646Y-86659853D01*
X147300147Y-86534354D01*
X147201544Y-86386784D01*
X147133624Y-86222812D01*
X147099000Y-86048741D01*
X147099000Y-85871259D01*
X147133624Y-85697188D01*
X147201544Y-85533216D01*
X147300147Y-85385646D01*
X147425646Y-85260147D01*
X147573216Y-85161544D01*
X147737188Y-85093624D01*
X147886488Y-85063927D01*
X147911258Y-85059000D01*
X148088742Y-85059000D01*
X148113512Y-85063927D01*
G37*
G36*
X211901000Y-86861000D02*
G01*
X210099000Y-86861000D01*
X210099000Y-85059000D01*
X211901000Y-85059000D01*
X211901000Y-86861000D01*
G37*
G36*
X146361000Y-86861000D02*
G01*
X144559000Y-86861000D01*
X144559000Y-85059000D01*
X146361000Y-85059000D01*
X146361000Y-86861000D01*
G37*
G36*
X200964228Y-84977703D02*
G01*
X201119100Y-85041853D01*
X201258481Y-85134985D01*
X201377015Y-85253519D01*
X201470147Y-85392900D01*
X201534297Y-85547772D01*
X201567000Y-85712184D01*
X201567000Y-85879816D01*
X201534297Y-86044228D01*
X201470147Y-86199100D01*
X201377015Y-86338481D01*
X201258481Y-86457015D01*
X201119100Y-86550147D01*
X200964228Y-86614297D01*
X200799816Y-86647000D01*
X200632184Y-86647000D01*
X200467772Y-86614297D01*
X200312900Y-86550147D01*
X200173519Y-86457015D01*
X200054985Y-86338481D01*
X199961853Y-86199100D01*
X199897703Y-86044228D01*
X199865000Y-85879816D01*
X199865000Y-85712184D01*
X199897703Y-85547772D01*
X199961853Y-85392900D01*
X200054985Y-85253519D01*
X200173519Y-85134985D01*
X200312900Y-85041853D01*
X200467772Y-84977703D01*
X200632184Y-84945000D01*
X200799816Y-84945000D01*
X200964228Y-84977703D01*
G37*
G36*
X198424228Y-84973703D02*
G01*
X198579100Y-85037853D01*
X198718481Y-85130985D01*
X198837015Y-85249519D01*
X198930147Y-85388900D01*
X198994297Y-85543772D01*
X199027000Y-85708184D01*
X199027000Y-85875816D01*
X198994297Y-86040228D01*
X198930147Y-86195100D01*
X198837015Y-86334481D01*
X198718481Y-86453015D01*
X198579100Y-86546147D01*
X198424228Y-86610297D01*
X198259816Y-86643000D01*
X198092184Y-86643000D01*
X197927772Y-86610297D01*
X197772900Y-86546147D01*
X197633519Y-86453015D01*
X197514985Y-86334481D01*
X197421853Y-86195100D01*
X197357703Y-86040228D01*
X197325000Y-85875816D01*
X197325000Y-85708184D01*
X197357703Y-85543772D01*
X197421853Y-85388900D01*
X197514985Y-85249519D01*
X197633519Y-85130985D01*
X197772900Y-85037853D01*
X197927772Y-84973703D01*
X198092184Y-84941000D01*
X198259816Y-84941000D01*
X198424228Y-84973703D01*
G37*
G36*
X152704228Y-83957703D02*
G01*
X152859100Y-84021853D01*
X152998481Y-84114985D01*
X153117015Y-84233519D01*
X153210147Y-84372900D01*
X153274297Y-84527772D01*
X153307000Y-84692184D01*
X153307000Y-84859816D01*
X153274297Y-85024228D01*
X153210147Y-85179100D01*
X153117015Y-85318481D01*
X152998481Y-85437015D01*
X152859100Y-85530147D01*
X152704228Y-85594297D01*
X152539816Y-85627000D01*
X152372184Y-85627000D01*
X152207772Y-85594297D01*
X152052900Y-85530147D01*
X151913519Y-85437015D01*
X151794985Y-85318481D01*
X151701853Y-85179100D01*
X151637703Y-85024228D01*
X151605000Y-84859816D01*
X151605000Y-84692184D01*
X151637703Y-84527772D01*
X151701853Y-84372900D01*
X151794985Y-84233519D01*
X151913519Y-84114985D01*
X152052900Y-84021853D01*
X152207772Y-83957703D01*
X152372184Y-83925000D01*
X152539816Y-83925000D01*
X152704228Y-83957703D01*
G37*
G36*
X206597142Y-83328242D02*
G01*
X206745101Y-83389529D01*
X206878255Y-83478499D01*
X206991501Y-83591745D01*
X207080471Y-83724899D01*
X207141758Y-83872858D01*
X207173000Y-84029925D01*
X207173000Y-84190075D01*
X207141758Y-84347142D01*
X207080471Y-84495101D01*
X206991501Y-84628255D01*
X206878255Y-84741501D01*
X206745101Y-84830471D01*
X206597142Y-84891758D01*
X206440075Y-84923000D01*
X206279925Y-84923000D01*
X206122858Y-84891758D01*
X205974899Y-84830471D01*
X205841745Y-84741501D01*
X205728499Y-84628255D01*
X205639529Y-84495101D01*
X205578242Y-84347142D01*
X205547000Y-84190075D01*
X205547000Y-84029925D01*
X205578242Y-83872858D01*
X205639529Y-83724899D01*
X205728499Y-83591745D01*
X205841745Y-83478499D01*
X205974899Y-83389529D01*
X206122858Y-83328242D01*
X206279925Y-83297000D01*
X206440075Y-83297000D01*
X206597142Y-83328242D01*
G37*
G36*
X200964228Y-82437703D02*
G01*
X201119100Y-82501853D01*
X201258481Y-82594985D01*
X201377015Y-82713519D01*
X201470147Y-82852900D01*
X201534297Y-83007772D01*
X201567000Y-83172184D01*
X201567000Y-83339816D01*
X201534297Y-83504228D01*
X201470147Y-83659100D01*
X201377015Y-83798481D01*
X201258481Y-83917015D01*
X201119100Y-84010147D01*
X200964228Y-84074297D01*
X200799816Y-84107000D01*
X200632184Y-84107000D01*
X200467772Y-84074297D01*
X200312900Y-84010147D01*
X200173519Y-83917015D01*
X200054985Y-83798481D01*
X199961853Y-83659100D01*
X199897703Y-83504228D01*
X199865000Y-83339816D01*
X199865000Y-83172184D01*
X199897703Y-83007772D01*
X199961853Y-82852900D01*
X200054985Y-82713519D01*
X200173519Y-82594985D01*
X200312900Y-82501853D01*
X200467772Y-82437703D01*
X200632184Y-82405000D01*
X200799816Y-82405000D01*
X200964228Y-82437703D01*
G37*
G36*
X198424228Y-82433703D02*
G01*
X198579100Y-82497853D01*
X198718481Y-82590985D01*
X198837015Y-82709519D01*
X198930147Y-82848900D01*
X198994297Y-83003772D01*
X199027000Y-83168184D01*
X199027000Y-83335816D01*
X198994297Y-83500228D01*
X198930147Y-83655100D01*
X198837015Y-83794481D01*
X198718481Y-83913015D01*
X198579100Y-84006147D01*
X198424228Y-84070297D01*
X198259816Y-84103000D01*
X198092184Y-84103000D01*
X197927772Y-84070297D01*
X197772900Y-84006147D01*
X197633519Y-83913015D01*
X197514985Y-83794481D01*
X197421853Y-83655100D01*
X197357703Y-83500228D01*
X197325000Y-83335816D01*
X197325000Y-83168184D01*
X197357703Y-83003772D01*
X197421853Y-82848900D01*
X197514985Y-82709519D01*
X197633519Y-82590985D01*
X197772900Y-82497853D01*
X197927772Y-82433703D01*
X198092184Y-82401000D01*
X198259816Y-82401000D01*
X198424228Y-82433703D01*
G37*
G36*
X152704228Y-81417703D02*
G01*
X152859100Y-81481853D01*
X152998481Y-81574985D01*
X153117015Y-81693519D01*
X153210147Y-81832900D01*
X153274297Y-81987772D01*
X153307000Y-82152184D01*
X153307000Y-82319816D01*
X153274297Y-82484228D01*
X153210147Y-82639100D01*
X153117015Y-82778481D01*
X152998481Y-82897015D01*
X152859100Y-82990147D01*
X152704228Y-83054297D01*
X152539816Y-83087000D01*
X152372184Y-83087000D01*
X152207772Y-83054297D01*
X152052900Y-82990147D01*
X151913519Y-82897015D01*
X151794985Y-82778481D01*
X151701853Y-82639100D01*
X151637703Y-82484228D01*
X151605000Y-82319816D01*
X151605000Y-82152184D01*
X151637703Y-81987772D01*
X151701853Y-81832900D01*
X151794985Y-81693519D01*
X151913519Y-81574985D01*
X152052900Y-81481853D01*
X152207772Y-81417703D01*
X152372184Y-81385000D01*
X152539816Y-81385000D01*
X152704228Y-81417703D01*
G37*
G36*
X206597142Y-80788242D02*
G01*
X206745101Y-80849529D01*
X206878255Y-80938499D01*
X206991501Y-81051745D01*
X207080471Y-81184899D01*
X207141758Y-81332858D01*
X207173000Y-81489925D01*
X207173000Y-81650075D01*
X207141758Y-81807142D01*
X207080471Y-81955101D01*
X206991501Y-82088255D01*
X206878255Y-82201501D01*
X206745101Y-82290471D01*
X206597142Y-82351758D01*
X206440075Y-82383000D01*
X206279925Y-82383000D01*
X206122858Y-82351758D01*
X205974899Y-82290471D01*
X205841745Y-82201501D01*
X205728499Y-82088255D01*
X205639529Y-81955101D01*
X205578242Y-81807142D01*
X205547000Y-81650075D01*
X205547000Y-81489925D01*
X205578242Y-81332858D01*
X205639529Y-81184899D01*
X205728499Y-81051745D01*
X205841745Y-80938499D01*
X205974899Y-80849529D01*
X206122858Y-80788242D01*
X206279925Y-80757000D01*
X206440075Y-80757000D01*
X206597142Y-80788242D01*
G37*
G36*
X200964228Y-79897703D02*
G01*
X201119100Y-79961853D01*
X201258481Y-80054985D01*
X201377015Y-80173519D01*
X201470147Y-80312900D01*
X201534297Y-80467772D01*
X201567000Y-80632184D01*
X201567000Y-80799816D01*
X201534297Y-80964228D01*
X201470147Y-81119100D01*
X201377015Y-81258481D01*
X201258481Y-81377015D01*
X201119100Y-81470147D01*
X200964228Y-81534297D01*
X200799816Y-81567000D01*
X200632184Y-81567000D01*
X200467772Y-81534297D01*
X200312900Y-81470147D01*
X200173519Y-81377015D01*
X200054985Y-81258481D01*
X199961853Y-81119100D01*
X199897703Y-80964228D01*
X199865000Y-80799816D01*
X199865000Y-80632184D01*
X199897703Y-80467772D01*
X199961853Y-80312900D01*
X200054985Y-80173519D01*
X200173519Y-80054985D01*
X200312900Y-79961853D01*
X200467772Y-79897703D01*
X200632184Y-79865000D01*
X200799816Y-79865000D01*
X200964228Y-79897703D01*
G37*
G36*
X198424228Y-79893703D02*
G01*
X198579100Y-79957853D01*
X198718481Y-80050985D01*
X198837015Y-80169519D01*
X198930147Y-80308900D01*
X198994297Y-80463772D01*
X199027000Y-80628184D01*
X199027000Y-80795816D01*
X198994297Y-80960228D01*
X198930147Y-81115100D01*
X198837015Y-81254481D01*
X198718481Y-81373015D01*
X198579100Y-81466147D01*
X198424228Y-81530297D01*
X198259816Y-81563000D01*
X198092184Y-81563000D01*
X197927772Y-81530297D01*
X197772900Y-81466147D01*
X197633519Y-81373015D01*
X197514985Y-81254481D01*
X197421853Y-81115100D01*
X197357703Y-80960228D01*
X197325000Y-80795816D01*
X197325000Y-80628184D01*
X197357703Y-80463772D01*
X197421853Y-80308900D01*
X197514985Y-80169519D01*
X197633519Y-80050985D01*
X197772900Y-79957853D01*
X197927772Y-79893703D01*
X198092184Y-79861000D01*
X198259816Y-79861000D01*
X198424228Y-79893703D01*
G37*
G36*
X148113512Y-79743927D02*
G01*
X148262812Y-79773624D01*
X148426784Y-79841544D01*
X148574354Y-79940147D01*
X148699853Y-80065646D01*
X148798456Y-80213216D01*
X148866376Y-80377188D01*
X148901000Y-80551259D01*
X148901000Y-80728741D01*
X148866376Y-80902812D01*
X148798456Y-81066784D01*
X148699853Y-81214354D01*
X148574354Y-81339853D01*
X148426784Y-81438456D01*
X148262812Y-81506376D01*
X148122450Y-81534295D01*
X148088742Y-81541000D01*
X147911258Y-81541000D01*
X147877550Y-81534295D01*
X147737188Y-81506376D01*
X147573216Y-81438456D01*
X147425646Y-81339853D01*
X147300147Y-81214354D01*
X147201544Y-81066784D01*
X147133624Y-80902812D01*
X147099000Y-80728741D01*
X147099000Y-80551259D01*
X147133624Y-80377188D01*
X147201544Y-80213216D01*
X147300147Y-80065646D01*
X147425646Y-79940147D01*
X147573216Y-79841544D01*
X147737188Y-79773624D01*
X147886488Y-79743927D01*
X147911258Y-79739000D01*
X148088742Y-79739000D01*
X148113512Y-79743927D01*
G37*
G36*
X145573512Y-79743927D02*
G01*
X145722812Y-79773624D01*
X145886784Y-79841544D01*
X146034354Y-79940147D01*
X146159853Y-80065646D01*
X146258456Y-80213216D01*
X146326376Y-80377188D01*
X146361000Y-80551259D01*
X146361000Y-80728741D01*
X146326376Y-80902812D01*
X146258456Y-81066784D01*
X146159853Y-81214354D01*
X146034354Y-81339853D01*
X145886784Y-81438456D01*
X145722812Y-81506376D01*
X145582450Y-81534295D01*
X145548742Y-81541000D01*
X145371258Y-81541000D01*
X145337550Y-81534295D01*
X145197188Y-81506376D01*
X145033216Y-81438456D01*
X144885646Y-81339853D01*
X144760147Y-81214354D01*
X144661544Y-81066784D01*
X144593624Y-80902812D01*
X144559000Y-80728741D01*
X144559000Y-80551259D01*
X144593624Y-80377188D01*
X144661544Y-80213216D01*
X144760147Y-80065646D01*
X144885646Y-79940147D01*
X145033216Y-79841544D01*
X145197188Y-79773624D01*
X145346488Y-79743927D01*
X145371258Y-79739000D01*
X145548742Y-79739000D01*
X145573512Y-79743927D01*
G37*
G36*
X211113512Y-79743927D02*
G01*
X211262812Y-79773624D01*
X211426784Y-79841544D01*
X211574354Y-79940147D01*
X211699853Y-80065646D01*
X211798456Y-80213216D01*
X211866376Y-80377188D01*
X211901000Y-80551259D01*
X211901000Y-80728741D01*
X211866376Y-80902812D01*
X211798456Y-81066784D01*
X211699853Y-81214354D01*
X211574354Y-81339853D01*
X211426784Y-81438456D01*
X211262812Y-81506376D01*
X211122450Y-81534295D01*
X211088742Y-81541000D01*
X210911258Y-81541000D01*
X210877550Y-81534295D01*
X210737188Y-81506376D01*
X210573216Y-81438456D01*
X210425646Y-81339853D01*
X210300147Y-81214354D01*
X210201544Y-81066784D01*
X210133624Y-80902812D01*
X210099000Y-80728741D01*
X210099000Y-80551259D01*
X210133624Y-80377188D01*
X210201544Y-80213216D01*
X210300147Y-80065646D01*
X210425646Y-79940147D01*
X210573216Y-79841544D01*
X210737188Y-79773624D01*
X210886488Y-79743927D01*
X210911258Y-79739000D01*
X211088742Y-79739000D01*
X211113512Y-79743927D01*
G37*
G36*
X213653512Y-79743927D02*
G01*
X213802812Y-79773624D01*
X213966784Y-79841544D01*
X214114354Y-79940147D01*
X214239853Y-80065646D01*
X214338456Y-80213216D01*
X214406376Y-80377188D01*
X214441000Y-80551259D01*
X214441000Y-80728741D01*
X214406376Y-80902812D01*
X214338456Y-81066784D01*
X214239853Y-81214354D01*
X214114354Y-81339853D01*
X213966784Y-81438456D01*
X213802812Y-81506376D01*
X213662450Y-81534295D01*
X213628742Y-81541000D01*
X213451258Y-81541000D01*
X213417550Y-81534295D01*
X213277188Y-81506376D01*
X213113216Y-81438456D01*
X212965646Y-81339853D01*
X212840147Y-81214354D01*
X212741544Y-81066784D01*
X212673624Y-80902812D01*
X212639000Y-80728741D01*
X212639000Y-80551259D01*
X212673624Y-80377188D01*
X212741544Y-80213216D01*
X212840147Y-80065646D01*
X212965646Y-79940147D01*
X213113216Y-79841544D01*
X213277188Y-79773624D01*
X213426488Y-79743927D01*
X213451258Y-79739000D01*
X213628742Y-79739000D01*
X213653512Y-79743927D01*
G37*
G36*
X152704228Y-78877703D02*
G01*
X152859100Y-78941853D01*
X152998481Y-79034985D01*
X153117015Y-79153519D01*
X153210147Y-79292900D01*
X153274297Y-79447772D01*
X153307000Y-79612184D01*
X153307000Y-79779816D01*
X153274297Y-79944228D01*
X153210147Y-80099100D01*
X153117015Y-80238481D01*
X152998481Y-80357015D01*
X152859100Y-80450147D01*
X152704228Y-80514297D01*
X152539816Y-80547000D01*
X152372184Y-80547000D01*
X152207772Y-80514297D01*
X152052900Y-80450147D01*
X151913519Y-80357015D01*
X151794985Y-80238481D01*
X151701853Y-80099100D01*
X151637703Y-79944228D01*
X151605000Y-79779816D01*
X151605000Y-79612184D01*
X151637703Y-79447772D01*
X151701853Y-79292900D01*
X151794985Y-79153519D01*
X151913519Y-79034985D01*
X152052900Y-78941853D01*
X152207772Y-78877703D01*
X152372184Y-78845000D01*
X152539816Y-78845000D01*
X152704228Y-78877703D01*
G37*
G36*
X206597142Y-78248242D02*
G01*
X206745101Y-78309529D01*
X206878255Y-78398499D01*
X206991501Y-78511745D01*
X207080471Y-78644899D01*
X207141758Y-78792858D01*
X207173000Y-78949925D01*
X207173000Y-79110075D01*
X207141758Y-79267142D01*
X207080471Y-79415101D01*
X206991501Y-79548255D01*
X206878255Y-79661501D01*
X206745101Y-79750471D01*
X206597142Y-79811758D01*
X206440075Y-79843000D01*
X206279925Y-79843000D01*
X206122858Y-79811758D01*
X205974899Y-79750471D01*
X205841745Y-79661501D01*
X205728499Y-79548255D01*
X205639529Y-79415101D01*
X205578242Y-79267142D01*
X205547000Y-79110075D01*
X205547000Y-78949925D01*
X205578242Y-78792858D01*
X205639529Y-78644899D01*
X205728499Y-78511745D01*
X205841745Y-78398499D01*
X205974899Y-78309529D01*
X206122858Y-78248242D01*
X206279925Y-78217000D01*
X206440075Y-78217000D01*
X206597142Y-78248242D01*
G37*
G36*
X200964228Y-77357703D02*
G01*
X201119100Y-77421853D01*
X201258481Y-77514985D01*
X201377015Y-77633519D01*
X201470147Y-77772900D01*
X201534297Y-77927772D01*
X201567000Y-78092184D01*
X201567000Y-78259816D01*
X201534297Y-78424228D01*
X201470147Y-78579100D01*
X201377015Y-78718481D01*
X201258481Y-78837015D01*
X201119100Y-78930147D01*
X200964228Y-78994297D01*
X200799816Y-79027000D01*
X200632184Y-79027000D01*
X200467772Y-78994297D01*
X200312900Y-78930147D01*
X200173519Y-78837015D01*
X200054985Y-78718481D01*
X199961853Y-78579100D01*
X199897703Y-78424228D01*
X199865000Y-78259816D01*
X199865000Y-78092184D01*
X199897703Y-77927772D01*
X199961853Y-77772900D01*
X200054985Y-77633519D01*
X200173519Y-77514985D01*
X200312900Y-77421853D01*
X200467772Y-77357703D01*
X200632184Y-77325000D01*
X200799816Y-77325000D01*
X200964228Y-77357703D01*
G37*
G36*
X198424228Y-77353703D02*
G01*
X198579100Y-77417853D01*
X198718481Y-77510985D01*
X198837015Y-77629519D01*
X198930147Y-77768900D01*
X198994297Y-77923772D01*
X199027000Y-78088184D01*
X199027000Y-78255816D01*
X198994297Y-78420228D01*
X198930147Y-78575100D01*
X198837015Y-78714481D01*
X198718481Y-78833015D01*
X198579100Y-78926147D01*
X198424228Y-78990297D01*
X198259816Y-79023000D01*
X198092184Y-79023000D01*
X197927772Y-78990297D01*
X197772900Y-78926147D01*
X197633519Y-78833015D01*
X197514985Y-78714481D01*
X197421853Y-78575100D01*
X197357703Y-78420228D01*
X197325000Y-78255816D01*
X197325000Y-78088184D01*
X197357703Y-77923772D01*
X197421853Y-77768900D01*
X197514985Y-77629519D01*
X197633519Y-77510985D01*
X197772900Y-77417853D01*
X197927772Y-77353703D01*
X198092184Y-77321000D01*
X198259816Y-77321000D01*
X198424228Y-77353703D01*
G37*
G36*
X213653512Y-77203927D02*
G01*
X213802812Y-77233624D01*
X213966784Y-77301544D01*
X214114354Y-77400147D01*
X214239853Y-77525646D01*
X214338456Y-77673216D01*
X214406376Y-77837188D01*
X214441000Y-78011259D01*
X214441000Y-78188741D01*
X214406376Y-78362812D01*
X214338456Y-78526784D01*
X214239853Y-78674354D01*
X214114354Y-78799853D01*
X213966784Y-78898456D01*
X213802812Y-78966376D01*
X213662450Y-78994295D01*
X213628742Y-79001000D01*
X213451258Y-79001000D01*
X213417550Y-78994295D01*
X213277188Y-78966376D01*
X213113216Y-78898456D01*
X212965646Y-78799853D01*
X212840147Y-78674354D01*
X212741544Y-78526784D01*
X212673624Y-78362812D01*
X212639000Y-78188741D01*
X212639000Y-78011259D01*
X212673624Y-77837188D01*
X212741544Y-77673216D01*
X212840147Y-77525646D01*
X212965646Y-77400147D01*
X213113216Y-77301544D01*
X213277188Y-77233624D01*
X213426488Y-77203927D01*
X213451258Y-77199000D01*
X213628742Y-77199000D01*
X213653512Y-77203927D01*
G37*
G36*
X211113512Y-77203927D02*
G01*
X211262812Y-77233624D01*
X211426784Y-77301544D01*
X211574354Y-77400147D01*
X211699853Y-77525646D01*
X211798456Y-77673216D01*
X211866376Y-77837188D01*
X211901000Y-78011259D01*
X211901000Y-78188741D01*
X211866376Y-78362812D01*
X211798456Y-78526784D01*
X211699853Y-78674354D01*
X211574354Y-78799853D01*
X211426784Y-78898456D01*
X211262812Y-78966376D01*
X211122450Y-78994295D01*
X211088742Y-79001000D01*
X210911258Y-79001000D01*
X210877550Y-78994295D01*
X210737188Y-78966376D01*
X210573216Y-78898456D01*
X210425646Y-78799853D01*
X210300147Y-78674354D01*
X210201544Y-78526784D01*
X210133624Y-78362812D01*
X210099000Y-78188741D01*
X210099000Y-78011259D01*
X210133624Y-77837188D01*
X210201544Y-77673216D01*
X210300147Y-77525646D01*
X210425646Y-77400147D01*
X210573216Y-77301544D01*
X210737188Y-77233624D01*
X210886488Y-77203927D01*
X210911258Y-77199000D01*
X211088742Y-77199000D01*
X211113512Y-77203927D01*
G37*
G36*
X148113512Y-77203927D02*
G01*
X148262812Y-77233624D01*
X148426784Y-77301544D01*
X148574354Y-77400147D01*
X148699853Y-77525646D01*
X148798456Y-77673216D01*
X148866376Y-77837188D01*
X148901000Y-78011259D01*
X148901000Y-78188741D01*
X148866376Y-78362812D01*
X148798456Y-78526784D01*
X148699853Y-78674354D01*
X148574354Y-78799853D01*
X148426784Y-78898456D01*
X148262812Y-78966376D01*
X148122450Y-78994295D01*
X148088742Y-79001000D01*
X147911258Y-79001000D01*
X147877550Y-78994295D01*
X147737188Y-78966376D01*
X147573216Y-78898456D01*
X147425646Y-78799853D01*
X147300147Y-78674354D01*
X147201544Y-78526784D01*
X147133624Y-78362812D01*
X147099000Y-78188741D01*
X147099000Y-78011259D01*
X147133624Y-77837188D01*
X147201544Y-77673216D01*
X147300147Y-77525646D01*
X147425646Y-77400147D01*
X147573216Y-77301544D01*
X147737188Y-77233624D01*
X147886488Y-77203927D01*
X147911258Y-77199000D01*
X148088742Y-77199000D01*
X148113512Y-77203927D01*
G37*
G36*
X145573512Y-77203927D02*
G01*
X145722812Y-77233624D01*
X145886784Y-77301544D01*
X146034354Y-77400147D01*
X146159853Y-77525646D01*
X146258456Y-77673216D01*
X146326376Y-77837188D01*
X146361000Y-78011259D01*
X146361000Y-78188741D01*
X146326376Y-78362812D01*
X146258456Y-78526784D01*
X146159853Y-78674354D01*
X146034354Y-78799853D01*
X145886784Y-78898456D01*
X145722812Y-78966376D01*
X145582450Y-78994295D01*
X145548742Y-79001000D01*
X145371258Y-79001000D01*
X145337550Y-78994295D01*
X145197188Y-78966376D01*
X145033216Y-78898456D01*
X144885646Y-78799853D01*
X144760147Y-78674354D01*
X144661544Y-78526784D01*
X144593624Y-78362812D01*
X144559000Y-78188741D01*
X144559000Y-78011259D01*
X144593624Y-77837188D01*
X144661544Y-77673216D01*
X144760147Y-77525646D01*
X144885646Y-77400147D01*
X145033216Y-77301544D01*
X145197188Y-77233624D01*
X145346488Y-77203927D01*
X145371258Y-77199000D01*
X145548742Y-77199000D01*
X145573512Y-77203927D01*
G37*
G36*
X206597142Y-75708242D02*
G01*
X206745101Y-75769529D01*
X206878255Y-75858499D01*
X206991501Y-75971745D01*
X207080471Y-76104899D01*
X207141758Y-76252858D01*
X207173000Y-76409925D01*
X207173000Y-76570075D01*
X207141758Y-76727142D01*
X207080471Y-76875101D01*
X206991501Y-77008255D01*
X206878255Y-77121501D01*
X206745101Y-77210471D01*
X206597142Y-77271758D01*
X206440075Y-77303000D01*
X206279925Y-77303000D01*
X206122858Y-77271758D01*
X205974899Y-77210471D01*
X205841745Y-77121501D01*
X205728499Y-77008255D01*
X205639529Y-76875101D01*
X205578242Y-76727142D01*
X205547000Y-76570075D01*
X205547000Y-76409925D01*
X205578242Y-76252858D01*
X205639529Y-76104899D01*
X205728499Y-75971745D01*
X205841745Y-75858499D01*
X205974899Y-75769529D01*
X206122858Y-75708242D01*
X206279925Y-75677000D01*
X206440075Y-75677000D01*
X206597142Y-75708242D01*
G37*
G36*
X200964228Y-74817703D02*
G01*
X201119100Y-74881853D01*
X201258481Y-74974985D01*
X201377015Y-75093519D01*
X201470147Y-75232900D01*
X201534297Y-75387772D01*
X201567000Y-75552184D01*
X201567000Y-75719816D01*
X201534297Y-75884228D01*
X201470147Y-76039100D01*
X201377015Y-76178481D01*
X201258481Y-76297015D01*
X201119100Y-76390147D01*
X200964228Y-76454297D01*
X200799816Y-76487000D01*
X200632184Y-76487000D01*
X200467772Y-76454297D01*
X200312900Y-76390147D01*
X200173519Y-76297015D01*
X200054985Y-76178481D01*
X199961853Y-76039100D01*
X199897703Y-75884228D01*
X199865000Y-75719816D01*
X199865000Y-75552184D01*
X199897703Y-75387772D01*
X199961853Y-75232900D01*
X200054985Y-75093519D01*
X200173519Y-74974985D01*
X200312900Y-74881853D01*
X200467772Y-74817703D01*
X200632184Y-74785000D01*
X200799816Y-74785000D01*
X200964228Y-74817703D01*
G37*
G36*
X198424228Y-74813703D02*
G01*
X198579100Y-74877853D01*
X198718481Y-74970985D01*
X198837015Y-75089519D01*
X198930147Y-75228900D01*
X198994297Y-75383772D01*
X199027000Y-75548184D01*
X199027000Y-75715816D01*
X198994297Y-75880228D01*
X198930147Y-76035100D01*
X198837015Y-76174481D01*
X198718481Y-76293015D01*
X198579100Y-76386147D01*
X198424228Y-76450297D01*
X198259816Y-76483000D01*
X198092184Y-76483000D01*
X197927772Y-76450297D01*
X197772900Y-76386147D01*
X197633519Y-76293015D01*
X197514985Y-76174481D01*
X197421853Y-76035100D01*
X197357703Y-75880228D01*
X197325000Y-75715816D01*
X197325000Y-75548184D01*
X197357703Y-75383772D01*
X197421853Y-75228900D01*
X197514985Y-75089519D01*
X197633519Y-74970985D01*
X197772900Y-74877853D01*
X197927772Y-74813703D01*
X198092184Y-74781000D01*
X198259816Y-74781000D01*
X198424228Y-74813703D01*
G37*
G36*
X213653512Y-74663927D02*
G01*
X213802812Y-74693624D01*
X213966784Y-74761544D01*
X214114354Y-74860147D01*
X214239853Y-74985646D01*
X214338456Y-75133216D01*
X214406376Y-75297188D01*
X214441000Y-75471259D01*
X214441000Y-75648741D01*
X214406376Y-75822812D01*
X214338456Y-75986784D01*
X214239853Y-76134354D01*
X214114354Y-76259853D01*
X213966784Y-76358456D01*
X213802812Y-76426376D01*
X213662450Y-76454295D01*
X213628742Y-76461000D01*
X213451258Y-76461000D01*
X213417550Y-76454295D01*
X213277188Y-76426376D01*
X213113216Y-76358456D01*
X212965646Y-76259853D01*
X212840147Y-76134354D01*
X212741544Y-75986784D01*
X212673624Y-75822812D01*
X212639000Y-75648741D01*
X212639000Y-75471259D01*
X212673624Y-75297188D01*
X212741544Y-75133216D01*
X212840147Y-74985646D01*
X212965646Y-74860147D01*
X213113216Y-74761544D01*
X213277188Y-74693624D01*
X213426488Y-74663927D01*
X213451258Y-74659000D01*
X213628742Y-74659000D01*
X213653512Y-74663927D01*
G37*
G36*
X211113512Y-74663927D02*
G01*
X211262812Y-74693624D01*
X211426784Y-74761544D01*
X211574354Y-74860147D01*
X211699853Y-74985646D01*
X211798456Y-75133216D01*
X211866376Y-75297188D01*
X211901000Y-75471259D01*
X211901000Y-75648741D01*
X211866376Y-75822812D01*
X211798456Y-75986784D01*
X211699853Y-76134354D01*
X211574354Y-76259853D01*
X211426784Y-76358456D01*
X211262812Y-76426376D01*
X211122450Y-76454295D01*
X211088742Y-76461000D01*
X210911258Y-76461000D01*
X210877550Y-76454295D01*
X210737188Y-76426376D01*
X210573216Y-76358456D01*
X210425646Y-76259853D01*
X210300147Y-76134354D01*
X210201544Y-75986784D01*
X210133624Y-75822812D01*
X210099000Y-75648741D01*
X210099000Y-75471259D01*
X210133624Y-75297188D01*
X210201544Y-75133216D01*
X210300147Y-74985646D01*
X210425646Y-74860147D01*
X210573216Y-74761544D01*
X210737188Y-74693624D01*
X210886488Y-74663927D01*
X210911258Y-74659000D01*
X211088742Y-74659000D01*
X211113512Y-74663927D01*
G37*
G36*
X148113512Y-74663927D02*
G01*
X148262812Y-74693624D01*
X148426784Y-74761544D01*
X148574354Y-74860147D01*
X148699853Y-74985646D01*
X148798456Y-75133216D01*
X148866376Y-75297188D01*
X148901000Y-75471259D01*
X148901000Y-75648741D01*
X148866376Y-75822812D01*
X148798456Y-75986784D01*
X148699853Y-76134354D01*
X148574354Y-76259853D01*
X148426784Y-76358456D01*
X148262812Y-76426376D01*
X148122450Y-76454295D01*
X148088742Y-76461000D01*
X147911258Y-76461000D01*
X147877550Y-76454295D01*
X147737188Y-76426376D01*
X147573216Y-76358456D01*
X147425646Y-76259853D01*
X147300147Y-76134354D01*
X147201544Y-75986784D01*
X147133624Y-75822812D01*
X147099000Y-75648741D01*
X147099000Y-75471259D01*
X147133624Y-75297188D01*
X147201544Y-75133216D01*
X147300147Y-74985646D01*
X147425646Y-74860147D01*
X147573216Y-74761544D01*
X147737188Y-74693624D01*
X147886488Y-74663927D01*
X147911258Y-74659000D01*
X148088742Y-74659000D01*
X148113512Y-74663927D01*
G37*
G36*
X145573512Y-74663927D02*
G01*
X145722812Y-74693624D01*
X145886784Y-74761544D01*
X146034354Y-74860147D01*
X146159853Y-74985646D01*
X146258456Y-75133216D01*
X146326376Y-75297188D01*
X146361000Y-75471259D01*
X146361000Y-75648741D01*
X146326376Y-75822812D01*
X146258456Y-75986784D01*
X146159853Y-76134354D01*
X146034354Y-76259853D01*
X145886784Y-76358456D01*
X145722812Y-76426376D01*
X145582450Y-76454295D01*
X145548742Y-76461000D01*
X145371258Y-76461000D01*
X145337550Y-76454295D01*
X145197188Y-76426376D01*
X145033216Y-76358456D01*
X144885646Y-76259853D01*
X144760147Y-76134354D01*
X144661544Y-75986784D01*
X144593624Y-75822812D01*
X144559000Y-75648741D01*
X144559000Y-75471259D01*
X144593624Y-75297188D01*
X144661544Y-75133216D01*
X144760147Y-74985646D01*
X144885646Y-74860147D01*
X145033216Y-74761544D01*
X145197188Y-74693624D01*
X145346488Y-74663927D01*
X145371258Y-74659000D01*
X145548742Y-74659000D01*
X145573512Y-74663927D01*
G37*
G36*
X200964228Y-72277703D02*
G01*
X201119100Y-72341853D01*
X201258481Y-72434985D01*
X201377015Y-72553519D01*
X201470147Y-72692900D01*
X201534297Y-72847772D01*
X201567000Y-73012184D01*
X201567000Y-73179816D01*
X201534297Y-73344228D01*
X201470147Y-73499100D01*
X201377015Y-73638481D01*
X201258481Y-73757015D01*
X201119100Y-73850147D01*
X200964228Y-73914297D01*
X200799816Y-73947000D01*
X200632184Y-73947000D01*
X200467772Y-73914297D01*
X200312900Y-73850147D01*
X200173519Y-73757015D01*
X200054985Y-73638481D01*
X199961853Y-73499100D01*
X199897703Y-73344228D01*
X199865000Y-73179816D01*
X199865000Y-73012184D01*
X199897703Y-72847772D01*
X199961853Y-72692900D01*
X200054985Y-72553519D01*
X200173519Y-72434985D01*
X200312900Y-72341853D01*
X200467772Y-72277703D01*
X200632184Y-72245000D01*
X200799816Y-72245000D01*
X200964228Y-72277703D01*
G37*
G36*
X148113512Y-72123927D02*
G01*
X148262812Y-72153624D01*
X148426784Y-72221544D01*
X148574354Y-72320147D01*
X148699853Y-72445646D01*
X148798456Y-72593216D01*
X148866376Y-72757188D01*
X148901000Y-72931259D01*
X148901000Y-73108741D01*
X148866376Y-73282812D01*
X148798456Y-73446784D01*
X148699853Y-73594354D01*
X148574354Y-73719853D01*
X148426784Y-73818456D01*
X148262812Y-73886376D01*
X148122450Y-73914295D01*
X148088742Y-73921000D01*
X147911258Y-73921000D01*
X147877550Y-73914295D01*
X147737188Y-73886376D01*
X147573216Y-73818456D01*
X147425646Y-73719853D01*
X147300147Y-73594354D01*
X147201544Y-73446784D01*
X147133624Y-73282812D01*
X147099000Y-73108741D01*
X147099000Y-72931259D01*
X147133624Y-72757188D01*
X147201544Y-72593216D01*
X147300147Y-72445646D01*
X147425646Y-72320147D01*
X147573216Y-72221544D01*
X147737188Y-72153624D01*
X147886488Y-72123927D01*
X147911258Y-72119000D01*
X148088742Y-72119000D01*
X148113512Y-72123927D01*
G37*
G36*
X145573512Y-72123927D02*
G01*
X145722812Y-72153624D01*
X145886784Y-72221544D01*
X146034354Y-72320147D01*
X146159853Y-72445646D01*
X146258456Y-72593216D01*
X146326376Y-72757188D01*
X146361000Y-72931259D01*
X146361000Y-73108741D01*
X146326376Y-73282812D01*
X146258456Y-73446784D01*
X146159853Y-73594354D01*
X146034354Y-73719853D01*
X145886784Y-73818456D01*
X145722812Y-73886376D01*
X145582450Y-73914295D01*
X145548742Y-73921000D01*
X145371258Y-73921000D01*
X145337550Y-73914295D01*
X145197188Y-73886376D01*
X145033216Y-73818456D01*
X144885646Y-73719853D01*
X144760147Y-73594354D01*
X144661544Y-73446784D01*
X144593624Y-73282812D01*
X144559000Y-73108741D01*
X144559000Y-72931259D01*
X144593624Y-72757188D01*
X144661544Y-72593216D01*
X144760147Y-72445646D01*
X144885646Y-72320147D01*
X145033216Y-72221544D01*
X145197188Y-72153624D01*
X145346488Y-72123927D01*
X145371258Y-72119000D01*
X145548742Y-72119000D01*
X145573512Y-72123927D01*
G37*
G36*
X211113512Y-72123927D02*
G01*
X211262812Y-72153624D01*
X211426784Y-72221544D01*
X211574354Y-72320147D01*
X211699853Y-72445646D01*
X211798456Y-72593216D01*
X211866376Y-72757188D01*
X211901000Y-72931259D01*
X211901000Y-73108741D01*
X211866376Y-73282812D01*
X211798456Y-73446784D01*
X211699853Y-73594354D01*
X211574354Y-73719853D01*
X211426784Y-73818456D01*
X211262812Y-73886376D01*
X211122450Y-73914295D01*
X211088742Y-73921000D01*
X210911258Y-73921000D01*
X210877550Y-73914295D01*
X210737188Y-73886376D01*
X210573216Y-73818456D01*
X210425646Y-73719853D01*
X210300147Y-73594354D01*
X210201544Y-73446784D01*
X210133624Y-73282812D01*
X210099000Y-73108741D01*
X210099000Y-72931259D01*
X210133624Y-72757188D01*
X210201544Y-72593216D01*
X210300147Y-72445646D01*
X210425646Y-72320147D01*
X210573216Y-72221544D01*
X210737188Y-72153624D01*
X210886488Y-72123927D01*
X210911258Y-72119000D01*
X211088742Y-72119000D01*
X211113512Y-72123927D01*
G37*
G36*
X213653512Y-72123927D02*
G01*
X213802812Y-72153624D01*
X213966784Y-72221544D01*
X214114354Y-72320147D01*
X214239853Y-72445646D01*
X214338456Y-72593216D01*
X214406376Y-72757188D01*
X214441000Y-72931259D01*
X214441000Y-73108741D01*
X214406376Y-73282812D01*
X214338456Y-73446784D01*
X214239853Y-73594354D01*
X214114354Y-73719853D01*
X213966784Y-73818456D01*
X213802812Y-73886376D01*
X213662450Y-73914295D01*
X213628742Y-73921000D01*
X213451258Y-73921000D01*
X213417550Y-73914295D01*
X213277188Y-73886376D01*
X213113216Y-73818456D01*
X212965646Y-73719853D01*
X212840147Y-73594354D01*
X212741544Y-73446784D01*
X212673624Y-73282812D01*
X212639000Y-73108741D01*
X212639000Y-72931259D01*
X212673624Y-72757188D01*
X212741544Y-72593216D01*
X212840147Y-72445646D01*
X212965646Y-72320147D01*
X213113216Y-72221544D01*
X213277188Y-72153624D01*
X213426488Y-72123927D01*
X213451258Y-72119000D01*
X213628742Y-72119000D01*
X213653512Y-72123927D01*
G37*
G36*
X200964228Y-69733703D02*
G01*
X201119100Y-69797853D01*
X201258481Y-69890985D01*
X201377015Y-70009519D01*
X201470147Y-70148900D01*
X201534297Y-70303772D01*
X201567000Y-70468184D01*
X201567000Y-70635816D01*
X201534297Y-70800228D01*
X201470147Y-70955100D01*
X201377015Y-71094481D01*
X201258481Y-71213015D01*
X201119100Y-71306147D01*
X200964228Y-71370297D01*
X200799816Y-71403000D01*
X200632184Y-71403000D01*
X200467772Y-71370297D01*
X200312900Y-71306147D01*
X200173519Y-71213015D01*
X200054985Y-71094481D01*
X199961853Y-70955100D01*
X199897703Y-70800228D01*
X199865000Y-70635816D01*
X199865000Y-70468184D01*
X199897703Y-70303772D01*
X199961853Y-70148900D01*
X200054985Y-70009519D01*
X200173519Y-69890985D01*
X200312900Y-69797853D01*
X200467772Y-69733703D01*
X200632184Y-69701000D01*
X200799816Y-69701000D01*
X200964228Y-69733703D01*
G37*
G36*
X146361000Y-71381000D02*
G01*
X144559000Y-71381000D01*
X144559000Y-69579000D01*
X146361000Y-69579000D01*
X146361000Y-71381000D01*
G37*
G36*
X213653512Y-69583927D02*
G01*
X213802812Y-69613624D01*
X213966784Y-69681544D01*
X214114354Y-69780147D01*
X214239853Y-69905646D01*
X214338456Y-70053216D01*
X214406376Y-70217188D01*
X214441000Y-70391259D01*
X214441000Y-70568741D01*
X214406376Y-70742812D01*
X214338456Y-70906784D01*
X214239853Y-71054354D01*
X214114354Y-71179853D01*
X213966784Y-71278456D01*
X213802812Y-71346376D01*
X213653512Y-71376073D01*
X213628742Y-71381000D01*
X213451258Y-71381000D01*
X213426488Y-71376073D01*
X213277188Y-71346376D01*
X213113216Y-71278456D01*
X212965646Y-71179853D01*
X212840147Y-71054354D01*
X212741544Y-70906784D01*
X212673624Y-70742812D01*
X212639000Y-70568741D01*
X212639000Y-70391259D01*
X212673624Y-70217188D01*
X212741544Y-70053216D01*
X212840147Y-69905646D01*
X212965646Y-69780147D01*
X213113216Y-69681544D01*
X213277188Y-69613624D01*
X213426488Y-69583927D01*
X213451258Y-69579000D01*
X213628742Y-69579000D01*
X213653512Y-69583927D01*
G37*
G36*
X211901000Y-71381000D02*
G01*
X210099000Y-71381000D01*
X210099000Y-69579000D01*
X211901000Y-69579000D01*
X211901000Y-71381000D01*
G37*
G36*
X148113512Y-69583927D02*
G01*
X148262812Y-69613624D01*
X148426784Y-69681544D01*
X148574354Y-69780147D01*
X148699853Y-69905646D01*
X148798456Y-70053216D01*
X148866376Y-70217188D01*
X148901000Y-70391259D01*
X148901000Y-70568741D01*
X148866376Y-70742812D01*
X148798456Y-70906784D01*
X148699853Y-71054354D01*
X148574354Y-71179853D01*
X148426784Y-71278456D01*
X148262812Y-71346376D01*
X148113512Y-71376073D01*
X148088742Y-71381000D01*
X147911258Y-71381000D01*
X147886488Y-71376073D01*
X147737188Y-71346376D01*
X147573216Y-71278456D01*
X147425646Y-71179853D01*
X147300147Y-71054354D01*
X147201544Y-70906784D01*
X147133624Y-70742812D01*
X147099000Y-70568741D01*
X147099000Y-70391259D01*
X147133624Y-70217188D01*
X147201544Y-70053216D01*
X147300147Y-69905646D01*
X147425646Y-69780147D01*
X147573216Y-69681544D01*
X147737188Y-69613624D01*
X147886488Y-69583927D01*
X147911258Y-69579000D01*
X148088742Y-69579000D01*
X148113512Y-69583927D01*
G37*
G36*
X148113512Y-64263927D02*
G01*
X148262812Y-64293624D01*
X148426784Y-64361544D01*
X148574354Y-64460147D01*
X148699853Y-64585646D01*
X148798456Y-64733216D01*
X148866376Y-64897188D01*
X148901000Y-65071259D01*
X148901000Y-65248741D01*
X148866376Y-65422812D01*
X148798456Y-65586784D01*
X148699853Y-65734354D01*
X148574354Y-65859853D01*
X148426784Y-65958456D01*
X148262812Y-66026376D01*
X148113512Y-66056073D01*
X148088742Y-66061000D01*
X147911258Y-66061000D01*
X147886488Y-66056073D01*
X147737188Y-66026376D01*
X147573216Y-65958456D01*
X147425646Y-65859853D01*
X147300147Y-65734354D01*
X147201544Y-65586784D01*
X147133624Y-65422812D01*
X147099000Y-65248741D01*
X147099000Y-65071259D01*
X147133624Y-64897188D01*
X147201544Y-64733216D01*
X147300147Y-64585646D01*
X147425646Y-64460147D01*
X147573216Y-64361544D01*
X147737188Y-64293624D01*
X147886488Y-64263927D01*
X147911258Y-64259000D01*
X148088742Y-64259000D01*
X148113512Y-64263927D01*
G37*
G36*
X145573512Y-64263927D02*
G01*
X145722812Y-64293624D01*
X145886784Y-64361544D01*
X146034354Y-64460147D01*
X146159853Y-64585646D01*
X146258456Y-64733216D01*
X146326376Y-64897188D01*
X146361000Y-65071259D01*
X146361000Y-65248741D01*
X146326376Y-65422812D01*
X146258456Y-65586784D01*
X146159853Y-65734354D01*
X146034354Y-65859853D01*
X145886784Y-65958456D01*
X145722812Y-66026376D01*
X145573512Y-66056073D01*
X145548742Y-66061000D01*
X145371258Y-66061000D01*
X145346488Y-66056073D01*
X145197188Y-66026376D01*
X145033216Y-65958456D01*
X144885646Y-65859853D01*
X144760147Y-65734354D01*
X144661544Y-65586784D01*
X144593624Y-65422812D01*
X144559000Y-65248741D01*
X144559000Y-65071259D01*
X144593624Y-64897188D01*
X144661544Y-64733216D01*
X144760147Y-64585646D01*
X144885646Y-64460147D01*
X145033216Y-64361544D01*
X145197188Y-64293624D01*
X145346488Y-64263927D01*
X145371258Y-64259000D01*
X145548742Y-64259000D01*
X145573512Y-64263927D01*
G37*
G36*
X211113512Y-64263927D02*
G01*
X211262812Y-64293624D01*
X211426784Y-64361544D01*
X211574354Y-64460147D01*
X211699853Y-64585646D01*
X211798456Y-64733216D01*
X211866376Y-64897188D01*
X211901000Y-65071259D01*
X211901000Y-65248741D01*
X211866376Y-65422812D01*
X211798456Y-65586784D01*
X211699853Y-65734354D01*
X211574354Y-65859853D01*
X211426784Y-65958456D01*
X211262812Y-66026376D01*
X211113512Y-66056073D01*
X211088742Y-66061000D01*
X210911258Y-66061000D01*
X210886488Y-66056073D01*
X210737188Y-66026376D01*
X210573216Y-65958456D01*
X210425646Y-65859853D01*
X210300147Y-65734354D01*
X210201544Y-65586784D01*
X210133624Y-65422812D01*
X210099000Y-65248741D01*
X210099000Y-65071259D01*
X210133624Y-64897188D01*
X210201544Y-64733216D01*
X210300147Y-64585646D01*
X210425646Y-64460147D01*
X210573216Y-64361544D01*
X210737188Y-64293624D01*
X210886488Y-64263927D01*
X210911258Y-64259000D01*
X211088742Y-64259000D01*
X211113512Y-64263927D01*
G37*
G36*
X213653512Y-64263927D02*
G01*
X213802812Y-64293624D01*
X213966784Y-64361544D01*
X214114354Y-64460147D01*
X214239853Y-64585646D01*
X214338456Y-64733216D01*
X214406376Y-64897188D01*
X214441000Y-65071259D01*
X214441000Y-65248741D01*
X214406376Y-65422812D01*
X214338456Y-65586784D01*
X214239853Y-65734354D01*
X214114354Y-65859853D01*
X213966784Y-65958456D01*
X213802812Y-66026376D01*
X213653512Y-66056073D01*
X213628742Y-66061000D01*
X213451258Y-66061000D01*
X213426488Y-66056073D01*
X213277188Y-66026376D01*
X213113216Y-65958456D01*
X212965646Y-65859853D01*
X212840147Y-65734354D01*
X212741544Y-65586784D01*
X212673624Y-65422812D01*
X212639000Y-65248741D01*
X212639000Y-65071259D01*
X212673624Y-64897188D01*
X212741544Y-64733216D01*
X212840147Y-64585646D01*
X212965646Y-64460147D01*
X213113216Y-64361544D01*
X213277188Y-64293624D01*
X213426488Y-64263927D01*
X213451258Y-64259000D01*
X213628742Y-64259000D01*
X213653512Y-64263927D01*
G37*
G36*
X148113512Y-61723927D02*
G01*
X148262812Y-61753624D01*
X148426784Y-61821544D01*
X148574354Y-61920147D01*
X148699853Y-62045646D01*
X148798456Y-62193216D01*
X148866376Y-62357188D01*
X148901000Y-62531259D01*
X148901000Y-62708741D01*
X148866376Y-62882812D01*
X148798456Y-63046784D01*
X148699853Y-63194354D01*
X148574354Y-63319853D01*
X148426784Y-63418456D01*
X148262812Y-63486376D01*
X148113512Y-63516073D01*
X148088742Y-63521000D01*
X147911258Y-63521000D01*
X147886488Y-63516073D01*
X147737188Y-63486376D01*
X147573216Y-63418456D01*
X147425646Y-63319853D01*
X147300147Y-63194354D01*
X147201544Y-63046784D01*
X147133624Y-62882812D01*
X147099000Y-62708741D01*
X147099000Y-62531259D01*
X147133624Y-62357188D01*
X147201544Y-62193216D01*
X147300147Y-62045646D01*
X147425646Y-61920147D01*
X147573216Y-61821544D01*
X147737188Y-61753624D01*
X147886488Y-61723927D01*
X147911258Y-61719000D01*
X148088742Y-61719000D01*
X148113512Y-61723927D01*
G37*
G36*
X211113512Y-61723927D02*
G01*
X211262812Y-61753624D01*
X211426784Y-61821544D01*
X211574354Y-61920147D01*
X211699853Y-62045646D01*
X211798456Y-62193216D01*
X211866376Y-62357188D01*
X211901000Y-62531259D01*
X211901000Y-62708741D01*
X211866376Y-62882812D01*
X211798456Y-63046784D01*
X211699853Y-63194354D01*
X211574354Y-63319853D01*
X211426784Y-63418456D01*
X211262812Y-63486376D01*
X211113512Y-63516073D01*
X211088742Y-63521000D01*
X210911258Y-63521000D01*
X210886488Y-63516073D01*
X210737188Y-63486376D01*
X210573216Y-63418456D01*
X210425646Y-63319853D01*
X210300147Y-63194354D01*
X210201544Y-63046784D01*
X210133624Y-62882812D01*
X210099000Y-62708741D01*
X210099000Y-62531259D01*
X210133624Y-62357188D01*
X210201544Y-62193216D01*
X210300147Y-62045646D01*
X210425646Y-61920147D01*
X210573216Y-61821544D01*
X210737188Y-61753624D01*
X210886488Y-61723927D01*
X210911258Y-61719000D01*
X211088742Y-61719000D01*
X211113512Y-61723927D01*
G37*
G36*
X213653512Y-61723927D02*
G01*
X213802812Y-61753624D01*
X213966784Y-61821544D01*
X214114354Y-61920147D01*
X214239853Y-62045646D01*
X214338456Y-62193216D01*
X214406376Y-62357188D01*
X214441000Y-62531259D01*
X214441000Y-62708741D01*
X214406376Y-62882812D01*
X214338456Y-63046784D01*
X214239853Y-63194354D01*
X214114354Y-63319853D01*
X213966784Y-63418456D01*
X213802812Y-63486376D01*
X213653512Y-63516073D01*
X213628742Y-63521000D01*
X213451258Y-63521000D01*
X213426488Y-63516073D01*
X213277188Y-63486376D01*
X213113216Y-63418456D01*
X212965646Y-63319853D01*
X212840147Y-63194354D01*
X212741544Y-63046784D01*
X212673624Y-62882812D01*
X212639000Y-62708741D01*
X212639000Y-62531259D01*
X212673624Y-62357188D01*
X212741544Y-62193216D01*
X212840147Y-62045646D01*
X212965646Y-61920147D01*
X213113216Y-61821544D01*
X213277188Y-61753624D01*
X213426488Y-61723927D01*
X213451258Y-61719000D01*
X213628742Y-61719000D01*
X213653512Y-61723927D01*
G37*
G36*
X145573512Y-61723927D02*
G01*
X145722812Y-61753624D01*
X145886784Y-61821544D01*
X146034354Y-61920147D01*
X146159853Y-62045646D01*
X146258456Y-62193216D01*
X146326376Y-62357188D01*
X146361000Y-62531259D01*
X146361000Y-62708741D01*
X146326376Y-62882812D01*
X146258456Y-63046784D01*
X146159853Y-63194354D01*
X146034354Y-63319853D01*
X145886784Y-63418456D01*
X145722812Y-63486376D01*
X145573512Y-63516073D01*
X145548742Y-63521000D01*
X145371258Y-63521000D01*
X145346488Y-63516073D01*
X145197188Y-63486376D01*
X145033216Y-63418456D01*
X144885646Y-63319853D01*
X144760147Y-63194354D01*
X144661544Y-63046784D01*
X144593624Y-62882812D01*
X144559000Y-62708741D01*
X144559000Y-62531259D01*
X144593624Y-62357188D01*
X144661544Y-62193216D01*
X144760147Y-62045646D01*
X144885646Y-61920147D01*
X145033216Y-61821544D01*
X145197188Y-61753624D01*
X145346488Y-61723927D01*
X145371258Y-61719000D01*
X145548742Y-61719000D01*
X145573512Y-61723927D01*
G37*
G36*
X145573512Y-59183927D02*
G01*
X145722812Y-59213624D01*
X145886784Y-59281544D01*
X146034354Y-59380147D01*
X146159853Y-59505646D01*
X146258456Y-59653216D01*
X146326376Y-59817188D01*
X146361000Y-59991259D01*
X146361000Y-60168741D01*
X146326376Y-60342812D01*
X146258456Y-60506784D01*
X146159853Y-60654354D01*
X146034354Y-60779853D01*
X145886784Y-60878456D01*
X145722812Y-60946376D01*
X145573512Y-60976073D01*
X145548742Y-60981000D01*
X145371258Y-60981000D01*
X145346488Y-60976073D01*
X145197188Y-60946376D01*
X145033216Y-60878456D01*
X144885646Y-60779853D01*
X144760147Y-60654354D01*
X144661544Y-60506784D01*
X144593624Y-60342812D01*
X144559000Y-60168741D01*
X144559000Y-59991259D01*
X144593624Y-59817188D01*
X144661544Y-59653216D01*
X144760147Y-59505646D01*
X144885646Y-59380147D01*
X145033216Y-59281544D01*
X145197188Y-59213624D01*
X145346488Y-59183927D01*
X145371258Y-59179000D01*
X145548742Y-59179000D01*
X145573512Y-59183927D01*
G37*
G36*
X213653512Y-59183927D02*
G01*
X213802812Y-59213624D01*
X213966784Y-59281544D01*
X214114354Y-59380147D01*
X214239853Y-59505646D01*
X214338456Y-59653216D01*
X214406376Y-59817188D01*
X214441000Y-59991259D01*
X214441000Y-60168741D01*
X214406376Y-60342812D01*
X214338456Y-60506784D01*
X214239853Y-60654354D01*
X214114354Y-60779853D01*
X213966784Y-60878456D01*
X213802812Y-60946376D01*
X213653512Y-60976073D01*
X213628742Y-60981000D01*
X213451258Y-60981000D01*
X213426488Y-60976073D01*
X213277188Y-60946376D01*
X213113216Y-60878456D01*
X212965646Y-60779853D01*
X212840147Y-60654354D01*
X212741544Y-60506784D01*
X212673624Y-60342812D01*
X212639000Y-60168741D01*
X212639000Y-59991259D01*
X212673624Y-59817188D01*
X212741544Y-59653216D01*
X212840147Y-59505646D01*
X212965646Y-59380147D01*
X213113216Y-59281544D01*
X213277188Y-59213624D01*
X213426488Y-59183927D01*
X213451258Y-59179000D01*
X213628742Y-59179000D01*
X213653512Y-59183927D01*
G37*
G36*
X211113512Y-59183927D02*
G01*
X211262812Y-59213624D01*
X211426784Y-59281544D01*
X211574354Y-59380147D01*
X211699853Y-59505646D01*
X211798456Y-59653216D01*
X211866376Y-59817188D01*
X211901000Y-59991259D01*
X211901000Y-60168741D01*
X211866376Y-60342812D01*
X211798456Y-60506784D01*
X211699853Y-60654354D01*
X211574354Y-60779853D01*
X211426784Y-60878456D01*
X211262812Y-60946376D01*
X211113512Y-60976073D01*
X211088742Y-60981000D01*
X210911258Y-60981000D01*
X210886488Y-60976073D01*
X210737188Y-60946376D01*
X210573216Y-60878456D01*
X210425646Y-60779853D01*
X210300147Y-60654354D01*
X210201544Y-60506784D01*
X210133624Y-60342812D01*
X210099000Y-60168741D01*
X210099000Y-59991259D01*
X210133624Y-59817188D01*
X210201544Y-59653216D01*
X210300147Y-59505646D01*
X210425646Y-59380147D01*
X210573216Y-59281544D01*
X210737188Y-59213624D01*
X210886488Y-59183927D01*
X210911258Y-59179000D01*
X211088742Y-59179000D01*
X211113512Y-59183927D01*
G37*
G36*
X148113512Y-59183927D02*
G01*
X148262812Y-59213624D01*
X148426784Y-59281544D01*
X148574354Y-59380147D01*
X148699853Y-59505646D01*
X148798456Y-59653216D01*
X148866376Y-59817188D01*
X148901000Y-59991259D01*
X148901000Y-60168741D01*
X148866376Y-60342812D01*
X148798456Y-60506784D01*
X148699853Y-60654354D01*
X148574354Y-60779853D01*
X148426784Y-60878456D01*
X148262812Y-60946376D01*
X148113512Y-60976073D01*
X148088742Y-60981000D01*
X147911258Y-60981000D01*
X147886488Y-60976073D01*
X147737188Y-60946376D01*
X147573216Y-60878456D01*
X147425646Y-60779853D01*
X147300147Y-60654354D01*
X147201544Y-60506784D01*
X147133624Y-60342812D01*
X147099000Y-60168741D01*
X147099000Y-59991259D01*
X147133624Y-59817188D01*
X147201544Y-59653216D01*
X147300147Y-59505646D01*
X147425646Y-59380147D01*
X147573216Y-59281544D01*
X147737188Y-59213624D01*
X147886488Y-59183927D01*
X147911258Y-59179000D01*
X148088742Y-59179000D01*
X148113512Y-59183927D01*
G37*
G36*
X145573512Y-56643927D02*
G01*
X145722812Y-56673624D01*
X145886784Y-56741544D01*
X146034354Y-56840147D01*
X146159853Y-56965646D01*
X146258456Y-57113216D01*
X146326376Y-57277188D01*
X146361000Y-57451259D01*
X146361000Y-57628741D01*
X146326376Y-57802812D01*
X146258456Y-57966784D01*
X146159853Y-58114354D01*
X146034354Y-58239853D01*
X145886784Y-58338456D01*
X145722812Y-58406376D01*
X145573512Y-58436073D01*
X145548742Y-58441000D01*
X145371258Y-58441000D01*
X145346488Y-58436073D01*
X145197188Y-58406376D01*
X145033216Y-58338456D01*
X144885646Y-58239853D01*
X144760147Y-58114354D01*
X144661544Y-57966784D01*
X144593624Y-57802812D01*
X144559000Y-57628741D01*
X144559000Y-57451259D01*
X144593624Y-57277188D01*
X144661544Y-57113216D01*
X144760147Y-56965646D01*
X144885646Y-56840147D01*
X145033216Y-56741544D01*
X145197188Y-56673624D01*
X145346488Y-56643927D01*
X145371258Y-56639000D01*
X145548742Y-56639000D01*
X145573512Y-56643927D01*
G37*
G36*
X211113512Y-56643927D02*
G01*
X211262812Y-56673624D01*
X211426784Y-56741544D01*
X211574354Y-56840147D01*
X211699853Y-56965646D01*
X211798456Y-57113216D01*
X211866376Y-57277188D01*
X211901000Y-57451259D01*
X211901000Y-57628741D01*
X211866376Y-57802812D01*
X211798456Y-57966784D01*
X211699853Y-58114354D01*
X211574354Y-58239853D01*
X211426784Y-58338456D01*
X211262812Y-58406376D01*
X211113512Y-58436073D01*
X211088742Y-58441000D01*
X210911258Y-58441000D01*
X210886488Y-58436073D01*
X210737188Y-58406376D01*
X210573216Y-58338456D01*
X210425646Y-58239853D01*
X210300147Y-58114354D01*
X210201544Y-57966784D01*
X210133624Y-57802812D01*
X210099000Y-57628741D01*
X210099000Y-57451259D01*
X210133624Y-57277188D01*
X210201544Y-57113216D01*
X210300147Y-56965646D01*
X210425646Y-56840147D01*
X210573216Y-56741544D01*
X210737188Y-56673624D01*
X210886488Y-56643927D01*
X210911258Y-56639000D01*
X211088742Y-56639000D01*
X211113512Y-56643927D01*
G37*
G36*
X213653512Y-56643927D02*
G01*
X213802812Y-56673624D01*
X213966784Y-56741544D01*
X214114354Y-56840147D01*
X214239853Y-56965646D01*
X214338456Y-57113216D01*
X214406376Y-57277188D01*
X214441000Y-57451259D01*
X214441000Y-57628741D01*
X214406376Y-57802812D01*
X214338456Y-57966784D01*
X214239853Y-58114354D01*
X214114354Y-58239853D01*
X213966784Y-58338456D01*
X213802812Y-58406376D01*
X213653512Y-58436073D01*
X213628742Y-58441000D01*
X213451258Y-58441000D01*
X213426488Y-58436073D01*
X213277188Y-58406376D01*
X213113216Y-58338456D01*
X212965646Y-58239853D01*
X212840147Y-58114354D01*
X212741544Y-57966784D01*
X212673624Y-57802812D01*
X212639000Y-57628741D01*
X212639000Y-57451259D01*
X212673624Y-57277188D01*
X212741544Y-57113216D01*
X212840147Y-56965646D01*
X212965646Y-56840147D01*
X213113216Y-56741544D01*
X213277188Y-56673624D01*
X213426488Y-56643927D01*
X213451258Y-56639000D01*
X213628742Y-56639000D01*
X213653512Y-56643927D01*
G37*
G36*
X148113512Y-56643927D02*
G01*
X148262812Y-56673624D01*
X148426784Y-56741544D01*
X148574354Y-56840147D01*
X148699853Y-56965646D01*
X148798456Y-57113216D01*
X148866376Y-57277188D01*
X148901000Y-57451259D01*
X148901000Y-57628741D01*
X148866376Y-57802812D01*
X148798456Y-57966784D01*
X148699853Y-58114354D01*
X148574354Y-58239853D01*
X148426784Y-58338456D01*
X148262812Y-58406376D01*
X148113512Y-58436073D01*
X148088742Y-58441000D01*
X147911258Y-58441000D01*
X147886488Y-58436073D01*
X147737188Y-58406376D01*
X147573216Y-58338456D01*
X147425646Y-58239853D01*
X147300147Y-58114354D01*
X147201544Y-57966784D01*
X147133624Y-57802812D01*
X147099000Y-57628741D01*
X147099000Y-57451259D01*
X147133624Y-57277188D01*
X147201544Y-57113216D01*
X147300147Y-56965646D01*
X147425646Y-56840147D01*
X147573216Y-56741544D01*
X147737188Y-56673624D01*
X147886488Y-56643927D01*
X147911258Y-56639000D01*
X148088742Y-56639000D01*
X148113512Y-56643927D01*
G37*
G36*
X148113512Y-54103927D02*
G01*
X148262812Y-54133624D01*
X148426784Y-54201544D01*
X148574354Y-54300147D01*
X148699853Y-54425646D01*
X148798456Y-54573216D01*
X148866376Y-54737188D01*
X148901000Y-54911259D01*
X148901000Y-55088741D01*
X148866376Y-55262812D01*
X148798456Y-55426784D01*
X148699853Y-55574354D01*
X148574354Y-55699853D01*
X148426784Y-55798456D01*
X148262812Y-55866376D01*
X148113512Y-55896073D01*
X148088742Y-55901000D01*
X147911258Y-55901000D01*
X147886488Y-55896073D01*
X147737188Y-55866376D01*
X147573216Y-55798456D01*
X147425646Y-55699853D01*
X147300147Y-55574354D01*
X147201544Y-55426784D01*
X147133624Y-55262812D01*
X147099000Y-55088741D01*
X147099000Y-54911259D01*
X147133624Y-54737188D01*
X147201544Y-54573216D01*
X147300147Y-54425646D01*
X147425646Y-54300147D01*
X147573216Y-54201544D01*
X147737188Y-54133624D01*
X147886488Y-54103927D01*
X147911258Y-54099000D01*
X148088742Y-54099000D01*
X148113512Y-54103927D01*
G37*
G36*
X146361000Y-55901000D02*
G01*
X144559000Y-55901000D01*
X144559000Y-54099000D01*
X146361000Y-54099000D01*
X146361000Y-55901000D01*
G37*
G36*
X211901000Y-55901000D02*
G01*
X210099000Y-55901000D01*
X210099000Y-54099000D01*
X211901000Y-54099000D01*
X211901000Y-55901000D01*
G37*
G36*
X213653512Y-54103927D02*
G01*
X213802812Y-54133624D01*
X213966784Y-54201544D01*
X214114354Y-54300147D01*
X214239853Y-54425646D01*
X214338456Y-54573216D01*
X214406376Y-54737188D01*
X214441000Y-54911259D01*
X214441000Y-55088741D01*
X214406376Y-55262812D01*
X214338456Y-55426784D01*
X214239853Y-55574354D01*
X214114354Y-55699853D01*
X213966784Y-55798456D01*
X213802812Y-55866376D01*
X213653512Y-55896073D01*
X213628742Y-55901000D01*
X213451258Y-55901000D01*
X213426488Y-55896073D01*
X213277188Y-55866376D01*
X213113216Y-55798456D01*
X212965646Y-55699853D01*
X212840147Y-55574354D01*
X212741544Y-55426784D01*
X212673624Y-55262812D01*
X212639000Y-55088741D01*
X212639000Y-54911259D01*
X212673624Y-54737188D01*
X212741544Y-54573216D01*
X212840147Y-54425646D01*
X212965646Y-54300147D01*
X213113216Y-54201544D01*
X213277188Y-54133624D01*
X213426488Y-54103927D01*
X213451258Y-54099000D01*
X213628742Y-54099000D01*
X213653512Y-54103927D01*
G37*
M02*
