M48
; DRILL file {KiCad 5.1.6-c6e7f7d~86~ubuntu20.04.1} date Fri May 29 21:56:27 2020
; FORMAT={-:-/ absolute / inch / decimal}
; #@! TF.CreationDate,2020-05-29T21:56:27+02:00
; #@! TF.GenerationSoftware,Kicad,Pcbnew,5.1.6-c6e7f7d~86~ubuntu20.04.1
; #@! TF.FileFunction,Plated,1,2,PTH
FMAT,2
INCH
T1C0.0157
T2C0.0300
T3C0.0315
T4C0.0394
%
G90
G05
T1
X5.7531Y-3.9263
X5.8046Y-3.9165
X6.2756Y-3.3937
X6.3819Y-4.2874
X6.3949Y-3.6517
X6.4462Y-4.2649
X6.4953Y-4.323
X6.554Y-4.6192
X6.5639Y-4.2948
X6.5899Y-3.3724
X6.5957Y-4.1099
X6.5969Y-2.9931
X6.6019Y-3.7475
X6.6022Y-3.4556
X6.6798Y-4.3267
X6.7695Y-3.6184
X6.7706Y-4.5912
X6.8209Y-3.1929
X6.8335Y-3.2932
X6.8341Y-3.7319
X6.8345Y-4.0431
X6.8346Y-4.0933
X6.8455Y-3.5897
X6.8655Y-3.9344
X6.8912Y-3.9651
X6.9411Y-3.7343
X6.9412Y-3.6184
X6.9423Y-3.6913
X6.9744Y-3.0503
X7.0665Y-3.8317
X7.1024Y-4.0079
X7.1658Y-3.6803
X7.1816Y-3.0703
X7.1821Y-4.3497
X7.2303Y-4.032
X7.2303Y-4.0734
X7.2309Y-2.9553
X7.2317Y-3.0309
X7.232Y-3.3898
X7.2595Y-3.6176
X7.2651Y-4.3201
X7.2756Y-3.2047
X7.3386Y-3.3249
X7.3388Y-3.2853
X7.339Y-3.3682
X7.3392Y-4.4008
X7.3393Y-3.7393
X7.3401Y-3.0064
X7.3404Y-2.9644
X7.3439Y-3.6506
X7.3494Y-4.0881
X7.3545Y-4.0456
X7.3573Y-4.006
X7.3622Y-4.2598
X7.3714Y-3.6801
X7.4025Y-4.0099
X7.5267Y-4.3092
X7.5585Y-3.9549
X7.5601Y-3.6018
X7.5714Y-3.3595
X7.5776Y-3.6748
X8.0547Y-2.4882
X8.1181Y-4.7717
T2
X8.1244Y-3.0114
X8.1244Y-3.1114
X8.1244Y-3.2114
X8.1244Y-3.3114
X8.1244Y-3.4114
X8.1244Y-3.5114
X8.1244Y-3.6114
X8.1244Y-3.7114
X8.1244Y-3.8114
X8.1244Y-3.9114
X8.1244Y-4.0114
X8.1244Y-4.1114
X8.1244Y-4.2114
X8.1244Y-4.3114
X8.1244Y-4.4114
X8.1244Y-4.5114
T3
X6.0022Y-3.1376
X6.0022Y-3.2376
X6.0022Y-3.3376
X6.0022Y-3.4376
X6.0022Y-3.5376
X6.0022Y-3.6376
X6.0022Y-3.7376
X6.0022Y-3.8376
X6.0022Y-4.0376
X6.0022Y-4.1376
X6.0022Y-4.2376
X6.0022Y-4.3376
X6.0022Y-4.4376
X6.0022Y-4.5376
X6.1022Y-3.5376
X6.1022Y-3.6376
X6.1022Y-3.7376
X6.1022Y-3.8376
X6.1022Y-4.0376
X6.1022Y-4.1376
X6.1022Y-4.2376
X6.1022Y-4.3376
X6.1022Y-4.4376
X6.1022Y-4.5376
X7.8022Y-2.9776
X7.8022Y-3.0776
X7.8022Y-3.1776
X7.8022Y-3.2776
X7.8022Y-3.3776
X7.8022Y-3.4776
X7.8022Y-3.5776
X7.8022Y-3.6776
X7.8022Y-3.8376
X7.8022Y-3.9376
X7.8022Y-4.0376
X7.8022Y-4.1376
X7.8022Y-4.2376
X7.8022Y-4.3376
X7.8022Y-4.4376
X7.8022Y-4.5376
X7.9022Y-2.7776
X7.9022Y-2.8778
X7.9022Y-2.9778
X7.9022Y-3.0778
X7.9022Y-3.1778
X7.9022Y-3.2778
X7.9022Y-3.3778
X7.9022Y-3.4778
X7.9022Y-3.5778
X7.9022Y-3.6776
X7.9022Y-3.8376
X7.9022Y-3.9376
X7.9022Y-4.0376
X7.9022Y-4.1376
X7.9022Y-4.2376
X7.9022Y-4.3376
X7.9022Y-4.4376
X7.9022Y-4.5376
T4
X5.7268Y-4.6031
X5.7268Y-4.7031
X5.7268Y-4.8031
X5.7268Y-4.9031
X5.7268Y-5.0031
X5.8268Y-4.6031
X5.8268Y-4.7031
X5.8268Y-4.8031
X5.8268Y-4.9031
X5.8268Y-5.0031
X8.3071Y-3.3843
X8.3071Y-3.4843
X8.3071Y-3.5843
X8.3071Y-3.6843
X8.3071Y-3.7843
X8.4071Y-3.3843
X8.4071Y-3.4843
X8.4071Y-3.5843
X8.4071Y-3.6843
X8.4071Y-3.7843
X5.7268Y-2.7748
X5.7268Y-2.8748
X5.7268Y-2.9748
X5.7268Y-3.0748
X5.7268Y-3.1748
X5.8268Y-2.7748
X5.8268Y-2.8748
X5.8268Y-2.9748
X5.8268Y-3.0748
X5.8268Y-3.1748
X5.7268Y-3.3843
X5.7268Y-3.4843
X5.7268Y-3.5843
X5.7268Y-3.6843
X5.7268Y-3.7843
X5.8268Y-3.3843
X5.8268Y-3.4843
X5.8268Y-3.5843
X5.8268Y-3.6843
X5.8268Y-3.7843
X8.3071Y-3.9937
X8.3071Y-4.0937
X8.3071Y-4.1937
X8.3071Y-4.2937
X8.3071Y-4.3937
X8.4071Y-3.9937
X8.4071Y-4.0937
X8.4071Y-4.1937
X8.4071Y-4.2937
X8.4071Y-4.3937
X5.7268Y-2.1654
X5.7268Y-2.2654
X5.7268Y-2.3654
X5.7268Y-2.4654
X5.7268Y-2.5654
X5.8268Y-2.1654
X5.8268Y-2.2654
X5.8268Y-2.3654
X5.8268Y-2.4654
X5.8268Y-2.5654
X5.7268Y-4.0
X5.7268Y-4.1
X5.7268Y-4.2
X5.7268Y-4.3
X5.7268Y-4.4
X5.8268Y-4.0
X5.8268Y-4.1
X5.8268Y-4.2
X5.8268Y-4.3
X5.8268Y-4.4
X8.3071Y-2.1654
X8.3071Y-2.2654
X8.3071Y-2.3654
X8.3071Y-2.4654
X8.3071Y-2.5654
X8.4071Y-2.1654
X8.4071Y-2.2654
X8.4071Y-2.3654
X8.4071Y-2.4654
X8.4071Y-2.5654
X8.3071Y-4.6031
X8.3071Y-4.7031
X8.3071Y-4.8031
X8.3071Y-4.9031
X8.3071Y-5.0031
X8.4071Y-4.6031
X8.4071Y-4.7031
X8.4071Y-4.8031
X8.4071Y-4.9031
X8.4071Y-5.0031
X8.3071Y-2.7748
X8.3071Y-2.8748
X8.3071Y-2.9748
X8.3071Y-3.0748
X8.3071Y-3.1748
X8.4071Y-2.7748
X8.4071Y-2.8748
X8.4071Y-2.9748
X8.4071Y-3.0748
X8.4071Y-3.1748
T0
M30
