G04 #@! TF.GenerationSoftware,KiCad,Pcbnew,5.1.6-c6e7f7d~86~ubuntu20.04.1*
G04 #@! TF.CreationDate,2020-05-29T21:56:25+02:00*
G04 #@! TF.ProjectId,Fulvetta,46756c76-6574-4746-912e-6b696361645f,rev?*
G04 #@! TF.SameCoordinates,Original*
G04 #@! TF.FileFunction,Paste,Top*
G04 #@! TF.FilePolarity,Positive*
%FSLAX46Y46*%
G04 Gerber Fmt 4.6, Leading zero omitted, Abs format (unit mm)*
G04 Created by KiCad (PCBNEW 5.1.6-c6e7f7d~86~ubuntu20.04.1) date 2020-05-29 21:56:25*
%MOMM*%
%LPD*%
G01*
G04 APERTURE LIST*
%ADD10R,1.500000X0.450000*%
G04 APERTURE END LIST*
G36*
G01*
X157307500Y-115760000D02*
X157652500Y-115760000D01*
G75*
G02*
X157800000Y-115907500I0J-147500D01*
G01*
X157800000Y-116202500D01*
G75*
G02*
X157652500Y-116350000I-147500J0D01*
G01*
X157307500Y-116350000D01*
G75*
G02*
X157160000Y-116202500I0J147500D01*
G01*
X157160000Y-115907500D01*
G75*
G02*
X157307500Y-115760000I147500J0D01*
G01*
G37*
G36*
G01*
X157307500Y-114790000D02*
X157652500Y-114790000D01*
G75*
G02*
X157800000Y-114937500I0J-147500D01*
G01*
X157800000Y-115232500D01*
G75*
G02*
X157652500Y-115380000I-147500J0D01*
G01*
X157307500Y-115380000D01*
G75*
G02*
X157160000Y-115232500I0J147500D01*
G01*
X157160000Y-114937500D01*
G75*
G02*
X157307500Y-114790000I147500J0D01*
G01*
G37*
G36*
G01*
X157307500Y-110680000D02*
X157652500Y-110680000D01*
G75*
G02*
X157800000Y-110827500I0J-147500D01*
G01*
X157800000Y-111122500D01*
G75*
G02*
X157652500Y-111270000I-147500J0D01*
G01*
X157307500Y-111270000D01*
G75*
G02*
X157160000Y-111122500I0J147500D01*
G01*
X157160000Y-110827500D01*
G75*
G02*
X157307500Y-110680000I147500J0D01*
G01*
G37*
G36*
G01*
X157307500Y-109710000D02*
X157652500Y-109710000D01*
G75*
G02*
X157800000Y-109857500I0J-147500D01*
G01*
X157800000Y-110152500D01*
G75*
G02*
X157652500Y-110300000I-147500J0D01*
G01*
X157307500Y-110300000D01*
G75*
G02*
X157160000Y-110152500I0J147500D01*
G01*
X157160000Y-109857500D01*
G75*
G02*
X157307500Y-109710000I147500J0D01*
G01*
G37*
G36*
G01*
X157307500Y-105600000D02*
X157652500Y-105600000D01*
G75*
G02*
X157800000Y-105747500I0J-147500D01*
G01*
X157800000Y-106042500D01*
G75*
G02*
X157652500Y-106190000I-147500J0D01*
G01*
X157307500Y-106190000D01*
G75*
G02*
X157160000Y-106042500I0J147500D01*
G01*
X157160000Y-105747500D01*
G75*
G02*
X157307500Y-105600000I147500J0D01*
G01*
G37*
G36*
G01*
X157307500Y-104630000D02*
X157652500Y-104630000D01*
G75*
G02*
X157800000Y-104777500I0J-147500D01*
G01*
X157800000Y-105072500D01*
G75*
G02*
X157652500Y-105220000I-147500J0D01*
G01*
X157307500Y-105220000D01*
G75*
G02*
X157160000Y-105072500I0J147500D01*
G01*
X157160000Y-104777500D01*
G75*
G02*
X157307500Y-104630000I147500J0D01*
G01*
G37*
G36*
G01*
X157327500Y-92690000D02*
X157672500Y-92690000D01*
G75*
G02*
X157820000Y-92837500I0J-147500D01*
G01*
X157820000Y-93132500D01*
G75*
G02*
X157672500Y-93280000I-147500J0D01*
G01*
X157327500Y-93280000D01*
G75*
G02*
X157180000Y-93132500I0J147500D01*
G01*
X157180000Y-92837500D01*
G75*
G02*
X157327500Y-92690000I147500J0D01*
G01*
G37*
G36*
G01*
X157327500Y-91720000D02*
X157672500Y-91720000D01*
G75*
G02*
X157820000Y-91867500I0J-147500D01*
G01*
X157820000Y-92162500D01*
G75*
G02*
X157672500Y-92310000I-147500J0D01*
G01*
X157327500Y-92310000D01*
G75*
G02*
X157180000Y-92162500I0J147500D01*
G01*
X157180000Y-91867500D01*
G75*
G02*
X157327500Y-91720000I147500J0D01*
G01*
G37*
G36*
G01*
X160327500Y-92690000D02*
X160672500Y-92690000D01*
G75*
G02*
X160820000Y-92837500I0J-147500D01*
G01*
X160820000Y-93132500D01*
G75*
G02*
X160672500Y-93280000I-147500J0D01*
G01*
X160327500Y-93280000D01*
G75*
G02*
X160180000Y-93132500I0J147500D01*
G01*
X160180000Y-92837500D01*
G75*
G02*
X160327500Y-92690000I147500J0D01*
G01*
G37*
G36*
G01*
X160327500Y-91720000D02*
X160672500Y-91720000D01*
G75*
G02*
X160820000Y-91867500I0J-147500D01*
G01*
X160820000Y-92162500D01*
G75*
G02*
X160672500Y-92310000I-147500J0D01*
G01*
X160327500Y-92310000D01*
G75*
G02*
X160180000Y-92162500I0J147500D01*
G01*
X160180000Y-91867500D01*
G75*
G02*
X160327500Y-91720000I147500J0D01*
G01*
G37*
G36*
G01*
X161672500Y-92310000D02*
X161327500Y-92310000D01*
G75*
G02*
X161180000Y-92162500I0J147500D01*
G01*
X161180000Y-91867500D01*
G75*
G02*
X161327500Y-91720000I147500J0D01*
G01*
X161672500Y-91720000D01*
G75*
G02*
X161820000Y-91867500I0J-147500D01*
G01*
X161820000Y-92162500D01*
G75*
G02*
X161672500Y-92310000I-147500J0D01*
G01*
G37*
G36*
G01*
X161672500Y-93280000D02*
X161327500Y-93280000D01*
G75*
G02*
X161180000Y-93132500I0J147500D01*
G01*
X161180000Y-92837500D01*
G75*
G02*
X161327500Y-92690000I147500J0D01*
G01*
X161672500Y-92690000D01*
G75*
G02*
X161820000Y-92837500I0J-147500D01*
G01*
X161820000Y-93132500D01*
G75*
G02*
X161672500Y-93280000I-147500J0D01*
G01*
G37*
G36*
G01*
X160327500Y-105690000D02*
X160672500Y-105690000D01*
G75*
G02*
X160820000Y-105837500I0J-147500D01*
G01*
X160820000Y-106132500D01*
G75*
G02*
X160672500Y-106280000I-147500J0D01*
G01*
X160327500Y-106280000D01*
G75*
G02*
X160180000Y-106132500I0J147500D01*
G01*
X160180000Y-105837500D01*
G75*
G02*
X160327500Y-105690000I147500J0D01*
G01*
G37*
G36*
G01*
X160327500Y-104720000D02*
X160672500Y-104720000D01*
G75*
G02*
X160820000Y-104867500I0J-147500D01*
G01*
X160820000Y-105162500D01*
G75*
G02*
X160672500Y-105310000I-147500J0D01*
G01*
X160327500Y-105310000D01*
G75*
G02*
X160180000Y-105162500I0J147500D01*
G01*
X160180000Y-104867500D01*
G75*
G02*
X160327500Y-104720000I147500J0D01*
G01*
G37*
G36*
G01*
X161672500Y-105310000D02*
X161327500Y-105310000D01*
G75*
G02*
X161180000Y-105162500I0J147500D01*
G01*
X161180000Y-104867500D01*
G75*
G02*
X161327500Y-104720000I147500J0D01*
G01*
X161672500Y-104720000D01*
G75*
G02*
X161820000Y-104867500I0J-147500D01*
G01*
X161820000Y-105162500D01*
G75*
G02*
X161672500Y-105310000I-147500J0D01*
G01*
G37*
G36*
G01*
X161672500Y-106280000D02*
X161327500Y-106280000D01*
G75*
G02*
X161180000Y-106132500I0J147500D01*
G01*
X161180000Y-105837500D01*
G75*
G02*
X161327500Y-105690000I147500J0D01*
G01*
X161672500Y-105690000D01*
G75*
G02*
X161820000Y-105837500I0J-147500D01*
G01*
X161820000Y-106132500D01*
G75*
G02*
X161672500Y-106280000I-147500J0D01*
G01*
G37*
G36*
G01*
X160327500Y-110690000D02*
X160672500Y-110690000D01*
G75*
G02*
X160820000Y-110837500I0J-147500D01*
G01*
X160820000Y-111132500D01*
G75*
G02*
X160672500Y-111280000I-147500J0D01*
G01*
X160327500Y-111280000D01*
G75*
G02*
X160180000Y-111132500I0J147500D01*
G01*
X160180000Y-110837500D01*
G75*
G02*
X160327500Y-110690000I147500J0D01*
G01*
G37*
G36*
G01*
X160327500Y-109720000D02*
X160672500Y-109720000D01*
G75*
G02*
X160820000Y-109867500I0J-147500D01*
G01*
X160820000Y-110162500D01*
G75*
G02*
X160672500Y-110310000I-147500J0D01*
G01*
X160327500Y-110310000D01*
G75*
G02*
X160180000Y-110162500I0J147500D01*
G01*
X160180000Y-109867500D01*
G75*
G02*
X160327500Y-109720000I147500J0D01*
G01*
G37*
G36*
G01*
X161672500Y-110310000D02*
X161327500Y-110310000D01*
G75*
G02*
X161180000Y-110162500I0J147500D01*
G01*
X161180000Y-109867500D01*
G75*
G02*
X161327500Y-109720000I147500J0D01*
G01*
X161672500Y-109720000D01*
G75*
G02*
X161820000Y-109867500I0J-147500D01*
G01*
X161820000Y-110162500D01*
G75*
G02*
X161672500Y-110310000I-147500J0D01*
G01*
G37*
G36*
G01*
X161672500Y-111280000D02*
X161327500Y-111280000D01*
G75*
G02*
X161180000Y-111132500I0J147500D01*
G01*
X161180000Y-110837500D01*
G75*
G02*
X161327500Y-110690000I147500J0D01*
G01*
X161672500Y-110690000D01*
G75*
G02*
X161820000Y-110837500I0J-147500D01*
G01*
X161820000Y-111132500D01*
G75*
G02*
X161672500Y-111280000I-147500J0D01*
G01*
G37*
G36*
G01*
X160327500Y-115675000D02*
X160672500Y-115675000D01*
G75*
G02*
X160820000Y-115822500I0J-147500D01*
G01*
X160820000Y-116117500D01*
G75*
G02*
X160672500Y-116265000I-147500J0D01*
G01*
X160327500Y-116265000D01*
G75*
G02*
X160180000Y-116117500I0J147500D01*
G01*
X160180000Y-115822500D01*
G75*
G02*
X160327500Y-115675000I147500J0D01*
G01*
G37*
G36*
G01*
X160327500Y-114705000D02*
X160672500Y-114705000D01*
G75*
G02*
X160820000Y-114852500I0J-147500D01*
G01*
X160820000Y-115147500D01*
G75*
G02*
X160672500Y-115295000I-147500J0D01*
G01*
X160327500Y-115295000D01*
G75*
G02*
X160180000Y-115147500I0J147500D01*
G01*
X160180000Y-114852500D01*
G75*
G02*
X160327500Y-114705000I147500J0D01*
G01*
G37*
G36*
G01*
X161672500Y-115310000D02*
X161327500Y-115310000D01*
G75*
G02*
X161180000Y-115162500I0J147500D01*
G01*
X161180000Y-114867500D01*
G75*
G02*
X161327500Y-114720000I147500J0D01*
G01*
X161672500Y-114720000D01*
G75*
G02*
X161820000Y-114867500I0J-147500D01*
G01*
X161820000Y-115162500D01*
G75*
G02*
X161672500Y-115310000I-147500J0D01*
G01*
G37*
G36*
G01*
X161672500Y-116280000D02*
X161327500Y-116280000D01*
G75*
G02*
X161180000Y-116132500I0J147500D01*
G01*
X161180000Y-115837500D01*
G75*
G02*
X161327500Y-115690000I147500J0D01*
G01*
X161672500Y-115690000D01*
G75*
G02*
X161820000Y-115837500I0J-147500D01*
G01*
X161820000Y-116132500D01*
G75*
G02*
X161672500Y-116280000I-147500J0D01*
G01*
G37*
G36*
G01*
X159190000Y-116172500D02*
X159190000Y-115827500D01*
G75*
G02*
X159337500Y-115680000I147500J0D01*
G01*
X159632500Y-115680000D01*
G75*
G02*
X159780000Y-115827500I0J-147500D01*
G01*
X159780000Y-116172500D01*
G75*
G02*
X159632500Y-116320000I-147500J0D01*
G01*
X159337500Y-116320000D01*
G75*
G02*
X159190000Y-116172500I0J147500D01*
G01*
G37*
G36*
G01*
X158220000Y-116172500D02*
X158220000Y-115827500D01*
G75*
G02*
X158367500Y-115680000I147500J0D01*
G01*
X158662500Y-115680000D01*
G75*
G02*
X158810000Y-115827500I0J-147500D01*
G01*
X158810000Y-116172500D01*
G75*
G02*
X158662500Y-116320000I-147500J0D01*
G01*
X158367500Y-116320000D01*
G75*
G02*
X158220000Y-116172500I0J147500D01*
G01*
G37*
G36*
G01*
X159190000Y-115172500D02*
X159190000Y-114827500D01*
G75*
G02*
X159337500Y-114680000I147500J0D01*
G01*
X159632500Y-114680000D01*
G75*
G02*
X159780000Y-114827500I0J-147500D01*
G01*
X159780000Y-115172500D01*
G75*
G02*
X159632500Y-115320000I-147500J0D01*
G01*
X159337500Y-115320000D01*
G75*
G02*
X159190000Y-115172500I0J147500D01*
G01*
G37*
G36*
G01*
X158220000Y-115172500D02*
X158220000Y-114827500D01*
G75*
G02*
X158367500Y-114680000I147500J0D01*
G01*
X158662500Y-114680000D01*
G75*
G02*
X158810000Y-114827500I0J-147500D01*
G01*
X158810000Y-115172500D01*
G75*
G02*
X158662500Y-115320000I-147500J0D01*
G01*
X158367500Y-115320000D01*
G75*
G02*
X158220000Y-115172500I0J147500D01*
G01*
G37*
G36*
G01*
X159190000Y-111172500D02*
X159190000Y-110827500D01*
G75*
G02*
X159337500Y-110680000I147500J0D01*
G01*
X159632500Y-110680000D01*
G75*
G02*
X159780000Y-110827500I0J-147500D01*
G01*
X159780000Y-111172500D01*
G75*
G02*
X159632500Y-111320000I-147500J0D01*
G01*
X159337500Y-111320000D01*
G75*
G02*
X159190000Y-111172500I0J147500D01*
G01*
G37*
G36*
G01*
X158220000Y-111172500D02*
X158220000Y-110827500D01*
G75*
G02*
X158367500Y-110680000I147500J0D01*
G01*
X158662500Y-110680000D01*
G75*
G02*
X158810000Y-110827500I0J-147500D01*
G01*
X158810000Y-111172500D01*
G75*
G02*
X158662500Y-111320000I-147500J0D01*
G01*
X158367500Y-111320000D01*
G75*
G02*
X158220000Y-111172500I0J147500D01*
G01*
G37*
G36*
G01*
X159190000Y-110172500D02*
X159190000Y-109827500D01*
G75*
G02*
X159337500Y-109680000I147500J0D01*
G01*
X159632500Y-109680000D01*
G75*
G02*
X159780000Y-109827500I0J-147500D01*
G01*
X159780000Y-110172500D01*
G75*
G02*
X159632500Y-110320000I-147500J0D01*
G01*
X159337500Y-110320000D01*
G75*
G02*
X159190000Y-110172500I0J147500D01*
G01*
G37*
G36*
G01*
X158220000Y-110172500D02*
X158220000Y-109827500D01*
G75*
G02*
X158367500Y-109680000I147500J0D01*
G01*
X158662500Y-109680000D01*
G75*
G02*
X158810000Y-109827500I0J-147500D01*
G01*
X158810000Y-110172500D01*
G75*
G02*
X158662500Y-110320000I-147500J0D01*
G01*
X158367500Y-110320000D01*
G75*
G02*
X158220000Y-110172500I0J147500D01*
G01*
G37*
G36*
G01*
X159190000Y-106172500D02*
X159190000Y-105827500D01*
G75*
G02*
X159337500Y-105680000I147500J0D01*
G01*
X159632500Y-105680000D01*
G75*
G02*
X159780000Y-105827500I0J-147500D01*
G01*
X159780000Y-106172500D01*
G75*
G02*
X159632500Y-106320000I-147500J0D01*
G01*
X159337500Y-106320000D01*
G75*
G02*
X159190000Y-106172500I0J147500D01*
G01*
G37*
G36*
G01*
X158220000Y-106172500D02*
X158220000Y-105827500D01*
G75*
G02*
X158367500Y-105680000I147500J0D01*
G01*
X158662500Y-105680000D01*
G75*
G02*
X158810000Y-105827500I0J-147500D01*
G01*
X158810000Y-106172500D01*
G75*
G02*
X158662500Y-106320000I-147500J0D01*
G01*
X158367500Y-106320000D01*
G75*
G02*
X158220000Y-106172500I0J147500D01*
G01*
G37*
G36*
G01*
X159190000Y-105172500D02*
X159190000Y-104827500D01*
G75*
G02*
X159337500Y-104680000I147500J0D01*
G01*
X159632500Y-104680000D01*
G75*
G02*
X159780000Y-104827500I0J-147500D01*
G01*
X159780000Y-105172500D01*
G75*
G02*
X159632500Y-105320000I-147500J0D01*
G01*
X159337500Y-105320000D01*
G75*
G02*
X159190000Y-105172500I0J147500D01*
G01*
G37*
G36*
G01*
X158220000Y-105172500D02*
X158220000Y-104827500D01*
G75*
G02*
X158367500Y-104680000I147500J0D01*
G01*
X158662500Y-104680000D01*
G75*
G02*
X158810000Y-104827500I0J-147500D01*
G01*
X158810000Y-105172500D01*
G75*
G02*
X158662500Y-105320000I-147500J0D01*
G01*
X158367500Y-105320000D01*
G75*
G02*
X158220000Y-105172500I0J147500D01*
G01*
G37*
G36*
G01*
X159190000Y-93172500D02*
X159190000Y-92827500D01*
G75*
G02*
X159337500Y-92680000I147500J0D01*
G01*
X159632500Y-92680000D01*
G75*
G02*
X159780000Y-92827500I0J-147500D01*
G01*
X159780000Y-93172500D01*
G75*
G02*
X159632500Y-93320000I-147500J0D01*
G01*
X159337500Y-93320000D01*
G75*
G02*
X159190000Y-93172500I0J147500D01*
G01*
G37*
G36*
G01*
X158220000Y-93172500D02*
X158220000Y-92827500D01*
G75*
G02*
X158367500Y-92680000I147500J0D01*
G01*
X158662500Y-92680000D01*
G75*
G02*
X158810000Y-92827500I0J-147500D01*
G01*
X158810000Y-93172500D01*
G75*
G02*
X158662500Y-93320000I-147500J0D01*
G01*
X158367500Y-93320000D01*
G75*
G02*
X158220000Y-93172500I0J147500D01*
G01*
G37*
G36*
G01*
X159190000Y-92172500D02*
X159190000Y-91827500D01*
G75*
G02*
X159337500Y-91680000I147500J0D01*
G01*
X159632500Y-91680000D01*
G75*
G02*
X159780000Y-91827500I0J-147500D01*
G01*
X159780000Y-92172500D01*
G75*
G02*
X159632500Y-92320000I-147500J0D01*
G01*
X159337500Y-92320000D01*
G75*
G02*
X159190000Y-92172500I0J147500D01*
G01*
G37*
G36*
G01*
X158220000Y-92172500D02*
X158220000Y-91827500D01*
G75*
G02*
X158367500Y-91680000I147500J0D01*
G01*
X158662500Y-91680000D01*
G75*
G02*
X158810000Y-91827500I0J-147500D01*
G01*
X158810000Y-92172500D01*
G75*
G02*
X158662500Y-92320000I-147500J0D01*
G01*
X158367500Y-92320000D01*
G75*
G02*
X158220000Y-92172500I0J147500D01*
G01*
G37*
D10*
X190950000Y-110725000D03*
X190950000Y-111375000D03*
X190950000Y-112025000D03*
X190950000Y-112675000D03*
X190950000Y-113325000D03*
X190950000Y-113975000D03*
X190950000Y-114625000D03*
X190950000Y-115275000D03*
X185050000Y-115275000D03*
X185050000Y-114625000D03*
X185050000Y-113975000D03*
X185050000Y-113325000D03*
X185050000Y-112675000D03*
X185050000Y-112025000D03*
X185050000Y-111375000D03*
X185050000Y-110725000D03*
X174950000Y-110725000D03*
X174950000Y-111375000D03*
X174950000Y-112025000D03*
X174950000Y-112675000D03*
X174950000Y-113325000D03*
X174950000Y-113975000D03*
X174950000Y-114625000D03*
X174950000Y-115275000D03*
X169050000Y-115275000D03*
X169050000Y-114625000D03*
X169050000Y-113975000D03*
X169050000Y-113325000D03*
X169050000Y-112675000D03*
X169050000Y-112025000D03*
X169050000Y-111375000D03*
X169050000Y-110725000D03*
X190910000Y-101865000D03*
X190910000Y-102515000D03*
X190910000Y-103165000D03*
X190910000Y-103815000D03*
X190910000Y-104465000D03*
X190910000Y-105115000D03*
X190910000Y-105765000D03*
X190910000Y-106415000D03*
X185010000Y-106415000D03*
X185010000Y-105765000D03*
X185010000Y-105115000D03*
X185010000Y-104465000D03*
X185010000Y-103815000D03*
X185010000Y-103165000D03*
X185010000Y-102515000D03*
X185010000Y-101865000D03*
X174950000Y-101725000D03*
X174950000Y-102375000D03*
X174950000Y-103025000D03*
X174950000Y-103675000D03*
X174950000Y-104325000D03*
X174950000Y-104975000D03*
X174950000Y-105625000D03*
X174950000Y-106275000D03*
X169050000Y-106275000D03*
X169050000Y-105625000D03*
X169050000Y-104975000D03*
X169050000Y-104325000D03*
X169050000Y-103675000D03*
X169050000Y-103025000D03*
X169050000Y-102375000D03*
X169050000Y-101725000D03*
X190950000Y-92725000D03*
X190950000Y-93375000D03*
X190950000Y-94025000D03*
X190950000Y-94675000D03*
X190950000Y-95325000D03*
X190950000Y-95975000D03*
X190950000Y-96625000D03*
X190950000Y-97275000D03*
X185050000Y-97275000D03*
X185050000Y-96625000D03*
X185050000Y-95975000D03*
X185050000Y-95325000D03*
X185050000Y-94675000D03*
X185050000Y-94025000D03*
X185050000Y-93375000D03*
X185050000Y-92725000D03*
X174950000Y-92725000D03*
X174950000Y-93375000D03*
X174950000Y-94025000D03*
X174950000Y-94675000D03*
X174950000Y-95325000D03*
X174950000Y-95975000D03*
X174950000Y-96625000D03*
X174950000Y-97275000D03*
X169050000Y-97275000D03*
X169050000Y-96625000D03*
X169050000Y-95975000D03*
X169050000Y-95325000D03*
X169050000Y-94675000D03*
X169050000Y-94025000D03*
X169050000Y-93375000D03*
X169050000Y-92725000D03*
X190950000Y-83725000D03*
X190950000Y-84375000D03*
X190950000Y-85025000D03*
X190950000Y-85675000D03*
X190950000Y-86325000D03*
X190950000Y-86975000D03*
X190950000Y-87625000D03*
X190950000Y-88275000D03*
X185050000Y-88275000D03*
X185050000Y-87625000D03*
X185050000Y-86975000D03*
X185050000Y-86325000D03*
X185050000Y-85675000D03*
X185050000Y-85025000D03*
X185050000Y-84375000D03*
X185050000Y-83725000D03*
X174950000Y-83725000D03*
X174950000Y-84375000D03*
X174950000Y-85025000D03*
X174950000Y-85675000D03*
X174950000Y-86325000D03*
X174950000Y-86975000D03*
X174950000Y-87625000D03*
X174950000Y-88275000D03*
X169050000Y-88275000D03*
X169050000Y-87625000D03*
X169050000Y-86975000D03*
X169050000Y-86325000D03*
X169050000Y-85675000D03*
X169050000Y-85025000D03*
X169050000Y-84375000D03*
X169050000Y-83725000D03*
X190950000Y-74725000D03*
X190950000Y-75375000D03*
X190950000Y-76025000D03*
X190950000Y-76675000D03*
X190950000Y-77325000D03*
X190950000Y-77975000D03*
X190950000Y-78625000D03*
X190950000Y-79275000D03*
X185050000Y-79275000D03*
X185050000Y-78625000D03*
X185050000Y-77975000D03*
X185050000Y-77325000D03*
X185050000Y-76675000D03*
X185050000Y-76025000D03*
X185050000Y-75375000D03*
X185050000Y-74725000D03*
X174950000Y-74725000D03*
X174950000Y-75375000D03*
X174950000Y-76025000D03*
X174950000Y-76675000D03*
X174950000Y-77325000D03*
X174950000Y-77975000D03*
X174950000Y-78625000D03*
X174950000Y-79275000D03*
X169050000Y-79275000D03*
X169050000Y-78625000D03*
X169050000Y-77975000D03*
X169050000Y-77325000D03*
X169050000Y-76675000D03*
X169050000Y-76025000D03*
X169050000Y-75375000D03*
X169050000Y-74725000D03*
M02*
