G04 #@! TF.GenerationSoftware,KiCad,Pcbnew,(5.1.5)-3*
G04 #@! TF.CreationDate,2020-03-11T18:27:50+01:00*
G04 #@! TF.ProjectId,Fulvetta,46756c76-6574-4746-912e-6b696361645f,rev?*
G04 #@! TF.SameCoordinates,Original*
G04 #@! TF.FileFunction,Paste,Top*
G04 #@! TF.FilePolarity,Positive*
%FSLAX46Y46*%
G04 Gerber Fmt 4.6, Leading zero omitted, Abs format (unit mm)*
G04 Created by KiCad (PCBNEW (5.1.5)-3) date 2020-03-11 18:27:50*
%MOMM*%
%LPD*%
G04 APERTURE LIST*
%ADD10C,0.100000*%
%ADD11R,1.500000X0.450000*%
G04 APERTURE END LIST*
D10*
G36*
X157666958Y-115760710D02*
G01*
X157681276Y-115762834D01*
X157695317Y-115766351D01*
X157708946Y-115771228D01*
X157722031Y-115777417D01*
X157734447Y-115784858D01*
X157746073Y-115793481D01*
X157756798Y-115803202D01*
X157766519Y-115813927D01*
X157775142Y-115825553D01*
X157782583Y-115837969D01*
X157788772Y-115851054D01*
X157793649Y-115864683D01*
X157797166Y-115878724D01*
X157799290Y-115893042D01*
X157800000Y-115907500D01*
X157800000Y-116202500D01*
X157799290Y-116216958D01*
X157797166Y-116231276D01*
X157793649Y-116245317D01*
X157788772Y-116258946D01*
X157782583Y-116272031D01*
X157775142Y-116284447D01*
X157766519Y-116296073D01*
X157756798Y-116306798D01*
X157746073Y-116316519D01*
X157734447Y-116325142D01*
X157722031Y-116332583D01*
X157708946Y-116338772D01*
X157695317Y-116343649D01*
X157681276Y-116347166D01*
X157666958Y-116349290D01*
X157652500Y-116350000D01*
X157307500Y-116350000D01*
X157293042Y-116349290D01*
X157278724Y-116347166D01*
X157264683Y-116343649D01*
X157251054Y-116338772D01*
X157237969Y-116332583D01*
X157225553Y-116325142D01*
X157213927Y-116316519D01*
X157203202Y-116306798D01*
X157193481Y-116296073D01*
X157184858Y-116284447D01*
X157177417Y-116272031D01*
X157171228Y-116258946D01*
X157166351Y-116245317D01*
X157162834Y-116231276D01*
X157160710Y-116216958D01*
X157160000Y-116202500D01*
X157160000Y-115907500D01*
X157160710Y-115893042D01*
X157162834Y-115878724D01*
X157166351Y-115864683D01*
X157171228Y-115851054D01*
X157177417Y-115837969D01*
X157184858Y-115825553D01*
X157193481Y-115813927D01*
X157203202Y-115803202D01*
X157213927Y-115793481D01*
X157225553Y-115784858D01*
X157237969Y-115777417D01*
X157251054Y-115771228D01*
X157264683Y-115766351D01*
X157278724Y-115762834D01*
X157293042Y-115760710D01*
X157307500Y-115760000D01*
X157652500Y-115760000D01*
X157666958Y-115760710D01*
G37*
G36*
X157666958Y-114790710D02*
G01*
X157681276Y-114792834D01*
X157695317Y-114796351D01*
X157708946Y-114801228D01*
X157722031Y-114807417D01*
X157734447Y-114814858D01*
X157746073Y-114823481D01*
X157756798Y-114833202D01*
X157766519Y-114843927D01*
X157775142Y-114855553D01*
X157782583Y-114867969D01*
X157788772Y-114881054D01*
X157793649Y-114894683D01*
X157797166Y-114908724D01*
X157799290Y-114923042D01*
X157800000Y-114937500D01*
X157800000Y-115232500D01*
X157799290Y-115246958D01*
X157797166Y-115261276D01*
X157793649Y-115275317D01*
X157788772Y-115288946D01*
X157782583Y-115302031D01*
X157775142Y-115314447D01*
X157766519Y-115326073D01*
X157756798Y-115336798D01*
X157746073Y-115346519D01*
X157734447Y-115355142D01*
X157722031Y-115362583D01*
X157708946Y-115368772D01*
X157695317Y-115373649D01*
X157681276Y-115377166D01*
X157666958Y-115379290D01*
X157652500Y-115380000D01*
X157307500Y-115380000D01*
X157293042Y-115379290D01*
X157278724Y-115377166D01*
X157264683Y-115373649D01*
X157251054Y-115368772D01*
X157237969Y-115362583D01*
X157225553Y-115355142D01*
X157213927Y-115346519D01*
X157203202Y-115336798D01*
X157193481Y-115326073D01*
X157184858Y-115314447D01*
X157177417Y-115302031D01*
X157171228Y-115288946D01*
X157166351Y-115275317D01*
X157162834Y-115261276D01*
X157160710Y-115246958D01*
X157160000Y-115232500D01*
X157160000Y-114937500D01*
X157160710Y-114923042D01*
X157162834Y-114908724D01*
X157166351Y-114894683D01*
X157171228Y-114881054D01*
X157177417Y-114867969D01*
X157184858Y-114855553D01*
X157193481Y-114843927D01*
X157203202Y-114833202D01*
X157213927Y-114823481D01*
X157225553Y-114814858D01*
X157237969Y-114807417D01*
X157251054Y-114801228D01*
X157264683Y-114796351D01*
X157278724Y-114792834D01*
X157293042Y-114790710D01*
X157307500Y-114790000D01*
X157652500Y-114790000D01*
X157666958Y-114790710D01*
G37*
G36*
X157666958Y-110680710D02*
G01*
X157681276Y-110682834D01*
X157695317Y-110686351D01*
X157708946Y-110691228D01*
X157722031Y-110697417D01*
X157734447Y-110704858D01*
X157746073Y-110713481D01*
X157756798Y-110723202D01*
X157766519Y-110733927D01*
X157775142Y-110745553D01*
X157782583Y-110757969D01*
X157788772Y-110771054D01*
X157793649Y-110784683D01*
X157797166Y-110798724D01*
X157799290Y-110813042D01*
X157800000Y-110827500D01*
X157800000Y-111122500D01*
X157799290Y-111136958D01*
X157797166Y-111151276D01*
X157793649Y-111165317D01*
X157788772Y-111178946D01*
X157782583Y-111192031D01*
X157775142Y-111204447D01*
X157766519Y-111216073D01*
X157756798Y-111226798D01*
X157746073Y-111236519D01*
X157734447Y-111245142D01*
X157722031Y-111252583D01*
X157708946Y-111258772D01*
X157695317Y-111263649D01*
X157681276Y-111267166D01*
X157666958Y-111269290D01*
X157652500Y-111270000D01*
X157307500Y-111270000D01*
X157293042Y-111269290D01*
X157278724Y-111267166D01*
X157264683Y-111263649D01*
X157251054Y-111258772D01*
X157237969Y-111252583D01*
X157225553Y-111245142D01*
X157213927Y-111236519D01*
X157203202Y-111226798D01*
X157193481Y-111216073D01*
X157184858Y-111204447D01*
X157177417Y-111192031D01*
X157171228Y-111178946D01*
X157166351Y-111165317D01*
X157162834Y-111151276D01*
X157160710Y-111136958D01*
X157160000Y-111122500D01*
X157160000Y-110827500D01*
X157160710Y-110813042D01*
X157162834Y-110798724D01*
X157166351Y-110784683D01*
X157171228Y-110771054D01*
X157177417Y-110757969D01*
X157184858Y-110745553D01*
X157193481Y-110733927D01*
X157203202Y-110723202D01*
X157213927Y-110713481D01*
X157225553Y-110704858D01*
X157237969Y-110697417D01*
X157251054Y-110691228D01*
X157264683Y-110686351D01*
X157278724Y-110682834D01*
X157293042Y-110680710D01*
X157307500Y-110680000D01*
X157652500Y-110680000D01*
X157666958Y-110680710D01*
G37*
G36*
X157666958Y-109710710D02*
G01*
X157681276Y-109712834D01*
X157695317Y-109716351D01*
X157708946Y-109721228D01*
X157722031Y-109727417D01*
X157734447Y-109734858D01*
X157746073Y-109743481D01*
X157756798Y-109753202D01*
X157766519Y-109763927D01*
X157775142Y-109775553D01*
X157782583Y-109787969D01*
X157788772Y-109801054D01*
X157793649Y-109814683D01*
X157797166Y-109828724D01*
X157799290Y-109843042D01*
X157800000Y-109857500D01*
X157800000Y-110152500D01*
X157799290Y-110166958D01*
X157797166Y-110181276D01*
X157793649Y-110195317D01*
X157788772Y-110208946D01*
X157782583Y-110222031D01*
X157775142Y-110234447D01*
X157766519Y-110246073D01*
X157756798Y-110256798D01*
X157746073Y-110266519D01*
X157734447Y-110275142D01*
X157722031Y-110282583D01*
X157708946Y-110288772D01*
X157695317Y-110293649D01*
X157681276Y-110297166D01*
X157666958Y-110299290D01*
X157652500Y-110300000D01*
X157307500Y-110300000D01*
X157293042Y-110299290D01*
X157278724Y-110297166D01*
X157264683Y-110293649D01*
X157251054Y-110288772D01*
X157237969Y-110282583D01*
X157225553Y-110275142D01*
X157213927Y-110266519D01*
X157203202Y-110256798D01*
X157193481Y-110246073D01*
X157184858Y-110234447D01*
X157177417Y-110222031D01*
X157171228Y-110208946D01*
X157166351Y-110195317D01*
X157162834Y-110181276D01*
X157160710Y-110166958D01*
X157160000Y-110152500D01*
X157160000Y-109857500D01*
X157160710Y-109843042D01*
X157162834Y-109828724D01*
X157166351Y-109814683D01*
X157171228Y-109801054D01*
X157177417Y-109787969D01*
X157184858Y-109775553D01*
X157193481Y-109763927D01*
X157203202Y-109753202D01*
X157213927Y-109743481D01*
X157225553Y-109734858D01*
X157237969Y-109727417D01*
X157251054Y-109721228D01*
X157264683Y-109716351D01*
X157278724Y-109712834D01*
X157293042Y-109710710D01*
X157307500Y-109710000D01*
X157652500Y-109710000D01*
X157666958Y-109710710D01*
G37*
G36*
X157666958Y-105600710D02*
G01*
X157681276Y-105602834D01*
X157695317Y-105606351D01*
X157708946Y-105611228D01*
X157722031Y-105617417D01*
X157734447Y-105624858D01*
X157746073Y-105633481D01*
X157756798Y-105643202D01*
X157766519Y-105653927D01*
X157775142Y-105665553D01*
X157782583Y-105677969D01*
X157788772Y-105691054D01*
X157793649Y-105704683D01*
X157797166Y-105718724D01*
X157799290Y-105733042D01*
X157800000Y-105747500D01*
X157800000Y-106042500D01*
X157799290Y-106056958D01*
X157797166Y-106071276D01*
X157793649Y-106085317D01*
X157788772Y-106098946D01*
X157782583Y-106112031D01*
X157775142Y-106124447D01*
X157766519Y-106136073D01*
X157756798Y-106146798D01*
X157746073Y-106156519D01*
X157734447Y-106165142D01*
X157722031Y-106172583D01*
X157708946Y-106178772D01*
X157695317Y-106183649D01*
X157681276Y-106187166D01*
X157666958Y-106189290D01*
X157652500Y-106190000D01*
X157307500Y-106190000D01*
X157293042Y-106189290D01*
X157278724Y-106187166D01*
X157264683Y-106183649D01*
X157251054Y-106178772D01*
X157237969Y-106172583D01*
X157225553Y-106165142D01*
X157213927Y-106156519D01*
X157203202Y-106146798D01*
X157193481Y-106136073D01*
X157184858Y-106124447D01*
X157177417Y-106112031D01*
X157171228Y-106098946D01*
X157166351Y-106085317D01*
X157162834Y-106071276D01*
X157160710Y-106056958D01*
X157160000Y-106042500D01*
X157160000Y-105747500D01*
X157160710Y-105733042D01*
X157162834Y-105718724D01*
X157166351Y-105704683D01*
X157171228Y-105691054D01*
X157177417Y-105677969D01*
X157184858Y-105665553D01*
X157193481Y-105653927D01*
X157203202Y-105643202D01*
X157213927Y-105633481D01*
X157225553Y-105624858D01*
X157237969Y-105617417D01*
X157251054Y-105611228D01*
X157264683Y-105606351D01*
X157278724Y-105602834D01*
X157293042Y-105600710D01*
X157307500Y-105600000D01*
X157652500Y-105600000D01*
X157666958Y-105600710D01*
G37*
G36*
X157666958Y-104630710D02*
G01*
X157681276Y-104632834D01*
X157695317Y-104636351D01*
X157708946Y-104641228D01*
X157722031Y-104647417D01*
X157734447Y-104654858D01*
X157746073Y-104663481D01*
X157756798Y-104673202D01*
X157766519Y-104683927D01*
X157775142Y-104695553D01*
X157782583Y-104707969D01*
X157788772Y-104721054D01*
X157793649Y-104734683D01*
X157797166Y-104748724D01*
X157799290Y-104763042D01*
X157800000Y-104777500D01*
X157800000Y-105072500D01*
X157799290Y-105086958D01*
X157797166Y-105101276D01*
X157793649Y-105115317D01*
X157788772Y-105128946D01*
X157782583Y-105142031D01*
X157775142Y-105154447D01*
X157766519Y-105166073D01*
X157756798Y-105176798D01*
X157746073Y-105186519D01*
X157734447Y-105195142D01*
X157722031Y-105202583D01*
X157708946Y-105208772D01*
X157695317Y-105213649D01*
X157681276Y-105217166D01*
X157666958Y-105219290D01*
X157652500Y-105220000D01*
X157307500Y-105220000D01*
X157293042Y-105219290D01*
X157278724Y-105217166D01*
X157264683Y-105213649D01*
X157251054Y-105208772D01*
X157237969Y-105202583D01*
X157225553Y-105195142D01*
X157213927Y-105186519D01*
X157203202Y-105176798D01*
X157193481Y-105166073D01*
X157184858Y-105154447D01*
X157177417Y-105142031D01*
X157171228Y-105128946D01*
X157166351Y-105115317D01*
X157162834Y-105101276D01*
X157160710Y-105086958D01*
X157160000Y-105072500D01*
X157160000Y-104777500D01*
X157160710Y-104763042D01*
X157162834Y-104748724D01*
X157166351Y-104734683D01*
X157171228Y-104721054D01*
X157177417Y-104707969D01*
X157184858Y-104695553D01*
X157193481Y-104683927D01*
X157203202Y-104673202D01*
X157213927Y-104663481D01*
X157225553Y-104654858D01*
X157237969Y-104647417D01*
X157251054Y-104641228D01*
X157264683Y-104636351D01*
X157278724Y-104632834D01*
X157293042Y-104630710D01*
X157307500Y-104630000D01*
X157652500Y-104630000D01*
X157666958Y-104630710D01*
G37*
G36*
X157686958Y-92690710D02*
G01*
X157701276Y-92692834D01*
X157715317Y-92696351D01*
X157728946Y-92701228D01*
X157742031Y-92707417D01*
X157754447Y-92714858D01*
X157766073Y-92723481D01*
X157776798Y-92733202D01*
X157786519Y-92743927D01*
X157795142Y-92755553D01*
X157802583Y-92767969D01*
X157808772Y-92781054D01*
X157813649Y-92794683D01*
X157817166Y-92808724D01*
X157819290Y-92823042D01*
X157820000Y-92837500D01*
X157820000Y-93132500D01*
X157819290Y-93146958D01*
X157817166Y-93161276D01*
X157813649Y-93175317D01*
X157808772Y-93188946D01*
X157802583Y-93202031D01*
X157795142Y-93214447D01*
X157786519Y-93226073D01*
X157776798Y-93236798D01*
X157766073Y-93246519D01*
X157754447Y-93255142D01*
X157742031Y-93262583D01*
X157728946Y-93268772D01*
X157715317Y-93273649D01*
X157701276Y-93277166D01*
X157686958Y-93279290D01*
X157672500Y-93280000D01*
X157327500Y-93280000D01*
X157313042Y-93279290D01*
X157298724Y-93277166D01*
X157284683Y-93273649D01*
X157271054Y-93268772D01*
X157257969Y-93262583D01*
X157245553Y-93255142D01*
X157233927Y-93246519D01*
X157223202Y-93236798D01*
X157213481Y-93226073D01*
X157204858Y-93214447D01*
X157197417Y-93202031D01*
X157191228Y-93188946D01*
X157186351Y-93175317D01*
X157182834Y-93161276D01*
X157180710Y-93146958D01*
X157180000Y-93132500D01*
X157180000Y-92837500D01*
X157180710Y-92823042D01*
X157182834Y-92808724D01*
X157186351Y-92794683D01*
X157191228Y-92781054D01*
X157197417Y-92767969D01*
X157204858Y-92755553D01*
X157213481Y-92743927D01*
X157223202Y-92733202D01*
X157233927Y-92723481D01*
X157245553Y-92714858D01*
X157257969Y-92707417D01*
X157271054Y-92701228D01*
X157284683Y-92696351D01*
X157298724Y-92692834D01*
X157313042Y-92690710D01*
X157327500Y-92690000D01*
X157672500Y-92690000D01*
X157686958Y-92690710D01*
G37*
G36*
X157686958Y-91720710D02*
G01*
X157701276Y-91722834D01*
X157715317Y-91726351D01*
X157728946Y-91731228D01*
X157742031Y-91737417D01*
X157754447Y-91744858D01*
X157766073Y-91753481D01*
X157776798Y-91763202D01*
X157786519Y-91773927D01*
X157795142Y-91785553D01*
X157802583Y-91797969D01*
X157808772Y-91811054D01*
X157813649Y-91824683D01*
X157817166Y-91838724D01*
X157819290Y-91853042D01*
X157820000Y-91867500D01*
X157820000Y-92162500D01*
X157819290Y-92176958D01*
X157817166Y-92191276D01*
X157813649Y-92205317D01*
X157808772Y-92218946D01*
X157802583Y-92232031D01*
X157795142Y-92244447D01*
X157786519Y-92256073D01*
X157776798Y-92266798D01*
X157766073Y-92276519D01*
X157754447Y-92285142D01*
X157742031Y-92292583D01*
X157728946Y-92298772D01*
X157715317Y-92303649D01*
X157701276Y-92307166D01*
X157686958Y-92309290D01*
X157672500Y-92310000D01*
X157327500Y-92310000D01*
X157313042Y-92309290D01*
X157298724Y-92307166D01*
X157284683Y-92303649D01*
X157271054Y-92298772D01*
X157257969Y-92292583D01*
X157245553Y-92285142D01*
X157233927Y-92276519D01*
X157223202Y-92266798D01*
X157213481Y-92256073D01*
X157204858Y-92244447D01*
X157197417Y-92232031D01*
X157191228Y-92218946D01*
X157186351Y-92205317D01*
X157182834Y-92191276D01*
X157180710Y-92176958D01*
X157180000Y-92162500D01*
X157180000Y-91867500D01*
X157180710Y-91853042D01*
X157182834Y-91838724D01*
X157186351Y-91824683D01*
X157191228Y-91811054D01*
X157197417Y-91797969D01*
X157204858Y-91785553D01*
X157213481Y-91773927D01*
X157223202Y-91763202D01*
X157233927Y-91753481D01*
X157245553Y-91744858D01*
X157257969Y-91737417D01*
X157271054Y-91731228D01*
X157284683Y-91726351D01*
X157298724Y-91722834D01*
X157313042Y-91720710D01*
X157327500Y-91720000D01*
X157672500Y-91720000D01*
X157686958Y-91720710D01*
G37*
G36*
X160686958Y-92690710D02*
G01*
X160701276Y-92692834D01*
X160715317Y-92696351D01*
X160728946Y-92701228D01*
X160742031Y-92707417D01*
X160754447Y-92714858D01*
X160766073Y-92723481D01*
X160776798Y-92733202D01*
X160786519Y-92743927D01*
X160795142Y-92755553D01*
X160802583Y-92767969D01*
X160808772Y-92781054D01*
X160813649Y-92794683D01*
X160817166Y-92808724D01*
X160819290Y-92823042D01*
X160820000Y-92837500D01*
X160820000Y-93132500D01*
X160819290Y-93146958D01*
X160817166Y-93161276D01*
X160813649Y-93175317D01*
X160808772Y-93188946D01*
X160802583Y-93202031D01*
X160795142Y-93214447D01*
X160786519Y-93226073D01*
X160776798Y-93236798D01*
X160766073Y-93246519D01*
X160754447Y-93255142D01*
X160742031Y-93262583D01*
X160728946Y-93268772D01*
X160715317Y-93273649D01*
X160701276Y-93277166D01*
X160686958Y-93279290D01*
X160672500Y-93280000D01*
X160327500Y-93280000D01*
X160313042Y-93279290D01*
X160298724Y-93277166D01*
X160284683Y-93273649D01*
X160271054Y-93268772D01*
X160257969Y-93262583D01*
X160245553Y-93255142D01*
X160233927Y-93246519D01*
X160223202Y-93236798D01*
X160213481Y-93226073D01*
X160204858Y-93214447D01*
X160197417Y-93202031D01*
X160191228Y-93188946D01*
X160186351Y-93175317D01*
X160182834Y-93161276D01*
X160180710Y-93146958D01*
X160180000Y-93132500D01*
X160180000Y-92837500D01*
X160180710Y-92823042D01*
X160182834Y-92808724D01*
X160186351Y-92794683D01*
X160191228Y-92781054D01*
X160197417Y-92767969D01*
X160204858Y-92755553D01*
X160213481Y-92743927D01*
X160223202Y-92733202D01*
X160233927Y-92723481D01*
X160245553Y-92714858D01*
X160257969Y-92707417D01*
X160271054Y-92701228D01*
X160284683Y-92696351D01*
X160298724Y-92692834D01*
X160313042Y-92690710D01*
X160327500Y-92690000D01*
X160672500Y-92690000D01*
X160686958Y-92690710D01*
G37*
G36*
X160686958Y-91720710D02*
G01*
X160701276Y-91722834D01*
X160715317Y-91726351D01*
X160728946Y-91731228D01*
X160742031Y-91737417D01*
X160754447Y-91744858D01*
X160766073Y-91753481D01*
X160776798Y-91763202D01*
X160786519Y-91773927D01*
X160795142Y-91785553D01*
X160802583Y-91797969D01*
X160808772Y-91811054D01*
X160813649Y-91824683D01*
X160817166Y-91838724D01*
X160819290Y-91853042D01*
X160820000Y-91867500D01*
X160820000Y-92162500D01*
X160819290Y-92176958D01*
X160817166Y-92191276D01*
X160813649Y-92205317D01*
X160808772Y-92218946D01*
X160802583Y-92232031D01*
X160795142Y-92244447D01*
X160786519Y-92256073D01*
X160776798Y-92266798D01*
X160766073Y-92276519D01*
X160754447Y-92285142D01*
X160742031Y-92292583D01*
X160728946Y-92298772D01*
X160715317Y-92303649D01*
X160701276Y-92307166D01*
X160686958Y-92309290D01*
X160672500Y-92310000D01*
X160327500Y-92310000D01*
X160313042Y-92309290D01*
X160298724Y-92307166D01*
X160284683Y-92303649D01*
X160271054Y-92298772D01*
X160257969Y-92292583D01*
X160245553Y-92285142D01*
X160233927Y-92276519D01*
X160223202Y-92266798D01*
X160213481Y-92256073D01*
X160204858Y-92244447D01*
X160197417Y-92232031D01*
X160191228Y-92218946D01*
X160186351Y-92205317D01*
X160182834Y-92191276D01*
X160180710Y-92176958D01*
X160180000Y-92162500D01*
X160180000Y-91867500D01*
X160180710Y-91853042D01*
X160182834Y-91838724D01*
X160186351Y-91824683D01*
X160191228Y-91811054D01*
X160197417Y-91797969D01*
X160204858Y-91785553D01*
X160213481Y-91773927D01*
X160223202Y-91763202D01*
X160233927Y-91753481D01*
X160245553Y-91744858D01*
X160257969Y-91737417D01*
X160271054Y-91731228D01*
X160284683Y-91726351D01*
X160298724Y-91722834D01*
X160313042Y-91720710D01*
X160327500Y-91720000D01*
X160672500Y-91720000D01*
X160686958Y-91720710D01*
G37*
G36*
X161686958Y-91720710D02*
G01*
X161701276Y-91722834D01*
X161715317Y-91726351D01*
X161728946Y-91731228D01*
X161742031Y-91737417D01*
X161754447Y-91744858D01*
X161766073Y-91753481D01*
X161776798Y-91763202D01*
X161786519Y-91773927D01*
X161795142Y-91785553D01*
X161802583Y-91797969D01*
X161808772Y-91811054D01*
X161813649Y-91824683D01*
X161817166Y-91838724D01*
X161819290Y-91853042D01*
X161820000Y-91867500D01*
X161820000Y-92162500D01*
X161819290Y-92176958D01*
X161817166Y-92191276D01*
X161813649Y-92205317D01*
X161808772Y-92218946D01*
X161802583Y-92232031D01*
X161795142Y-92244447D01*
X161786519Y-92256073D01*
X161776798Y-92266798D01*
X161766073Y-92276519D01*
X161754447Y-92285142D01*
X161742031Y-92292583D01*
X161728946Y-92298772D01*
X161715317Y-92303649D01*
X161701276Y-92307166D01*
X161686958Y-92309290D01*
X161672500Y-92310000D01*
X161327500Y-92310000D01*
X161313042Y-92309290D01*
X161298724Y-92307166D01*
X161284683Y-92303649D01*
X161271054Y-92298772D01*
X161257969Y-92292583D01*
X161245553Y-92285142D01*
X161233927Y-92276519D01*
X161223202Y-92266798D01*
X161213481Y-92256073D01*
X161204858Y-92244447D01*
X161197417Y-92232031D01*
X161191228Y-92218946D01*
X161186351Y-92205317D01*
X161182834Y-92191276D01*
X161180710Y-92176958D01*
X161180000Y-92162500D01*
X161180000Y-91867500D01*
X161180710Y-91853042D01*
X161182834Y-91838724D01*
X161186351Y-91824683D01*
X161191228Y-91811054D01*
X161197417Y-91797969D01*
X161204858Y-91785553D01*
X161213481Y-91773927D01*
X161223202Y-91763202D01*
X161233927Y-91753481D01*
X161245553Y-91744858D01*
X161257969Y-91737417D01*
X161271054Y-91731228D01*
X161284683Y-91726351D01*
X161298724Y-91722834D01*
X161313042Y-91720710D01*
X161327500Y-91720000D01*
X161672500Y-91720000D01*
X161686958Y-91720710D01*
G37*
G36*
X161686958Y-92690710D02*
G01*
X161701276Y-92692834D01*
X161715317Y-92696351D01*
X161728946Y-92701228D01*
X161742031Y-92707417D01*
X161754447Y-92714858D01*
X161766073Y-92723481D01*
X161776798Y-92733202D01*
X161786519Y-92743927D01*
X161795142Y-92755553D01*
X161802583Y-92767969D01*
X161808772Y-92781054D01*
X161813649Y-92794683D01*
X161817166Y-92808724D01*
X161819290Y-92823042D01*
X161820000Y-92837500D01*
X161820000Y-93132500D01*
X161819290Y-93146958D01*
X161817166Y-93161276D01*
X161813649Y-93175317D01*
X161808772Y-93188946D01*
X161802583Y-93202031D01*
X161795142Y-93214447D01*
X161786519Y-93226073D01*
X161776798Y-93236798D01*
X161766073Y-93246519D01*
X161754447Y-93255142D01*
X161742031Y-93262583D01*
X161728946Y-93268772D01*
X161715317Y-93273649D01*
X161701276Y-93277166D01*
X161686958Y-93279290D01*
X161672500Y-93280000D01*
X161327500Y-93280000D01*
X161313042Y-93279290D01*
X161298724Y-93277166D01*
X161284683Y-93273649D01*
X161271054Y-93268772D01*
X161257969Y-93262583D01*
X161245553Y-93255142D01*
X161233927Y-93246519D01*
X161223202Y-93236798D01*
X161213481Y-93226073D01*
X161204858Y-93214447D01*
X161197417Y-93202031D01*
X161191228Y-93188946D01*
X161186351Y-93175317D01*
X161182834Y-93161276D01*
X161180710Y-93146958D01*
X161180000Y-93132500D01*
X161180000Y-92837500D01*
X161180710Y-92823042D01*
X161182834Y-92808724D01*
X161186351Y-92794683D01*
X161191228Y-92781054D01*
X161197417Y-92767969D01*
X161204858Y-92755553D01*
X161213481Y-92743927D01*
X161223202Y-92733202D01*
X161233927Y-92723481D01*
X161245553Y-92714858D01*
X161257969Y-92707417D01*
X161271054Y-92701228D01*
X161284683Y-92696351D01*
X161298724Y-92692834D01*
X161313042Y-92690710D01*
X161327500Y-92690000D01*
X161672500Y-92690000D01*
X161686958Y-92690710D01*
G37*
G36*
X160686958Y-105690710D02*
G01*
X160701276Y-105692834D01*
X160715317Y-105696351D01*
X160728946Y-105701228D01*
X160742031Y-105707417D01*
X160754447Y-105714858D01*
X160766073Y-105723481D01*
X160776798Y-105733202D01*
X160786519Y-105743927D01*
X160795142Y-105755553D01*
X160802583Y-105767969D01*
X160808772Y-105781054D01*
X160813649Y-105794683D01*
X160817166Y-105808724D01*
X160819290Y-105823042D01*
X160820000Y-105837500D01*
X160820000Y-106132500D01*
X160819290Y-106146958D01*
X160817166Y-106161276D01*
X160813649Y-106175317D01*
X160808772Y-106188946D01*
X160802583Y-106202031D01*
X160795142Y-106214447D01*
X160786519Y-106226073D01*
X160776798Y-106236798D01*
X160766073Y-106246519D01*
X160754447Y-106255142D01*
X160742031Y-106262583D01*
X160728946Y-106268772D01*
X160715317Y-106273649D01*
X160701276Y-106277166D01*
X160686958Y-106279290D01*
X160672500Y-106280000D01*
X160327500Y-106280000D01*
X160313042Y-106279290D01*
X160298724Y-106277166D01*
X160284683Y-106273649D01*
X160271054Y-106268772D01*
X160257969Y-106262583D01*
X160245553Y-106255142D01*
X160233927Y-106246519D01*
X160223202Y-106236798D01*
X160213481Y-106226073D01*
X160204858Y-106214447D01*
X160197417Y-106202031D01*
X160191228Y-106188946D01*
X160186351Y-106175317D01*
X160182834Y-106161276D01*
X160180710Y-106146958D01*
X160180000Y-106132500D01*
X160180000Y-105837500D01*
X160180710Y-105823042D01*
X160182834Y-105808724D01*
X160186351Y-105794683D01*
X160191228Y-105781054D01*
X160197417Y-105767969D01*
X160204858Y-105755553D01*
X160213481Y-105743927D01*
X160223202Y-105733202D01*
X160233927Y-105723481D01*
X160245553Y-105714858D01*
X160257969Y-105707417D01*
X160271054Y-105701228D01*
X160284683Y-105696351D01*
X160298724Y-105692834D01*
X160313042Y-105690710D01*
X160327500Y-105690000D01*
X160672500Y-105690000D01*
X160686958Y-105690710D01*
G37*
G36*
X160686958Y-104720710D02*
G01*
X160701276Y-104722834D01*
X160715317Y-104726351D01*
X160728946Y-104731228D01*
X160742031Y-104737417D01*
X160754447Y-104744858D01*
X160766073Y-104753481D01*
X160776798Y-104763202D01*
X160786519Y-104773927D01*
X160795142Y-104785553D01*
X160802583Y-104797969D01*
X160808772Y-104811054D01*
X160813649Y-104824683D01*
X160817166Y-104838724D01*
X160819290Y-104853042D01*
X160820000Y-104867500D01*
X160820000Y-105162500D01*
X160819290Y-105176958D01*
X160817166Y-105191276D01*
X160813649Y-105205317D01*
X160808772Y-105218946D01*
X160802583Y-105232031D01*
X160795142Y-105244447D01*
X160786519Y-105256073D01*
X160776798Y-105266798D01*
X160766073Y-105276519D01*
X160754447Y-105285142D01*
X160742031Y-105292583D01*
X160728946Y-105298772D01*
X160715317Y-105303649D01*
X160701276Y-105307166D01*
X160686958Y-105309290D01*
X160672500Y-105310000D01*
X160327500Y-105310000D01*
X160313042Y-105309290D01*
X160298724Y-105307166D01*
X160284683Y-105303649D01*
X160271054Y-105298772D01*
X160257969Y-105292583D01*
X160245553Y-105285142D01*
X160233927Y-105276519D01*
X160223202Y-105266798D01*
X160213481Y-105256073D01*
X160204858Y-105244447D01*
X160197417Y-105232031D01*
X160191228Y-105218946D01*
X160186351Y-105205317D01*
X160182834Y-105191276D01*
X160180710Y-105176958D01*
X160180000Y-105162500D01*
X160180000Y-104867500D01*
X160180710Y-104853042D01*
X160182834Y-104838724D01*
X160186351Y-104824683D01*
X160191228Y-104811054D01*
X160197417Y-104797969D01*
X160204858Y-104785553D01*
X160213481Y-104773927D01*
X160223202Y-104763202D01*
X160233927Y-104753481D01*
X160245553Y-104744858D01*
X160257969Y-104737417D01*
X160271054Y-104731228D01*
X160284683Y-104726351D01*
X160298724Y-104722834D01*
X160313042Y-104720710D01*
X160327500Y-104720000D01*
X160672500Y-104720000D01*
X160686958Y-104720710D01*
G37*
G36*
X161686958Y-104720710D02*
G01*
X161701276Y-104722834D01*
X161715317Y-104726351D01*
X161728946Y-104731228D01*
X161742031Y-104737417D01*
X161754447Y-104744858D01*
X161766073Y-104753481D01*
X161776798Y-104763202D01*
X161786519Y-104773927D01*
X161795142Y-104785553D01*
X161802583Y-104797969D01*
X161808772Y-104811054D01*
X161813649Y-104824683D01*
X161817166Y-104838724D01*
X161819290Y-104853042D01*
X161820000Y-104867500D01*
X161820000Y-105162500D01*
X161819290Y-105176958D01*
X161817166Y-105191276D01*
X161813649Y-105205317D01*
X161808772Y-105218946D01*
X161802583Y-105232031D01*
X161795142Y-105244447D01*
X161786519Y-105256073D01*
X161776798Y-105266798D01*
X161766073Y-105276519D01*
X161754447Y-105285142D01*
X161742031Y-105292583D01*
X161728946Y-105298772D01*
X161715317Y-105303649D01*
X161701276Y-105307166D01*
X161686958Y-105309290D01*
X161672500Y-105310000D01*
X161327500Y-105310000D01*
X161313042Y-105309290D01*
X161298724Y-105307166D01*
X161284683Y-105303649D01*
X161271054Y-105298772D01*
X161257969Y-105292583D01*
X161245553Y-105285142D01*
X161233927Y-105276519D01*
X161223202Y-105266798D01*
X161213481Y-105256073D01*
X161204858Y-105244447D01*
X161197417Y-105232031D01*
X161191228Y-105218946D01*
X161186351Y-105205317D01*
X161182834Y-105191276D01*
X161180710Y-105176958D01*
X161180000Y-105162500D01*
X161180000Y-104867500D01*
X161180710Y-104853042D01*
X161182834Y-104838724D01*
X161186351Y-104824683D01*
X161191228Y-104811054D01*
X161197417Y-104797969D01*
X161204858Y-104785553D01*
X161213481Y-104773927D01*
X161223202Y-104763202D01*
X161233927Y-104753481D01*
X161245553Y-104744858D01*
X161257969Y-104737417D01*
X161271054Y-104731228D01*
X161284683Y-104726351D01*
X161298724Y-104722834D01*
X161313042Y-104720710D01*
X161327500Y-104720000D01*
X161672500Y-104720000D01*
X161686958Y-104720710D01*
G37*
G36*
X161686958Y-105690710D02*
G01*
X161701276Y-105692834D01*
X161715317Y-105696351D01*
X161728946Y-105701228D01*
X161742031Y-105707417D01*
X161754447Y-105714858D01*
X161766073Y-105723481D01*
X161776798Y-105733202D01*
X161786519Y-105743927D01*
X161795142Y-105755553D01*
X161802583Y-105767969D01*
X161808772Y-105781054D01*
X161813649Y-105794683D01*
X161817166Y-105808724D01*
X161819290Y-105823042D01*
X161820000Y-105837500D01*
X161820000Y-106132500D01*
X161819290Y-106146958D01*
X161817166Y-106161276D01*
X161813649Y-106175317D01*
X161808772Y-106188946D01*
X161802583Y-106202031D01*
X161795142Y-106214447D01*
X161786519Y-106226073D01*
X161776798Y-106236798D01*
X161766073Y-106246519D01*
X161754447Y-106255142D01*
X161742031Y-106262583D01*
X161728946Y-106268772D01*
X161715317Y-106273649D01*
X161701276Y-106277166D01*
X161686958Y-106279290D01*
X161672500Y-106280000D01*
X161327500Y-106280000D01*
X161313042Y-106279290D01*
X161298724Y-106277166D01*
X161284683Y-106273649D01*
X161271054Y-106268772D01*
X161257969Y-106262583D01*
X161245553Y-106255142D01*
X161233927Y-106246519D01*
X161223202Y-106236798D01*
X161213481Y-106226073D01*
X161204858Y-106214447D01*
X161197417Y-106202031D01*
X161191228Y-106188946D01*
X161186351Y-106175317D01*
X161182834Y-106161276D01*
X161180710Y-106146958D01*
X161180000Y-106132500D01*
X161180000Y-105837500D01*
X161180710Y-105823042D01*
X161182834Y-105808724D01*
X161186351Y-105794683D01*
X161191228Y-105781054D01*
X161197417Y-105767969D01*
X161204858Y-105755553D01*
X161213481Y-105743927D01*
X161223202Y-105733202D01*
X161233927Y-105723481D01*
X161245553Y-105714858D01*
X161257969Y-105707417D01*
X161271054Y-105701228D01*
X161284683Y-105696351D01*
X161298724Y-105692834D01*
X161313042Y-105690710D01*
X161327500Y-105690000D01*
X161672500Y-105690000D01*
X161686958Y-105690710D01*
G37*
G36*
X160686958Y-110690710D02*
G01*
X160701276Y-110692834D01*
X160715317Y-110696351D01*
X160728946Y-110701228D01*
X160742031Y-110707417D01*
X160754447Y-110714858D01*
X160766073Y-110723481D01*
X160776798Y-110733202D01*
X160786519Y-110743927D01*
X160795142Y-110755553D01*
X160802583Y-110767969D01*
X160808772Y-110781054D01*
X160813649Y-110794683D01*
X160817166Y-110808724D01*
X160819290Y-110823042D01*
X160820000Y-110837500D01*
X160820000Y-111132500D01*
X160819290Y-111146958D01*
X160817166Y-111161276D01*
X160813649Y-111175317D01*
X160808772Y-111188946D01*
X160802583Y-111202031D01*
X160795142Y-111214447D01*
X160786519Y-111226073D01*
X160776798Y-111236798D01*
X160766073Y-111246519D01*
X160754447Y-111255142D01*
X160742031Y-111262583D01*
X160728946Y-111268772D01*
X160715317Y-111273649D01*
X160701276Y-111277166D01*
X160686958Y-111279290D01*
X160672500Y-111280000D01*
X160327500Y-111280000D01*
X160313042Y-111279290D01*
X160298724Y-111277166D01*
X160284683Y-111273649D01*
X160271054Y-111268772D01*
X160257969Y-111262583D01*
X160245553Y-111255142D01*
X160233927Y-111246519D01*
X160223202Y-111236798D01*
X160213481Y-111226073D01*
X160204858Y-111214447D01*
X160197417Y-111202031D01*
X160191228Y-111188946D01*
X160186351Y-111175317D01*
X160182834Y-111161276D01*
X160180710Y-111146958D01*
X160180000Y-111132500D01*
X160180000Y-110837500D01*
X160180710Y-110823042D01*
X160182834Y-110808724D01*
X160186351Y-110794683D01*
X160191228Y-110781054D01*
X160197417Y-110767969D01*
X160204858Y-110755553D01*
X160213481Y-110743927D01*
X160223202Y-110733202D01*
X160233927Y-110723481D01*
X160245553Y-110714858D01*
X160257969Y-110707417D01*
X160271054Y-110701228D01*
X160284683Y-110696351D01*
X160298724Y-110692834D01*
X160313042Y-110690710D01*
X160327500Y-110690000D01*
X160672500Y-110690000D01*
X160686958Y-110690710D01*
G37*
G36*
X160686958Y-109720710D02*
G01*
X160701276Y-109722834D01*
X160715317Y-109726351D01*
X160728946Y-109731228D01*
X160742031Y-109737417D01*
X160754447Y-109744858D01*
X160766073Y-109753481D01*
X160776798Y-109763202D01*
X160786519Y-109773927D01*
X160795142Y-109785553D01*
X160802583Y-109797969D01*
X160808772Y-109811054D01*
X160813649Y-109824683D01*
X160817166Y-109838724D01*
X160819290Y-109853042D01*
X160820000Y-109867500D01*
X160820000Y-110162500D01*
X160819290Y-110176958D01*
X160817166Y-110191276D01*
X160813649Y-110205317D01*
X160808772Y-110218946D01*
X160802583Y-110232031D01*
X160795142Y-110244447D01*
X160786519Y-110256073D01*
X160776798Y-110266798D01*
X160766073Y-110276519D01*
X160754447Y-110285142D01*
X160742031Y-110292583D01*
X160728946Y-110298772D01*
X160715317Y-110303649D01*
X160701276Y-110307166D01*
X160686958Y-110309290D01*
X160672500Y-110310000D01*
X160327500Y-110310000D01*
X160313042Y-110309290D01*
X160298724Y-110307166D01*
X160284683Y-110303649D01*
X160271054Y-110298772D01*
X160257969Y-110292583D01*
X160245553Y-110285142D01*
X160233927Y-110276519D01*
X160223202Y-110266798D01*
X160213481Y-110256073D01*
X160204858Y-110244447D01*
X160197417Y-110232031D01*
X160191228Y-110218946D01*
X160186351Y-110205317D01*
X160182834Y-110191276D01*
X160180710Y-110176958D01*
X160180000Y-110162500D01*
X160180000Y-109867500D01*
X160180710Y-109853042D01*
X160182834Y-109838724D01*
X160186351Y-109824683D01*
X160191228Y-109811054D01*
X160197417Y-109797969D01*
X160204858Y-109785553D01*
X160213481Y-109773927D01*
X160223202Y-109763202D01*
X160233927Y-109753481D01*
X160245553Y-109744858D01*
X160257969Y-109737417D01*
X160271054Y-109731228D01*
X160284683Y-109726351D01*
X160298724Y-109722834D01*
X160313042Y-109720710D01*
X160327500Y-109720000D01*
X160672500Y-109720000D01*
X160686958Y-109720710D01*
G37*
G36*
X161686958Y-109720710D02*
G01*
X161701276Y-109722834D01*
X161715317Y-109726351D01*
X161728946Y-109731228D01*
X161742031Y-109737417D01*
X161754447Y-109744858D01*
X161766073Y-109753481D01*
X161776798Y-109763202D01*
X161786519Y-109773927D01*
X161795142Y-109785553D01*
X161802583Y-109797969D01*
X161808772Y-109811054D01*
X161813649Y-109824683D01*
X161817166Y-109838724D01*
X161819290Y-109853042D01*
X161820000Y-109867500D01*
X161820000Y-110162500D01*
X161819290Y-110176958D01*
X161817166Y-110191276D01*
X161813649Y-110205317D01*
X161808772Y-110218946D01*
X161802583Y-110232031D01*
X161795142Y-110244447D01*
X161786519Y-110256073D01*
X161776798Y-110266798D01*
X161766073Y-110276519D01*
X161754447Y-110285142D01*
X161742031Y-110292583D01*
X161728946Y-110298772D01*
X161715317Y-110303649D01*
X161701276Y-110307166D01*
X161686958Y-110309290D01*
X161672500Y-110310000D01*
X161327500Y-110310000D01*
X161313042Y-110309290D01*
X161298724Y-110307166D01*
X161284683Y-110303649D01*
X161271054Y-110298772D01*
X161257969Y-110292583D01*
X161245553Y-110285142D01*
X161233927Y-110276519D01*
X161223202Y-110266798D01*
X161213481Y-110256073D01*
X161204858Y-110244447D01*
X161197417Y-110232031D01*
X161191228Y-110218946D01*
X161186351Y-110205317D01*
X161182834Y-110191276D01*
X161180710Y-110176958D01*
X161180000Y-110162500D01*
X161180000Y-109867500D01*
X161180710Y-109853042D01*
X161182834Y-109838724D01*
X161186351Y-109824683D01*
X161191228Y-109811054D01*
X161197417Y-109797969D01*
X161204858Y-109785553D01*
X161213481Y-109773927D01*
X161223202Y-109763202D01*
X161233927Y-109753481D01*
X161245553Y-109744858D01*
X161257969Y-109737417D01*
X161271054Y-109731228D01*
X161284683Y-109726351D01*
X161298724Y-109722834D01*
X161313042Y-109720710D01*
X161327500Y-109720000D01*
X161672500Y-109720000D01*
X161686958Y-109720710D01*
G37*
G36*
X161686958Y-110690710D02*
G01*
X161701276Y-110692834D01*
X161715317Y-110696351D01*
X161728946Y-110701228D01*
X161742031Y-110707417D01*
X161754447Y-110714858D01*
X161766073Y-110723481D01*
X161776798Y-110733202D01*
X161786519Y-110743927D01*
X161795142Y-110755553D01*
X161802583Y-110767969D01*
X161808772Y-110781054D01*
X161813649Y-110794683D01*
X161817166Y-110808724D01*
X161819290Y-110823042D01*
X161820000Y-110837500D01*
X161820000Y-111132500D01*
X161819290Y-111146958D01*
X161817166Y-111161276D01*
X161813649Y-111175317D01*
X161808772Y-111188946D01*
X161802583Y-111202031D01*
X161795142Y-111214447D01*
X161786519Y-111226073D01*
X161776798Y-111236798D01*
X161766073Y-111246519D01*
X161754447Y-111255142D01*
X161742031Y-111262583D01*
X161728946Y-111268772D01*
X161715317Y-111273649D01*
X161701276Y-111277166D01*
X161686958Y-111279290D01*
X161672500Y-111280000D01*
X161327500Y-111280000D01*
X161313042Y-111279290D01*
X161298724Y-111277166D01*
X161284683Y-111273649D01*
X161271054Y-111268772D01*
X161257969Y-111262583D01*
X161245553Y-111255142D01*
X161233927Y-111246519D01*
X161223202Y-111236798D01*
X161213481Y-111226073D01*
X161204858Y-111214447D01*
X161197417Y-111202031D01*
X161191228Y-111188946D01*
X161186351Y-111175317D01*
X161182834Y-111161276D01*
X161180710Y-111146958D01*
X161180000Y-111132500D01*
X161180000Y-110837500D01*
X161180710Y-110823042D01*
X161182834Y-110808724D01*
X161186351Y-110794683D01*
X161191228Y-110781054D01*
X161197417Y-110767969D01*
X161204858Y-110755553D01*
X161213481Y-110743927D01*
X161223202Y-110733202D01*
X161233927Y-110723481D01*
X161245553Y-110714858D01*
X161257969Y-110707417D01*
X161271054Y-110701228D01*
X161284683Y-110696351D01*
X161298724Y-110692834D01*
X161313042Y-110690710D01*
X161327500Y-110690000D01*
X161672500Y-110690000D01*
X161686958Y-110690710D01*
G37*
G36*
X160686958Y-115675710D02*
G01*
X160701276Y-115677834D01*
X160715317Y-115681351D01*
X160728946Y-115686228D01*
X160742031Y-115692417D01*
X160754447Y-115699858D01*
X160766073Y-115708481D01*
X160776798Y-115718202D01*
X160786519Y-115728927D01*
X160795142Y-115740553D01*
X160802583Y-115752969D01*
X160808772Y-115766054D01*
X160813649Y-115779683D01*
X160817166Y-115793724D01*
X160819290Y-115808042D01*
X160820000Y-115822500D01*
X160820000Y-116117500D01*
X160819290Y-116131958D01*
X160817166Y-116146276D01*
X160813649Y-116160317D01*
X160808772Y-116173946D01*
X160802583Y-116187031D01*
X160795142Y-116199447D01*
X160786519Y-116211073D01*
X160776798Y-116221798D01*
X160766073Y-116231519D01*
X160754447Y-116240142D01*
X160742031Y-116247583D01*
X160728946Y-116253772D01*
X160715317Y-116258649D01*
X160701276Y-116262166D01*
X160686958Y-116264290D01*
X160672500Y-116265000D01*
X160327500Y-116265000D01*
X160313042Y-116264290D01*
X160298724Y-116262166D01*
X160284683Y-116258649D01*
X160271054Y-116253772D01*
X160257969Y-116247583D01*
X160245553Y-116240142D01*
X160233927Y-116231519D01*
X160223202Y-116221798D01*
X160213481Y-116211073D01*
X160204858Y-116199447D01*
X160197417Y-116187031D01*
X160191228Y-116173946D01*
X160186351Y-116160317D01*
X160182834Y-116146276D01*
X160180710Y-116131958D01*
X160180000Y-116117500D01*
X160180000Y-115822500D01*
X160180710Y-115808042D01*
X160182834Y-115793724D01*
X160186351Y-115779683D01*
X160191228Y-115766054D01*
X160197417Y-115752969D01*
X160204858Y-115740553D01*
X160213481Y-115728927D01*
X160223202Y-115718202D01*
X160233927Y-115708481D01*
X160245553Y-115699858D01*
X160257969Y-115692417D01*
X160271054Y-115686228D01*
X160284683Y-115681351D01*
X160298724Y-115677834D01*
X160313042Y-115675710D01*
X160327500Y-115675000D01*
X160672500Y-115675000D01*
X160686958Y-115675710D01*
G37*
G36*
X160686958Y-114705710D02*
G01*
X160701276Y-114707834D01*
X160715317Y-114711351D01*
X160728946Y-114716228D01*
X160742031Y-114722417D01*
X160754447Y-114729858D01*
X160766073Y-114738481D01*
X160776798Y-114748202D01*
X160786519Y-114758927D01*
X160795142Y-114770553D01*
X160802583Y-114782969D01*
X160808772Y-114796054D01*
X160813649Y-114809683D01*
X160817166Y-114823724D01*
X160819290Y-114838042D01*
X160820000Y-114852500D01*
X160820000Y-115147500D01*
X160819290Y-115161958D01*
X160817166Y-115176276D01*
X160813649Y-115190317D01*
X160808772Y-115203946D01*
X160802583Y-115217031D01*
X160795142Y-115229447D01*
X160786519Y-115241073D01*
X160776798Y-115251798D01*
X160766073Y-115261519D01*
X160754447Y-115270142D01*
X160742031Y-115277583D01*
X160728946Y-115283772D01*
X160715317Y-115288649D01*
X160701276Y-115292166D01*
X160686958Y-115294290D01*
X160672500Y-115295000D01*
X160327500Y-115295000D01*
X160313042Y-115294290D01*
X160298724Y-115292166D01*
X160284683Y-115288649D01*
X160271054Y-115283772D01*
X160257969Y-115277583D01*
X160245553Y-115270142D01*
X160233927Y-115261519D01*
X160223202Y-115251798D01*
X160213481Y-115241073D01*
X160204858Y-115229447D01*
X160197417Y-115217031D01*
X160191228Y-115203946D01*
X160186351Y-115190317D01*
X160182834Y-115176276D01*
X160180710Y-115161958D01*
X160180000Y-115147500D01*
X160180000Y-114852500D01*
X160180710Y-114838042D01*
X160182834Y-114823724D01*
X160186351Y-114809683D01*
X160191228Y-114796054D01*
X160197417Y-114782969D01*
X160204858Y-114770553D01*
X160213481Y-114758927D01*
X160223202Y-114748202D01*
X160233927Y-114738481D01*
X160245553Y-114729858D01*
X160257969Y-114722417D01*
X160271054Y-114716228D01*
X160284683Y-114711351D01*
X160298724Y-114707834D01*
X160313042Y-114705710D01*
X160327500Y-114705000D01*
X160672500Y-114705000D01*
X160686958Y-114705710D01*
G37*
G36*
X161686958Y-114720710D02*
G01*
X161701276Y-114722834D01*
X161715317Y-114726351D01*
X161728946Y-114731228D01*
X161742031Y-114737417D01*
X161754447Y-114744858D01*
X161766073Y-114753481D01*
X161776798Y-114763202D01*
X161786519Y-114773927D01*
X161795142Y-114785553D01*
X161802583Y-114797969D01*
X161808772Y-114811054D01*
X161813649Y-114824683D01*
X161817166Y-114838724D01*
X161819290Y-114853042D01*
X161820000Y-114867500D01*
X161820000Y-115162500D01*
X161819290Y-115176958D01*
X161817166Y-115191276D01*
X161813649Y-115205317D01*
X161808772Y-115218946D01*
X161802583Y-115232031D01*
X161795142Y-115244447D01*
X161786519Y-115256073D01*
X161776798Y-115266798D01*
X161766073Y-115276519D01*
X161754447Y-115285142D01*
X161742031Y-115292583D01*
X161728946Y-115298772D01*
X161715317Y-115303649D01*
X161701276Y-115307166D01*
X161686958Y-115309290D01*
X161672500Y-115310000D01*
X161327500Y-115310000D01*
X161313042Y-115309290D01*
X161298724Y-115307166D01*
X161284683Y-115303649D01*
X161271054Y-115298772D01*
X161257969Y-115292583D01*
X161245553Y-115285142D01*
X161233927Y-115276519D01*
X161223202Y-115266798D01*
X161213481Y-115256073D01*
X161204858Y-115244447D01*
X161197417Y-115232031D01*
X161191228Y-115218946D01*
X161186351Y-115205317D01*
X161182834Y-115191276D01*
X161180710Y-115176958D01*
X161180000Y-115162500D01*
X161180000Y-114867500D01*
X161180710Y-114853042D01*
X161182834Y-114838724D01*
X161186351Y-114824683D01*
X161191228Y-114811054D01*
X161197417Y-114797969D01*
X161204858Y-114785553D01*
X161213481Y-114773927D01*
X161223202Y-114763202D01*
X161233927Y-114753481D01*
X161245553Y-114744858D01*
X161257969Y-114737417D01*
X161271054Y-114731228D01*
X161284683Y-114726351D01*
X161298724Y-114722834D01*
X161313042Y-114720710D01*
X161327500Y-114720000D01*
X161672500Y-114720000D01*
X161686958Y-114720710D01*
G37*
G36*
X161686958Y-115690710D02*
G01*
X161701276Y-115692834D01*
X161715317Y-115696351D01*
X161728946Y-115701228D01*
X161742031Y-115707417D01*
X161754447Y-115714858D01*
X161766073Y-115723481D01*
X161776798Y-115733202D01*
X161786519Y-115743927D01*
X161795142Y-115755553D01*
X161802583Y-115767969D01*
X161808772Y-115781054D01*
X161813649Y-115794683D01*
X161817166Y-115808724D01*
X161819290Y-115823042D01*
X161820000Y-115837500D01*
X161820000Y-116132500D01*
X161819290Y-116146958D01*
X161817166Y-116161276D01*
X161813649Y-116175317D01*
X161808772Y-116188946D01*
X161802583Y-116202031D01*
X161795142Y-116214447D01*
X161786519Y-116226073D01*
X161776798Y-116236798D01*
X161766073Y-116246519D01*
X161754447Y-116255142D01*
X161742031Y-116262583D01*
X161728946Y-116268772D01*
X161715317Y-116273649D01*
X161701276Y-116277166D01*
X161686958Y-116279290D01*
X161672500Y-116280000D01*
X161327500Y-116280000D01*
X161313042Y-116279290D01*
X161298724Y-116277166D01*
X161284683Y-116273649D01*
X161271054Y-116268772D01*
X161257969Y-116262583D01*
X161245553Y-116255142D01*
X161233927Y-116246519D01*
X161223202Y-116236798D01*
X161213481Y-116226073D01*
X161204858Y-116214447D01*
X161197417Y-116202031D01*
X161191228Y-116188946D01*
X161186351Y-116175317D01*
X161182834Y-116161276D01*
X161180710Y-116146958D01*
X161180000Y-116132500D01*
X161180000Y-115837500D01*
X161180710Y-115823042D01*
X161182834Y-115808724D01*
X161186351Y-115794683D01*
X161191228Y-115781054D01*
X161197417Y-115767969D01*
X161204858Y-115755553D01*
X161213481Y-115743927D01*
X161223202Y-115733202D01*
X161233927Y-115723481D01*
X161245553Y-115714858D01*
X161257969Y-115707417D01*
X161271054Y-115701228D01*
X161284683Y-115696351D01*
X161298724Y-115692834D01*
X161313042Y-115690710D01*
X161327500Y-115690000D01*
X161672500Y-115690000D01*
X161686958Y-115690710D01*
G37*
G36*
X159646958Y-115680710D02*
G01*
X159661276Y-115682834D01*
X159675317Y-115686351D01*
X159688946Y-115691228D01*
X159702031Y-115697417D01*
X159714447Y-115704858D01*
X159726073Y-115713481D01*
X159736798Y-115723202D01*
X159746519Y-115733927D01*
X159755142Y-115745553D01*
X159762583Y-115757969D01*
X159768772Y-115771054D01*
X159773649Y-115784683D01*
X159777166Y-115798724D01*
X159779290Y-115813042D01*
X159780000Y-115827500D01*
X159780000Y-116172500D01*
X159779290Y-116186958D01*
X159777166Y-116201276D01*
X159773649Y-116215317D01*
X159768772Y-116228946D01*
X159762583Y-116242031D01*
X159755142Y-116254447D01*
X159746519Y-116266073D01*
X159736798Y-116276798D01*
X159726073Y-116286519D01*
X159714447Y-116295142D01*
X159702031Y-116302583D01*
X159688946Y-116308772D01*
X159675317Y-116313649D01*
X159661276Y-116317166D01*
X159646958Y-116319290D01*
X159632500Y-116320000D01*
X159337500Y-116320000D01*
X159323042Y-116319290D01*
X159308724Y-116317166D01*
X159294683Y-116313649D01*
X159281054Y-116308772D01*
X159267969Y-116302583D01*
X159255553Y-116295142D01*
X159243927Y-116286519D01*
X159233202Y-116276798D01*
X159223481Y-116266073D01*
X159214858Y-116254447D01*
X159207417Y-116242031D01*
X159201228Y-116228946D01*
X159196351Y-116215317D01*
X159192834Y-116201276D01*
X159190710Y-116186958D01*
X159190000Y-116172500D01*
X159190000Y-115827500D01*
X159190710Y-115813042D01*
X159192834Y-115798724D01*
X159196351Y-115784683D01*
X159201228Y-115771054D01*
X159207417Y-115757969D01*
X159214858Y-115745553D01*
X159223481Y-115733927D01*
X159233202Y-115723202D01*
X159243927Y-115713481D01*
X159255553Y-115704858D01*
X159267969Y-115697417D01*
X159281054Y-115691228D01*
X159294683Y-115686351D01*
X159308724Y-115682834D01*
X159323042Y-115680710D01*
X159337500Y-115680000D01*
X159632500Y-115680000D01*
X159646958Y-115680710D01*
G37*
G36*
X158676958Y-115680710D02*
G01*
X158691276Y-115682834D01*
X158705317Y-115686351D01*
X158718946Y-115691228D01*
X158732031Y-115697417D01*
X158744447Y-115704858D01*
X158756073Y-115713481D01*
X158766798Y-115723202D01*
X158776519Y-115733927D01*
X158785142Y-115745553D01*
X158792583Y-115757969D01*
X158798772Y-115771054D01*
X158803649Y-115784683D01*
X158807166Y-115798724D01*
X158809290Y-115813042D01*
X158810000Y-115827500D01*
X158810000Y-116172500D01*
X158809290Y-116186958D01*
X158807166Y-116201276D01*
X158803649Y-116215317D01*
X158798772Y-116228946D01*
X158792583Y-116242031D01*
X158785142Y-116254447D01*
X158776519Y-116266073D01*
X158766798Y-116276798D01*
X158756073Y-116286519D01*
X158744447Y-116295142D01*
X158732031Y-116302583D01*
X158718946Y-116308772D01*
X158705317Y-116313649D01*
X158691276Y-116317166D01*
X158676958Y-116319290D01*
X158662500Y-116320000D01*
X158367500Y-116320000D01*
X158353042Y-116319290D01*
X158338724Y-116317166D01*
X158324683Y-116313649D01*
X158311054Y-116308772D01*
X158297969Y-116302583D01*
X158285553Y-116295142D01*
X158273927Y-116286519D01*
X158263202Y-116276798D01*
X158253481Y-116266073D01*
X158244858Y-116254447D01*
X158237417Y-116242031D01*
X158231228Y-116228946D01*
X158226351Y-116215317D01*
X158222834Y-116201276D01*
X158220710Y-116186958D01*
X158220000Y-116172500D01*
X158220000Y-115827500D01*
X158220710Y-115813042D01*
X158222834Y-115798724D01*
X158226351Y-115784683D01*
X158231228Y-115771054D01*
X158237417Y-115757969D01*
X158244858Y-115745553D01*
X158253481Y-115733927D01*
X158263202Y-115723202D01*
X158273927Y-115713481D01*
X158285553Y-115704858D01*
X158297969Y-115697417D01*
X158311054Y-115691228D01*
X158324683Y-115686351D01*
X158338724Y-115682834D01*
X158353042Y-115680710D01*
X158367500Y-115680000D01*
X158662500Y-115680000D01*
X158676958Y-115680710D01*
G37*
G36*
X159646958Y-114680710D02*
G01*
X159661276Y-114682834D01*
X159675317Y-114686351D01*
X159688946Y-114691228D01*
X159702031Y-114697417D01*
X159714447Y-114704858D01*
X159726073Y-114713481D01*
X159736798Y-114723202D01*
X159746519Y-114733927D01*
X159755142Y-114745553D01*
X159762583Y-114757969D01*
X159768772Y-114771054D01*
X159773649Y-114784683D01*
X159777166Y-114798724D01*
X159779290Y-114813042D01*
X159780000Y-114827500D01*
X159780000Y-115172500D01*
X159779290Y-115186958D01*
X159777166Y-115201276D01*
X159773649Y-115215317D01*
X159768772Y-115228946D01*
X159762583Y-115242031D01*
X159755142Y-115254447D01*
X159746519Y-115266073D01*
X159736798Y-115276798D01*
X159726073Y-115286519D01*
X159714447Y-115295142D01*
X159702031Y-115302583D01*
X159688946Y-115308772D01*
X159675317Y-115313649D01*
X159661276Y-115317166D01*
X159646958Y-115319290D01*
X159632500Y-115320000D01*
X159337500Y-115320000D01*
X159323042Y-115319290D01*
X159308724Y-115317166D01*
X159294683Y-115313649D01*
X159281054Y-115308772D01*
X159267969Y-115302583D01*
X159255553Y-115295142D01*
X159243927Y-115286519D01*
X159233202Y-115276798D01*
X159223481Y-115266073D01*
X159214858Y-115254447D01*
X159207417Y-115242031D01*
X159201228Y-115228946D01*
X159196351Y-115215317D01*
X159192834Y-115201276D01*
X159190710Y-115186958D01*
X159190000Y-115172500D01*
X159190000Y-114827500D01*
X159190710Y-114813042D01*
X159192834Y-114798724D01*
X159196351Y-114784683D01*
X159201228Y-114771054D01*
X159207417Y-114757969D01*
X159214858Y-114745553D01*
X159223481Y-114733927D01*
X159233202Y-114723202D01*
X159243927Y-114713481D01*
X159255553Y-114704858D01*
X159267969Y-114697417D01*
X159281054Y-114691228D01*
X159294683Y-114686351D01*
X159308724Y-114682834D01*
X159323042Y-114680710D01*
X159337500Y-114680000D01*
X159632500Y-114680000D01*
X159646958Y-114680710D01*
G37*
G36*
X158676958Y-114680710D02*
G01*
X158691276Y-114682834D01*
X158705317Y-114686351D01*
X158718946Y-114691228D01*
X158732031Y-114697417D01*
X158744447Y-114704858D01*
X158756073Y-114713481D01*
X158766798Y-114723202D01*
X158776519Y-114733927D01*
X158785142Y-114745553D01*
X158792583Y-114757969D01*
X158798772Y-114771054D01*
X158803649Y-114784683D01*
X158807166Y-114798724D01*
X158809290Y-114813042D01*
X158810000Y-114827500D01*
X158810000Y-115172500D01*
X158809290Y-115186958D01*
X158807166Y-115201276D01*
X158803649Y-115215317D01*
X158798772Y-115228946D01*
X158792583Y-115242031D01*
X158785142Y-115254447D01*
X158776519Y-115266073D01*
X158766798Y-115276798D01*
X158756073Y-115286519D01*
X158744447Y-115295142D01*
X158732031Y-115302583D01*
X158718946Y-115308772D01*
X158705317Y-115313649D01*
X158691276Y-115317166D01*
X158676958Y-115319290D01*
X158662500Y-115320000D01*
X158367500Y-115320000D01*
X158353042Y-115319290D01*
X158338724Y-115317166D01*
X158324683Y-115313649D01*
X158311054Y-115308772D01*
X158297969Y-115302583D01*
X158285553Y-115295142D01*
X158273927Y-115286519D01*
X158263202Y-115276798D01*
X158253481Y-115266073D01*
X158244858Y-115254447D01*
X158237417Y-115242031D01*
X158231228Y-115228946D01*
X158226351Y-115215317D01*
X158222834Y-115201276D01*
X158220710Y-115186958D01*
X158220000Y-115172500D01*
X158220000Y-114827500D01*
X158220710Y-114813042D01*
X158222834Y-114798724D01*
X158226351Y-114784683D01*
X158231228Y-114771054D01*
X158237417Y-114757969D01*
X158244858Y-114745553D01*
X158253481Y-114733927D01*
X158263202Y-114723202D01*
X158273927Y-114713481D01*
X158285553Y-114704858D01*
X158297969Y-114697417D01*
X158311054Y-114691228D01*
X158324683Y-114686351D01*
X158338724Y-114682834D01*
X158353042Y-114680710D01*
X158367500Y-114680000D01*
X158662500Y-114680000D01*
X158676958Y-114680710D01*
G37*
G36*
X159646958Y-110680710D02*
G01*
X159661276Y-110682834D01*
X159675317Y-110686351D01*
X159688946Y-110691228D01*
X159702031Y-110697417D01*
X159714447Y-110704858D01*
X159726073Y-110713481D01*
X159736798Y-110723202D01*
X159746519Y-110733927D01*
X159755142Y-110745553D01*
X159762583Y-110757969D01*
X159768772Y-110771054D01*
X159773649Y-110784683D01*
X159777166Y-110798724D01*
X159779290Y-110813042D01*
X159780000Y-110827500D01*
X159780000Y-111172500D01*
X159779290Y-111186958D01*
X159777166Y-111201276D01*
X159773649Y-111215317D01*
X159768772Y-111228946D01*
X159762583Y-111242031D01*
X159755142Y-111254447D01*
X159746519Y-111266073D01*
X159736798Y-111276798D01*
X159726073Y-111286519D01*
X159714447Y-111295142D01*
X159702031Y-111302583D01*
X159688946Y-111308772D01*
X159675317Y-111313649D01*
X159661276Y-111317166D01*
X159646958Y-111319290D01*
X159632500Y-111320000D01*
X159337500Y-111320000D01*
X159323042Y-111319290D01*
X159308724Y-111317166D01*
X159294683Y-111313649D01*
X159281054Y-111308772D01*
X159267969Y-111302583D01*
X159255553Y-111295142D01*
X159243927Y-111286519D01*
X159233202Y-111276798D01*
X159223481Y-111266073D01*
X159214858Y-111254447D01*
X159207417Y-111242031D01*
X159201228Y-111228946D01*
X159196351Y-111215317D01*
X159192834Y-111201276D01*
X159190710Y-111186958D01*
X159190000Y-111172500D01*
X159190000Y-110827500D01*
X159190710Y-110813042D01*
X159192834Y-110798724D01*
X159196351Y-110784683D01*
X159201228Y-110771054D01*
X159207417Y-110757969D01*
X159214858Y-110745553D01*
X159223481Y-110733927D01*
X159233202Y-110723202D01*
X159243927Y-110713481D01*
X159255553Y-110704858D01*
X159267969Y-110697417D01*
X159281054Y-110691228D01*
X159294683Y-110686351D01*
X159308724Y-110682834D01*
X159323042Y-110680710D01*
X159337500Y-110680000D01*
X159632500Y-110680000D01*
X159646958Y-110680710D01*
G37*
G36*
X158676958Y-110680710D02*
G01*
X158691276Y-110682834D01*
X158705317Y-110686351D01*
X158718946Y-110691228D01*
X158732031Y-110697417D01*
X158744447Y-110704858D01*
X158756073Y-110713481D01*
X158766798Y-110723202D01*
X158776519Y-110733927D01*
X158785142Y-110745553D01*
X158792583Y-110757969D01*
X158798772Y-110771054D01*
X158803649Y-110784683D01*
X158807166Y-110798724D01*
X158809290Y-110813042D01*
X158810000Y-110827500D01*
X158810000Y-111172500D01*
X158809290Y-111186958D01*
X158807166Y-111201276D01*
X158803649Y-111215317D01*
X158798772Y-111228946D01*
X158792583Y-111242031D01*
X158785142Y-111254447D01*
X158776519Y-111266073D01*
X158766798Y-111276798D01*
X158756073Y-111286519D01*
X158744447Y-111295142D01*
X158732031Y-111302583D01*
X158718946Y-111308772D01*
X158705317Y-111313649D01*
X158691276Y-111317166D01*
X158676958Y-111319290D01*
X158662500Y-111320000D01*
X158367500Y-111320000D01*
X158353042Y-111319290D01*
X158338724Y-111317166D01*
X158324683Y-111313649D01*
X158311054Y-111308772D01*
X158297969Y-111302583D01*
X158285553Y-111295142D01*
X158273927Y-111286519D01*
X158263202Y-111276798D01*
X158253481Y-111266073D01*
X158244858Y-111254447D01*
X158237417Y-111242031D01*
X158231228Y-111228946D01*
X158226351Y-111215317D01*
X158222834Y-111201276D01*
X158220710Y-111186958D01*
X158220000Y-111172500D01*
X158220000Y-110827500D01*
X158220710Y-110813042D01*
X158222834Y-110798724D01*
X158226351Y-110784683D01*
X158231228Y-110771054D01*
X158237417Y-110757969D01*
X158244858Y-110745553D01*
X158253481Y-110733927D01*
X158263202Y-110723202D01*
X158273927Y-110713481D01*
X158285553Y-110704858D01*
X158297969Y-110697417D01*
X158311054Y-110691228D01*
X158324683Y-110686351D01*
X158338724Y-110682834D01*
X158353042Y-110680710D01*
X158367500Y-110680000D01*
X158662500Y-110680000D01*
X158676958Y-110680710D01*
G37*
G36*
X159646958Y-109680710D02*
G01*
X159661276Y-109682834D01*
X159675317Y-109686351D01*
X159688946Y-109691228D01*
X159702031Y-109697417D01*
X159714447Y-109704858D01*
X159726073Y-109713481D01*
X159736798Y-109723202D01*
X159746519Y-109733927D01*
X159755142Y-109745553D01*
X159762583Y-109757969D01*
X159768772Y-109771054D01*
X159773649Y-109784683D01*
X159777166Y-109798724D01*
X159779290Y-109813042D01*
X159780000Y-109827500D01*
X159780000Y-110172500D01*
X159779290Y-110186958D01*
X159777166Y-110201276D01*
X159773649Y-110215317D01*
X159768772Y-110228946D01*
X159762583Y-110242031D01*
X159755142Y-110254447D01*
X159746519Y-110266073D01*
X159736798Y-110276798D01*
X159726073Y-110286519D01*
X159714447Y-110295142D01*
X159702031Y-110302583D01*
X159688946Y-110308772D01*
X159675317Y-110313649D01*
X159661276Y-110317166D01*
X159646958Y-110319290D01*
X159632500Y-110320000D01*
X159337500Y-110320000D01*
X159323042Y-110319290D01*
X159308724Y-110317166D01*
X159294683Y-110313649D01*
X159281054Y-110308772D01*
X159267969Y-110302583D01*
X159255553Y-110295142D01*
X159243927Y-110286519D01*
X159233202Y-110276798D01*
X159223481Y-110266073D01*
X159214858Y-110254447D01*
X159207417Y-110242031D01*
X159201228Y-110228946D01*
X159196351Y-110215317D01*
X159192834Y-110201276D01*
X159190710Y-110186958D01*
X159190000Y-110172500D01*
X159190000Y-109827500D01*
X159190710Y-109813042D01*
X159192834Y-109798724D01*
X159196351Y-109784683D01*
X159201228Y-109771054D01*
X159207417Y-109757969D01*
X159214858Y-109745553D01*
X159223481Y-109733927D01*
X159233202Y-109723202D01*
X159243927Y-109713481D01*
X159255553Y-109704858D01*
X159267969Y-109697417D01*
X159281054Y-109691228D01*
X159294683Y-109686351D01*
X159308724Y-109682834D01*
X159323042Y-109680710D01*
X159337500Y-109680000D01*
X159632500Y-109680000D01*
X159646958Y-109680710D01*
G37*
G36*
X158676958Y-109680710D02*
G01*
X158691276Y-109682834D01*
X158705317Y-109686351D01*
X158718946Y-109691228D01*
X158732031Y-109697417D01*
X158744447Y-109704858D01*
X158756073Y-109713481D01*
X158766798Y-109723202D01*
X158776519Y-109733927D01*
X158785142Y-109745553D01*
X158792583Y-109757969D01*
X158798772Y-109771054D01*
X158803649Y-109784683D01*
X158807166Y-109798724D01*
X158809290Y-109813042D01*
X158810000Y-109827500D01*
X158810000Y-110172500D01*
X158809290Y-110186958D01*
X158807166Y-110201276D01*
X158803649Y-110215317D01*
X158798772Y-110228946D01*
X158792583Y-110242031D01*
X158785142Y-110254447D01*
X158776519Y-110266073D01*
X158766798Y-110276798D01*
X158756073Y-110286519D01*
X158744447Y-110295142D01*
X158732031Y-110302583D01*
X158718946Y-110308772D01*
X158705317Y-110313649D01*
X158691276Y-110317166D01*
X158676958Y-110319290D01*
X158662500Y-110320000D01*
X158367500Y-110320000D01*
X158353042Y-110319290D01*
X158338724Y-110317166D01*
X158324683Y-110313649D01*
X158311054Y-110308772D01*
X158297969Y-110302583D01*
X158285553Y-110295142D01*
X158273927Y-110286519D01*
X158263202Y-110276798D01*
X158253481Y-110266073D01*
X158244858Y-110254447D01*
X158237417Y-110242031D01*
X158231228Y-110228946D01*
X158226351Y-110215317D01*
X158222834Y-110201276D01*
X158220710Y-110186958D01*
X158220000Y-110172500D01*
X158220000Y-109827500D01*
X158220710Y-109813042D01*
X158222834Y-109798724D01*
X158226351Y-109784683D01*
X158231228Y-109771054D01*
X158237417Y-109757969D01*
X158244858Y-109745553D01*
X158253481Y-109733927D01*
X158263202Y-109723202D01*
X158273927Y-109713481D01*
X158285553Y-109704858D01*
X158297969Y-109697417D01*
X158311054Y-109691228D01*
X158324683Y-109686351D01*
X158338724Y-109682834D01*
X158353042Y-109680710D01*
X158367500Y-109680000D01*
X158662500Y-109680000D01*
X158676958Y-109680710D01*
G37*
G36*
X159646958Y-105680710D02*
G01*
X159661276Y-105682834D01*
X159675317Y-105686351D01*
X159688946Y-105691228D01*
X159702031Y-105697417D01*
X159714447Y-105704858D01*
X159726073Y-105713481D01*
X159736798Y-105723202D01*
X159746519Y-105733927D01*
X159755142Y-105745553D01*
X159762583Y-105757969D01*
X159768772Y-105771054D01*
X159773649Y-105784683D01*
X159777166Y-105798724D01*
X159779290Y-105813042D01*
X159780000Y-105827500D01*
X159780000Y-106172500D01*
X159779290Y-106186958D01*
X159777166Y-106201276D01*
X159773649Y-106215317D01*
X159768772Y-106228946D01*
X159762583Y-106242031D01*
X159755142Y-106254447D01*
X159746519Y-106266073D01*
X159736798Y-106276798D01*
X159726073Y-106286519D01*
X159714447Y-106295142D01*
X159702031Y-106302583D01*
X159688946Y-106308772D01*
X159675317Y-106313649D01*
X159661276Y-106317166D01*
X159646958Y-106319290D01*
X159632500Y-106320000D01*
X159337500Y-106320000D01*
X159323042Y-106319290D01*
X159308724Y-106317166D01*
X159294683Y-106313649D01*
X159281054Y-106308772D01*
X159267969Y-106302583D01*
X159255553Y-106295142D01*
X159243927Y-106286519D01*
X159233202Y-106276798D01*
X159223481Y-106266073D01*
X159214858Y-106254447D01*
X159207417Y-106242031D01*
X159201228Y-106228946D01*
X159196351Y-106215317D01*
X159192834Y-106201276D01*
X159190710Y-106186958D01*
X159190000Y-106172500D01*
X159190000Y-105827500D01*
X159190710Y-105813042D01*
X159192834Y-105798724D01*
X159196351Y-105784683D01*
X159201228Y-105771054D01*
X159207417Y-105757969D01*
X159214858Y-105745553D01*
X159223481Y-105733927D01*
X159233202Y-105723202D01*
X159243927Y-105713481D01*
X159255553Y-105704858D01*
X159267969Y-105697417D01*
X159281054Y-105691228D01*
X159294683Y-105686351D01*
X159308724Y-105682834D01*
X159323042Y-105680710D01*
X159337500Y-105680000D01*
X159632500Y-105680000D01*
X159646958Y-105680710D01*
G37*
G36*
X158676958Y-105680710D02*
G01*
X158691276Y-105682834D01*
X158705317Y-105686351D01*
X158718946Y-105691228D01*
X158732031Y-105697417D01*
X158744447Y-105704858D01*
X158756073Y-105713481D01*
X158766798Y-105723202D01*
X158776519Y-105733927D01*
X158785142Y-105745553D01*
X158792583Y-105757969D01*
X158798772Y-105771054D01*
X158803649Y-105784683D01*
X158807166Y-105798724D01*
X158809290Y-105813042D01*
X158810000Y-105827500D01*
X158810000Y-106172500D01*
X158809290Y-106186958D01*
X158807166Y-106201276D01*
X158803649Y-106215317D01*
X158798772Y-106228946D01*
X158792583Y-106242031D01*
X158785142Y-106254447D01*
X158776519Y-106266073D01*
X158766798Y-106276798D01*
X158756073Y-106286519D01*
X158744447Y-106295142D01*
X158732031Y-106302583D01*
X158718946Y-106308772D01*
X158705317Y-106313649D01*
X158691276Y-106317166D01*
X158676958Y-106319290D01*
X158662500Y-106320000D01*
X158367500Y-106320000D01*
X158353042Y-106319290D01*
X158338724Y-106317166D01*
X158324683Y-106313649D01*
X158311054Y-106308772D01*
X158297969Y-106302583D01*
X158285553Y-106295142D01*
X158273927Y-106286519D01*
X158263202Y-106276798D01*
X158253481Y-106266073D01*
X158244858Y-106254447D01*
X158237417Y-106242031D01*
X158231228Y-106228946D01*
X158226351Y-106215317D01*
X158222834Y-106201276D01*
X158220710Y-106186958D01*
X158220000Y-106172500D01*
X158220000Y-105827500D01*
X158220710Y-105813042D01*
X158222834Y-105798724D01*
X158226351Y-105784683D01*
X158231228Y-105771054D01*
X158237417Y-105757969D01*
X158244858Y-105745553D01*
X158253481Y-105733927D01*
X158263202Y-105723202D01*
X158273927Y-105713481D01*
X158285553Y-105704858D01*
X158297969Y-105697417D01*
X158311054Y-105691228D01*
X158324683Y-105686351D01*
X158338724Y-105682834D01*
X158353042Y-105680710D01*
X158367500Y-105680000D01*
X158662500Y-105680000D01*
X158676958Y-105680710D01*
G37*
G36*
X159646958Y-104680710D02*
G01*
X159661276Y-104682834D01*
X159675317Y-104686351D01*
X159688946Y-104691228D01*
X159702031Y-104697417D01*
X159714447Y-104704858D01*
X159726073Y-104713481D01*
X159736798Y-104723202D01*
X159746519Y-104733927D01*
X159755142Y-104745553D01*
X159762583Y-104757969D01*
X159768772Y-104771054D01*
X159773649Y-104784683D01*
X159777166Y-104798724D01*
X159779290Y-104813042D01*
X159780000Y-104827500D01*
X159780000Y-105172500D01*
X159779290Y-105186958D01*
X159777166Y-105201276D01*
X159773649Y-105215317D01*
X159768772Y-105228946D01*
X159762583Y-105242031D01*
X159755142Y-105254447D01*
X159746519Y-105266073D01*
X159736798Y-105276798D01*
X159726073Y-105286519D01*
X159714447Y-105295142D01*
X159702031Y-105302583D01*
X159688946Y-105308772D01*
X159675317Y-105313649D01*
X159661276Y-105317166D01*
X159646958Y-105319290D01*
X159632500Y-105320000D01*
X159337500Y-105320000D01*
X159323042Y-105319290D01*
X159308724Y-105317166D01*
X159294683Y-105313649D01*
X159281054Y-105308772D01*
X159267969Y-105302583D01*
X159255553Y-105295142D01*
X159243927Y-105286519D01*
X159233202Y-105276798D01*
X159223481Y-105266073D01*
X159214858Y-105254447D01*
X159207417Y-105242031D01*
X159201228Y-105228946D01*
X159196351Y-105215317D01*
X159192834Y-105201276D01*
X159190710Y-105186958D01*
X159190000Y-105172500D01*
X159190000Y-104827500D01*
X159190710Y-104813042D01*
X159192834Y-104798724D01*
X159196351Y-104784683D01*
X159201228Y-104771054D01*
X159207417Y-104757969D01*
X159214858Y-104745553D01*
X159223481Y-104733927D01*
X159233202Y-104723202D01*
X159243927Y-104713481D01*
X159255553Y-104704858D01*
X159267969Y-104697417D01*
X159281054Y-104691228D01*
X159294683Y-104686351D01*
X159308724Y-104682834D01*
X159323042Y-104680710D01*
X159337500Y-104680000D01*
X159632500Y-104680000D01*
X159646958Y-104680710D01*
G37*
G36*
X158676958Y-104680710D02*
G01*
X158691276Y-104682834D01*
X158705317Y-104686351D01*
X158718946Y-104691228D01*
X158732031Y-104697417D01*
X158744447Y-104704858D01*
X158756073Y-104713481D01*
X158766798Y-104723202D01*
X158776519Y-104733927D01*
X158785142Y-104745553D01*
X158792583Y-104757969D01*
X158798772Y-104771054D01*
X158803649Y-104784683D01*
X158807166Y-104798724D01*
X158809290Y-104813042D01*
X158810000Y-104827500D01*
X158810000Y-105172500D01*
X158809290Y-105186958D01*
X158807166Y-105201276D01*
X158803649Y-105215317D01*
X158798772Y-105228946D01*
X158792583Y-105242031D01*
X158785142Y-105254447D01*
X158776519Y-105266073D01*
X158766798Y-105276798D01*
X158756073Y-105286519D01*
X158744447Y-105295142D01*
X158732031Y-105302583D01*
X158718946Y-105308772D01*
X158705317Y-105313649D01*
X158691276Y-105317166D01*
X158676958Y-105319290D01*
X158662500Y-105320000D01*
X158367500Y-105320000D01*
X158353042Y-105319290D01*
X158338724Y-105317166D01*
X158324683Y-105313649D01*
X158311054Y-105308772D01*
X158297969Y-105302583D01*
X158285553Y-105295142D01*
X158273927Y-105286519D01*
X158263202Y-105276798D01*
X158253481Y-105266073D01*
X158244858Y-105254447D01*
X158237417Y-105242031D01*
X158231228Y-105228946D01*
X158226351Y-105215317D01*
X158222834Y-105201276D01*
X158220710Y-105186958D01*
X158220000Y-105172500D01*
X158220000Y-104827500D01*
X158220710Y-104813042D01*
X158222834Y-104798724D01*
X158226351Y-104784683D01*
X158231228Y-104771054D01*
X158237417Y-104757969D01*
X158244858Y-104745553D01*
X158253481Y-104733927D01*
X158263202Y-104723202D01*
X158273927Y-104713481D01*
X158285553Y-104704858D01*
X158297969Y-104697417D01*
X158311054Y-104691228D01*
X158324683Y-104686351D01*
X158338724Y-104682834D01*
X158353042Y-104680710D01*
X158367500Y-104680000D01*
X158662500Y-104680000D01*
X158676958Y-104680710D01*
G37*
G36*
X159646958Y-92680710D02*
G01*
X159661276Y-92682834D01*
X159675317Y-92686351D01*
X159688946Y-92691228D01*
X159702031Y-92697417D01*
X159714447Y-92704858D01*
X159726073Y-92713481D01*
X159736798Y-92723202D01*
X159746519Y-92733927D01*
X159755142Y-92745553D01*
X159762583Y-92757969D01*
X159768772Y-92771054D01*
X159773649Y-92784683D01*
X159777166Y-92798724D01*
X159779290Y-92813042D01*
X159780000Y-92827500D01*
X159780000Y-93172500D01*
X159779290Y-93186958D01*
X159777166Y-93201276D01*
X159773649Y-93215317D01*
X159768772Y-93228946D01*
X159762583Y-93242031D01*
X159755142Y-93254447D01*
X159746519Y-93266073D01*
X159736798Y-93276798D01*
X159726073Y-93286519D01*
X159714447Y-93295142D01*
X159702031Y-93302583D01*
X159688946Y-93308772D01*
X159675317Y-93313649D01*
X159661276Y-93317166D01*
X159646958Y-93319290D01*
X159632500Y-93320000D01*
X159337500Y-93320000D01*
X159323042Y-93319290D01*
X159308724Y-93317166D01*
X159294683Y-93313649D01*
X159281054Y-93308772D01*
X159267969Y-93302583D01*
X159255553Y-93295142D01*
X159243927Y-93286519D01*
X159233202Y-93276798D01*
X159223481Y-93266073D01*
X159214858Y-93254447D01*
X159207417Y-93242031D01*
X159201228Y-93228946D01*
X159196351Y-93215317D01*
X159192834Y-93201276D01*
X159190710Y-93186958D01*
X159190000Y-93172500D01*
X159190000Y-92827500D01*
X159190710Y-92813042D01*
X159192834Y-92798724D01*
X159196351Y-92784683D01*
X159201228Y-92771054D01*
X159207417Y-92757969D01*
X159214858Y-92745553D01*
X159223481Y-92733927D01*
X159233202Y-92723202D01*
X159243927Y-92713481D01*
X159255553Y-92704858D01*
X159267969Y-92697417D01*
X159281054Y-92691228D01*
X159294683Y-92686351D01*
X159308724Y-92682834D01*
X159323042Y-92680710D01*
X159337500Y-92680000D01*
X159632500Y-92680000D01*
X159646958Y-92680710D01*
G37*
G36*
X158676958Y-92680710D02*
G01*
X158691276Y-92682834D01*
X158705317Y-92686351D01*
X158718946Y-92691228D01*
X158732031Y-92697417D01*
X158744447Y-92704858D01*
X158756073Y-92713481D01*
X158766798Y-92723202D01*
X158776519Y-92733927D01*
X158785142Y-92745553D01*
X158792583Y-92757969D01*
X158798772Y-92771054D01*
X158803649Y-92784683D01*
X158807166Y-92798724D01*
X158809290Y-92813042D01*
X158810000Y-92827500D01*
X158810000Y-93172500D01*
X158809290Y-93186958D01*
X158807166Y-93201276D01*
X158803649Y-93215317D01*
X158798772Y-93228946D01*
X158792583Y-93242031D01*
X158785142Y-93254447D01*
X158776519Y-93266073D01*
X158766798Y-93276798D01*
X158756073Y-93286519D01*
X158744447Y-93295142D01*
X158732031Y-93302583D01*
X158718946Y-93308772D01*
X158705317Y-93313649D01*
X158691276Y-93317166D01*
X158676958Y-93319290D01*
X158662500Y-93320000D01*
X158367500Y-93320000D01*
X158353042Y-93319290D01*
X158338724Y-93317166D01*
X158324683Y-93313649D01*
X158311054Y-93308772D01*
X158297969Y-93302583D01*
X158285553Y-93295142D01*
X158273927Y-93286519D01*
X158263202Y-93276798D01*
X158253481Y-93266073D01*
X158244858Y-93254447D01*
X158237417Y-93242031D01*
X158231228Y-93228946D01*
X158226351Y-93215317D01*
X158222834Y-93201276D01*
X158220710Y-93186958D01*
X158220000Y-93172500D01*
X158220000Y-92827500D01*
X158220710Y-92813042D01*
X158222834Y-92798724D01*
X158226351Y-92784683D01*
X158231228Y-92771054D01*
X158237417Y-92757969D01*
X158244858Y-92745553D01*
X158253481Y-92733927D01*
X158263202Y-92723202D01*
X158273927Y-92713481D01*
X158285553Y-92704858D01*
X158297969Y-92697417D01*
X158311054Y-92691228D01*
X158324683Y-92686351D01*
X158338724Y-92682834D01*
X158353042Y-92680710D01*
X158367500Y-92680000D01*
X158662500Y-92680000D01*
X158676958Y-92680710D01*
G37*
G36*
X159646958Y-91680710D02*
G01*
X159661276Y-91682834D01*
X159675317Y-91686351D01*
X159688946Y-91691228D01*
X159702031Y-91697417D01*
X159714447Y-91704858D01*
X159726073Y-91713481D01*
X159736798Y-91723202D01*
X159746519Y-91733927D01*
X159755142Y-91745553D01*
X159762583Y-91757969D01*
X159768772Y-91771054D01*
X159773649Y-91784683D01*
X159777166Y-91798724D01*
X159779290Y-91813042D01*
X159780000Y-91827500D01*
X159780000Y-92172500D01*
X159779290Y-92186958D01*
X159777166Y-92201276D01*
X159773649Y-92215317D01*
X159768772Y-92228946D01*
X159762583Y-92242031D01*
X159755142Y-92254447D01*
X159746519Y-92266073D01*
X159736798Y-92276798D01*
X159726073Y-92286519D01*
X159714447Y-92295142D01*
X159702031Y-92302583D01*
X159688946Y-92308772D01*
X159675317Y-92313649D01*
X159661276Y-92317166D01*
X159646958Y-92319290D01*
X159632500Y-92320000D01*
X159337500Y-92320000D01*
X159323042Y-92319290D01*
X159308724Y-92317166D01*
X159294683Y-92313649D01*
X159281054Y-92308772D01*
X159267969Y-92302583D01*
X159255553Y-92295142D01*
X159243927Y-92286519D01*
X159233202Y-92276798D01*
X159223481Y-92266073D01*
X159214858Y-92254447D01*
X159207417Y-92242031D01*
X159201228Y-92228946D01*
X159196351Y-92215317D01*
X159192834Y-92201276D01*
X159190710Y-92186958D01*
X159190000Y-92172500D01*
X159190000Y-91827500D01*
X159190710Y-91813042D01*
X159192834Y-91798724D01*
X159196351Y-91784683D01*
X159201228Y-91771054D01*
X159207417Y-91757969D01*
X159214858Y-91745553D01*
X159223481Y-91733927D01*
X159233202Y-91723202D01*
X159243927Y-91713481D01*
X159255553Y-91704858D01*
X159267969Y-91697417D01*
X159281054Y-91691228D01*
X159294683Y-91686351D01*
X159308724Y-91682834D01*
X159323042Y-91680710D01*
X159337500Y-91680000D01*
X159632500Y-91680000D01*
X159646958Y-91680710D01*
G37*
G36*
X158676958Y-91680710D02*
G01*
X158691276Y-91682834D01*
X158705317Y-91686351D01*
X158718946Y-91691228D01*
X158732031Y-91697417D01*
X158744447Y-91704858D01*
X158756073Y-91713481D01*
X158766798Y-91723202D01*
X158776519Y-91733927D01*
X158785142Y-91745553D01*
X158792583Y-91757969D01*
X158798772Y-91771054D01*
X158803649Y-91784683D01*
X158807166Y-91798724D01*
X158809290Y-91813042D01*
X158810000Y-91827500D01*
X158810000Y-92172500D01*
X158809290Y-92186958D01*
X158807166Y-92201276D01*
X158803649Y-92215317D01*
X158798772Y-92228946D01*
X158792583Y-92242031D01*
X158785142Y-92254447D01*
X158776519Y-92266073D01*
X158766798Y-92276798D01*
X158756073Y-92286519D01*
X158744447Y-92295142D01*
X158732031Y-92302583D01*
X158718946Y-92308772D01*
X158705317Y-92313649D01*
X158691276Y-92317166D01*
X158676958Y-92319290D01*
X158662500Y-92320000D01*
X158367500Y-92320000D01*
X158353042Y-92319290D01*
X158338724Y-92317166D01*
X158324683Y-92313649D01*
X158311054Y-92308772D01*
X158297969Y-92302583D01*
X158285553Y-92295142D01*
X158273927Y-92286519D01*
X158263202Y-92276798D01*
X158253481Y-92266073D01*
X158244858Y-92254447D01*
X158237417Y-92242031D01*
X158231228Y-92228946D01*
X158226351Y-92215317D01*
X158222834Y-92201276D01*
X158220710Y-92186958D01*
X158220000Y-92172500D01*
X158220000Y-91827500D01*
X158220710Y-91813042D01*
X158222834Y-91798724D01*
X158226351Y-91784683D01*
X158231228Y-91771054D01*
X158237417Y-91757969D01*
X158244858Y-91745553D01*
X158253481Y-91733927D01*
X158263202Y-91723202D01*
X158273927Y-91713481D01*
X158285553Y-91704858D01*
X158297969Y-91697417D01*
X158311054Y-91691228D01*
X158324683Y-91686351D01*
X158338724Y-91682834D01*
X158353042Y-91680710D01*
X158367500Y-91680000D01*
X158662500Y-91680000D01*
X158676958Y-91680710D01*
G37*
D11*
X190950000Y-110725000D03*
X190950000Y-111375000D03*
X190950000Y-112025000D03*
X190950000Y-112675000D03*
X190950000Y-113325000D03*
X190950000Y-113975000D03*
X190950000Y-114625000D03*
X190950000Y-115275000D03*
X185050000Y-115275000D03*
X185050000Y-114625000D03*
X185050000Y-113975000D03*
X185050000Y-113325000D03*
X185050000Y-112675000D03*
X185050000Y-112025000D03*
X185050000Y-111375000D03*
X185050000Y-110725000D03*
X174950000Y-110725000D03*
X174950000Y-111375000D03*
X174950000Y-112025000D03*
X174950000Y-112675000D03*
X174950000Y-113325000D03*
X174950000Y-113975000D03*
X174950000Y-114625000D03*
X174950000Y-115275000D03*
X169050000Y-115275000D03*
X169050000Y-114625000D03*
X169050000Y-113975000D03*
X169050000Y-113325000D03*
X169050000Y-112675000D03*
X169050000Y-112025000D03*
X169050000Y-111375000D03*
X169050000Y-110725000D03*
X190910000Y-101865000D03*
X190910000Y-102515000D03*
X190910000Y-103165000D03*
X190910000Y-103815000D03*
X190910000Y-104465000D03*
X190910000Y-105115000D03*
X190910000Y-105765000D03*
X190910000Y-106415000D03*
X185010000Y-106415000D03*
X185010000Y-105765000D03*
X185010000Y-105115000D03*
X185010000Y-104465000D03*
X185010000Y-103815000D03*
X185010000Y-103165000D03*
X185010000Y-102515000D03*
X185010000Y-101865000D03*
X174950000Y-101725000D03*
X174950000Y-102375000D03*
X174950000Y-103025000D03*
X174950000Y-103675000D03*
X174950000Y-104325000D03*
X174950000Y-104975000D03*
X174950000Y-105625000D03*
X174950000Y-106275000D03*
X169050000Y-106275000D03*
X169050000Y-105625000D03*
X169050000Y-104975000D03*
X169050000Y-104325000D03*
X169050000Y-103675000D03*
X169050000Y-103025000D03*
X169050000Y-102375000D03*
X169050000Y-101725000D03*
X190950000Y-92725000D03*
X190950000Y-93375000D03*
X190950000Y-94025000D03*
X190950000Y-94675000D03*
X190950000Y-95325000D03*
X190950000Y-95975000D03*
X190950000Y-96625000D03*
X190950000Y-97275000D03*
X185050000Y-97275000D03*
X185050000Y-96625000D03*
X185050000Y-95975000D03*
X185050000Y-95325000D03*
X185050000Y-94675000D03*
X185050000Y-94025000D03*
X185050000Y-93375000D03*
X185050000Y-92725000D03*
X174950000Y-92725000D03*
X174950000Y-93375000D03*
X174950000Y-94025000D03*
X174950000Y-94675000D03*
X174950000Y-95325000D03*
X174950000Y-95975000D03*
X174950000Y-96625000D03*
X174950000Y-97275000D03*
X169050000Y-97275000D03*
X169050000Y-96625000D03*
X169050000Y-95975000D03*
X169050000Y-95325000D03*
X169050000Y-94675000D03*
X169050000Y-94025000D03*
X169050000Y-93375000D03*
X169050000Y-92725000D03*
X190950000Y-83725000D03*
X190950000Y-84375000D03*
X190950000Y-85025000D03*
X190950000Y-85675000D03*
X190950000Y-86325000D03*
X190950000Y-86975000D03*
X190950000Y-87625000D03*
X190950000Y-88275000D03*
X185050000Y-88275000D03*
X185050000Y-87625000D03*
X185050000Y-86975000D03*
X185050000Y-86325000D03*
X185050000Y-85675000D03*
X185050000Y-85025000D03*
X185050000Y-84375000D03*
X185050000Y-83725000D03*
X174950000Y-83725000D03*
X174950000Y-84375000D03*
X174950000Y-85025000D03*
X174950000Y-85675000D03*
X174950000Y-86325000D03*
X174950000Y-86975000D03*
X174950000Y-87625000D03*
X174950000Y-88275000D03*
X169050000Y-88275000D03*
X169050000Y-87625000D03*
X169050000Y-86975000D03*
X169050000Y-86325000D03*
X169050000Y-85675000D03*
X169050000Y-85025000D03*
X169050000Y-84375000D03*
X169050000Y-83725000D03*
X190950000Y-74725000D03*
X190950000Y-75375000D03*
X190950000Y-76025000D03*
X190950000Y-76675000D03*
X190950000Y-77325000D03*
X190950000Y-77975000D03*
X190950000Y-78625000D03*
X190950000Y-79275000D03*
X185050000Y-79275000D03*
X185050000Y-78625000D03*
X185050000Y-77975000D03*
X185050000Y-77325000D03*
X185050000Y-76675000D03*
X185050000Y-76025000D03*
X185050000Y-75375000D03*
X185050000Y-74725000D03*
X174950000Y-74725000D03*
X174950000Y-75375000D03*
X174950000Y-76025000D03*
X174950000Y-76675000D03*
X174950000Y-77325000D03*
X174950000Y-77975000D03*
X174950000Y-78625000D03*
X174950000Y-79275000D03*
X169050000Y-79275000D03*
X169050000Y-78625000D03*
X169050000Y-77975000D03*
X169050000Y-77325000D03*
X169050000Y-76675000D03*
X169050000Y-76025000D03*
X169050000Y-75375000D03*
X169050000Y-74725000D03*
M02*
